<svg width="44" height="44" viewBox="0 0 44 44" fill="none" xmlns="http://www.w3.org/2000/svg">
<rect width="44" height="44" rx="22" fill="black"/>
<path d="M14.0718 30.2033C13.442 30.2033 12.9054 29.9816 12.462 29.5381C12.0185 29.0946 11.7968 28.558 11.7968 27.9283V16.0718C11.7968 15.4421 12.0185 14.9055 12.462 14.462C12.9055 14.0185 13.4421 13.7968 14.0718 13.7968H29.9283C30.558 13.7968 31.0946 14.0185 31.5381 14.462C31.9816 14.9055 32.2033 15.4421 32.2033 16.0718V27.9283C32.2033 28.558 31.9816 29.0946 31.5381 29.5381C31.0946 29.9816 30.558 30.2033 29.9283 30.2033H14.0718ZM22 23.0522C22.0993 23.0522 22.2007 23.0377 22.3044 23.0087C22.408 22.9797 22.5074 22.9363 22.6027 22.8783L29.4924 18.531C29.6297 18.4477 29.7367 18.3375 29.8133 18.2006C29.8899 18.0636 29.9283 17.9122 29.9283 17.7462C29.9283 17.389 29.7736 17.1181 29.4644 16.9335C29.1552 16.7489 28.8366 16.7582 28.5087 16.9615L22 21.0718L15.4913 16.9615C15.1674 16.7622 14.8498 16.755 14.5386 16.94C14.2274 17.1249 14.0718 17.3937 14.0718 17.7462C14.0718 17.9288 14.1101 18.0876 14.1867 18.2226C14.2633 18.3575 14.3703 18.4604 14.5076 18.531L21.3973 22.8783C21.4926 22.9363 21.592 22.9797 21.6957 23.0087C21.7993 23.0377 21.9007 23.0522 22 23.0522Z" fill="white"/>
</svg>
