<svg width="154" height="32" viewBox="0 0 154 32" fill="none" xmlns="http://www.w3.org/2000/svg">
<path fill-rule="evenodd" clip-rule="evenodd" d="M39.3107 21.1508C39.5625 21.5577 39.8898 21.863 40.2926 22.1046C40.6954 22.3336 41.1486 22.5116 41.6647 22.6007C42.1682 22.7024 42.6969 22.7533 43.2382 22.7533C43.6536 22.7533 44.0942 22.7278 44.5473 22.6643C45.0131 22.6007 45.4285 22.4989 45.8187 22.3336C46.1964 22.1682 46.5111 21.9266 46.7628 21.6086C47.0146 21.3034 47.1405 20.8964 47.1405 20.4131C47.1405 19.739 46.8761 19.2303 46.36 18.8869C45.8439 18.5308 45.1893 18.251 44.4089 18.0475C43.6284 17.8312 42.785 17.6405 41.8661 17.4624C40.9472 17.2844 40.1038 17.0427 39.3233 16.7247C38.5429 16.4195 37.8883 15.9744 37.3722 15.402C36.8561 14.8297 36.5917 14.0412 36.5917 13.0237C36.5917 12.2224 36.768 11.5483 37.133 10.976C37.4981 10.4037 37.9764 9.94582 38.5429 9.5897C39.1093 9.23359 39.7639 8.9665 40.4814 8.78844C41.1989 8.6231 41.9039 8.53407 42.6214 8.53407C43.5277 8.53407 44.3711 8.61038 45.139 8.763C45.9194 8.91562 46.5992 9.18271 47.1908 9.55155C47.7825 9.9331 48.2482 10.4418 48.6133 11.0778C48.9657 11.7264 49.1671 12.5149 49.2301 13.4815H46.574C46.5362 12.9728 46.3978 12.5404 46.1712 12.2097C45.9446 11.879 45.6551 11.6119 45.3026 11.3957C44.9502 11.1922 44.5599 11.0523 44.1319 10.9633C43.7039 10.8615 43.276 10.8234 42.8354 10.8234C42.4326 10.8234 42.0423 10.8488 41.6269 10.9124C41.2241 10.976 40.8591 11.0778 40.5192 11.2304C40.1919 11.383 39.915 11.5865 39.7136 11.8409C39.4996 12.0952 39.3989 12.4259 39.3989 12.8329C39.3989 13.278 39.5625 13.6596 39.8898 13.9521C40.2045 14.2446 40.6199 14.4863 41.1234 14.6771C41.6143 14.8806 42.1808 15.0459 42.7976 15.1731C43.427 15.3003 44.0564 15.4402 44.6732 15.5801C45.3404 15.7327 45.995 15.898 46.6244 16.1015C47.2538 16.305 47.8202 16.5721 48.3111 16.9155C48.8021 17.2462 49.1923 17.6659 49.4944 18.1746C49.7965 18.6834 49.9476 19.3193 49.9476 20.0697C49.9476 21.0363 49.7462 21.8248 49.3434 22.448C48.9406 23.084 48.3993 23.5927 47.7447 23.987C47.0901 24.3685 46.36 24.6356 45.5292 24.7882C44.711 24.9409 43.8928 25.0172 43.0871 25.0172C42.1934 25.0172 41.3374 24.9281 40.5192 24.7501C39.7136 24.5593 38.996 24.2668 38.3666 23.8471C37.7498 23.4274 37.2463 22.8805 36.8687 22.1937C36.5036 21.5069 36.2896 20.6802 36.2519 19.7009H38.8953C38.9205 20.2732 39.059 20.7565 39.3107 21.1508ZM53.0442 8.90291H55.6877V24.6865H53.0442V8.90291ZM66.7148 8.90291V11.1922H63.4923V20.9854C63.4923 21.2907 63.5174 21.5323 63.5678 21.7231C63.6182 21.9011 63.7189 22.0538 63.8699 22.1555C64.021 22.2573 64.2224 22.3209 64.4741 22.3463C64.7385 22.3717 65.0784 22.3972 65.4938 22.3972H66.7148V24.6865H64.6755C63.9958 24.6865 63.4042 24.6356 62.9132 24.5466C62.4223 24.4576 62.0321 24.2922 61.7299 24.0378C61.4278 23.7962 61.2013 23.4528 61.0628 23.0077C60.9117 22.5625 60.8362 21.9647 60.8362 21.2271V11.1922H58.092V8.90291H60.8362V4.15893H63.4923V8.90291H66.7148ZM81.0651 23.669C79.8567 24.572 78.3335 25.0172 76.5083 25.0172C75.2243 25.0172 74.104 24.8137 73.1599 24.4067C72.2032 23.9997 71.4101 23.4274 70.7681 22.7024C70.1261 21.9647 69.6352 21.0872 69.3205 20.0697C68.9932 19.0522 68.817 17.9457 68.7666 16.7502C68.7666 15.5419 68.9555 14.4481 69.3331 13.4434C69.7107 12.4513 70.2268 11.5865 70.9066 10.8488C71.5863 10.1239 72.3794 9.55155 73.3109 9.14456C74.2424 8.73757 75.2495 8.53407 76.3572 8.53407C77.7922 8.53407 78.9755 8.81388 79.9322 9.39892C80.8763 9.98397 81.6316 10.7216 82.2106 11.6119C82.7771 12.5149 83.1673 13.4943 83.3939 14.5499C83.6079 15.6055 83.696 16.6103 83.6582 17.5642H71.5738C71.5612 18.2637 71.6367 18.9123 71.8255 19.5355C72.0143 20.1587 72.3165 20.7056 72.7319 21.1889C73.1473 21.6722 73.676 22.0538 74.3305 22.3336C74.9725 22.6134 75.7278 22.7533 76.5964 22.7533C77.7293 22.7533 78.6482 22.5116 79.3657 21.9902C80.0832 21.4942 80.5616 20.7183 80.7882 19.6754H83.4065C83.054 21.4433 82.2736 22.7787 81.0651 23.669ZM80.4231 13.5324C80.1839 12.9855 79.8692 12.5149 79.4538 12.1207C79.051 11.7264 78.5727 11.4084 78.0188 11.1668C77.4775 10.9379 76.8607 10.8234 76.1936 10.8234C75.5138 10.8234 74.8844 10.9379 74.3431 11.1668C73.7892 11.4084 73.3109 11.7264 72.9207 12.1334C72.5304 12.5404 72.2158 13.011 71.9892 13.5579C71.75 14.092 71.6241 14.6644 71.5738 15.2748H80.8511C80.8008 14.6644 80.6623 14.092 80.4231 13.5324ZM89.1466 8.90291V11.0396H89.2095C89.6501 10.162 90.3299 9.52611 91.274 9.13184C92.2055 8.72485 93.2377 8.53407 94.358 8.53407C95.6168 8.53407 96.6994 8.75029 97.6183 9.20815C98.5154 9.62588 99.3072 10.2433 99.9345 11.0142C100.551 11.7773 101.005 12.6676 101.319 13.6596C101.634 14.6644 101.785 15.72 101.785 16.8392C101.785 17.9584 101.634 19.0141 101.332 20.0061C101.03 21.0109 100.577 21.8757 99.9597 22.6261C99.3555 23.3638 98.575 23.9488 97.6561 24.3812C96.7246 24.801 95.6546 25.0172 94.421 25.0172C94.0307 25.0172 93.5902 24.979 93.0992 24.9027C92.6044 24.8162 92.1195 24.6799 91.6516 24.4957C91.1733 24.3176 90.7201 24.0633 90.2921 23.7453C89.8641 23.4401 89.4991 23.0458 89.2095 22.5752H89.1466V30.7023H86.4905V8.90291H89.1466ZM98.6883 14.499C98.4869 13.7995 98.1848 13.1763 97.782 12.6167C97.3673 12.0655 96.8334 11.6174 96.2211 11.3067C95.5791 10.9887 94.8364 10.8234 93.9804 10.8234C93.0866 10.8234 92.3314 10.9887 91.702 11.3448C91.0852 11.6882 90.569 12.1461 90.1788 12.693C89.7886 13.2653 89.4991 13.9013 89.3228 14.6008C89.1466 15.3257 89.0585 16.0379 89.0585 16.7756C89.0585 17.5514 89.1466 18.3018 89.3354 19.0141C89.5242 19.739 89.8138 20.3749 90.2292 20.9218C90.632 21.4814 91.1607 21.9139 91.8027 22.2573C92.4447 22.5879 93.2251 22.7533 94.144 22.7533C95.063 22.7533 95.8182 22.5879 96.4351 22.2445C97.0519 21.9011 97.5428 21.4433 97.9204 20.871C98.2981 20.2986 98.5624 19.65 98.7261 18.9123C98.9023 18.1746 98.9778 17.4243 98.9778 16.6484C98.9778 15.9235 98.8771 15.1985 98.6883 14.499ZM104.529 13.5579C104.869 12.5404 105.373 11.6755 106.027 10.9251C106.694 10.1875 107.525 9.60242 108.507 9.16999C109.476 8.75028 110.597 8.53407 111.868 8.53407C113.164 8.53407 114.285 8.75028 115.254 9.16999C116.223 9.60242 117.042 10.1875 117.709 10.9251C118.376 11.6755 118.867 12.5404 119.207 13.5579C119.534 14.5626 119.71 15.6437 119.71 16.8011C119.71 17.9712 119.534 19.0395 119.207 20.0443C118.867 21.0363 118.376 21.9139 117.709 22.6515C117.042 23.4019 116.223 23.9743 115.254 24.394C114.285 24.8137 113.164 25.0172 111.868 25.0172C110.597 25.0172 109.476 24.8137 108.507 24.394C107.525 23.9743 106.694 23.4019 106.027 22.6515C105.373 21.9139 104.869 21.0363 104.529 20.0443C104.202 19.0395 104.038 17.9712 104.038 16.8011C104.038 15.6437 104.202 14.5626 104.529 13.5579ZM107.236 19.3575C107.5 20.0951 107.852 20.7183 108.318 21.2143C108.771 21.7104 109.3 22.0919 109.917 22.359C110.534 22.6261 111.188 22.7533 111.868 22.7533C112.535 22.7609 113.196 22.628 113.81 22.363C114.423 22.098 114.975 21.7068 115.43 21.2143C115.884 20.7183 116.249 20.0951 116.5 19.3575C116.765 18.6071 116.891 17.7677 116.891 16.8011C116.891 15.8472 116.765 14.995 116.5 14.2574C116.272 13.5639 115.908 12.9237 115.43 12.375C114.965 11.8663 114.436 11.4847 113.819 11.2177C113.202 10.9506 112.56 10.8234 111.868 10.8234C111.188 10.8234 110.534 10.9506 109.917 11.2177C109.3 11.4847 108.771 11.8663 108.318 12.375C107.852 12.8838 107.5 13.5197 107.236 14.2574C106.971 14.995 106.845 15.8472 106.845 16.8011C106.845 17.7677 106.971 18.6071 107.236 19.3575ZM122.983 8.90291H125.639V24.6865H122.983V8.90291ZM132.248 8.90291V11.3957H132.311C133.419 9.48795 135.168 8.53407 137.56 8.53407C138.617 8.53407 139.499 8.67397 140.204 8.95378C140.921 9.2463 141.487 9.64058 141.928 10.1493C142.369 10.6581 142.671 11.2685 142.847 11.968C143.023 12.6676 143.111 13.4434 143.111 14.2955V24.6865H140.455V13.9903C140.455 13.0237 140.166 12.2479 139.587 11.6755C139.008 11.1032 138.202 10.8234 137.182 10.8234C136.364 10.8234 135.672 10.9379 135.068 11.1922C134.476 11.4339 133.985 11.7773 133.595 12.2224C133.192 12.6676 132.902 13.2017 132.701 13.7995C132.5 14.3973 132.412 15.0586 132.412 15.7709V24.6865H129.755V8.90291H132.248ZM154 8.90291V11.1922H150.79V20.9854C150.79 21.2907 150.815 21.5323 150.866 21.7231C150.916 21.9011 151.017 22.0538 151.168 22.1555C151.306 22.2573 151.508 22.3209 151.772 22.3463C152.036 22.3717 152.376 22.3972 152.779 22.3972H154V24.6865H151.973C151.294 24.6865 150.702 24.6356 150.211 24.5466C149.72 24.4576 149.33 24.2922 149.028 24.0378C148.726 23.7962 148.499 23.4528 148.361 23.0077C148.209 22.5625 148.134 21.9647 148.134 21.2271V11.1922H145.39V8.90291H148.134V4.15893H150.79V8.90291H154ZM0.678186 14.9442L3.13284 17.3479L10.8619 24.6483L14.1977 21.3924C14.4998 20.9727 14.4872 20.4004 14.1348 19.9934L11.0885 17.2971H11.101L7.81558 14.0793C7.6295 13.8673 7.52992 13.5919 7.53693 13.3087C7.54394 13.0254 7.65701 12.7554 7.85334 12.5531L16.6775 3.93L12.6745 0L0.690774 11.6882C-0.228149 12.5913 -0.228149 14.0539 0.678186 14.9442Z" fill="black"/>
<path fill-rule="evenodd" clip-rule="evenodd" d="M27.0267 17.0428L24.5846 14.6518L16.843 7.35137L13.5072 10.5946C13.2051 11.027 13.2302 11.5993 13.5701 12.0063L16.6164 14.7026L19.8893 17.9204C20.2795 18.3655 20.2669 19.0142 19.8641 19.4466L11.0273 28.0697L15.0429 31.9997L24.572 22.7025L27.0267 20.2987C27.9456 19.4084 27.9456 17.9458 27.0267 17.0428ZM55.9161 3.59943C55.9161 4.43885 55.2238 5.11293 54.3678 5.11293C53.5118 5.11293 52.8195 4.43885 52.8195 3.59943C52.8195 2.77273 53.5118 2.08594 54.3678 2.08594C55.2238 2.08594 55.9161 2.77273 55.9161 3.59943ZM125.855 3.59943C125.855 4.43885 125.163 5.11293 124.307 5.11293C123.451 5.11293 122.758 4.43885 122.758 3.59943C122.758 2.77273 123.451 2.08594 124.307 2.08594C125.163 2.08594 125.855 2.77273 125.855 3.59943Z" fill="black"/>
</svg>
