<svg width="154" height="32" viewBox="0 0 154 32" fill="none" xmlns="http://www.w3.org/2000/svg">
<path fill-rule="evenodd" clip-rule="evenodd" d="M39.3108 21.1508C39.5625 21.5578 39.8898 21.863 40.2926 22.1046C40.6954 22.3336 41.1486 22.5116 41.6647 22.6007C42.1682 22.7024 42.6969 22.7533 43.2382 22.7533C43.6536 22.7533 44.0942 22.7279 44.5474 22.6643C45.0131 22.6007 45.4285 22.4989 45.8187 22.3336C46.1964 22.1682 46.5111 21.9266 46.7628 21.6086C47.0146 21.3034 47.1405 20.8964 47.1405 20.4131C47.1405 19.739 46.8761 19.2303 46.36 18.8869C45.8439 18.5308 45.1893 18.251 44.4089 18.0475C43.6284 17.8313 42.785 17.6405 41.8661 17.4624C40.9472 17.2844 40.1038 17.0427 39.3233 16.7247C38.5429 16.4195 37.8883 15.9744 37.3722 15.402C36.8561 14.8297 36.5917 14.0412 36.5917 13.0237C36.5917 12.2224 36.768 11.5483 37.133 10.976C37.4981 10.4037 37.9764 9.94582 38.5429 9.5897C39.1093 9.23359 39.7639 8.9665 40.4814 8.78844C41.199 8.6231 41.9039 8.53407 42.6214 8.53407C43.5277 8.53407 44.3711 8.61038 45.139 8.76301C45.9195 8.91563 46.5992 9.18271 47.1908 9.55155C47.7825 9.9331 48.2482 10.4418 48.6133 11.0778C48.9657 11.7264 49.1672 12.5149 49.2301 13.4815H46.574C46.5363 12.9728 46.3978 12.5404 46.1712 12.2097C45.9446 11.879 45.6551 11.6119 45.3026 11.3957C44.9502 11.1922 44.5599 11.0523 44.132 10.9633C43.704 10.8615 43.276 10.8234 42.8354 10.8234C42.4326 10.8234 42.0423 10.8488 41.6269 10.9124C41.2241 10.976 40.8591 11.0778 40.5192 11.2304C40.1919 11.383 39.915 11.5865 39.7136 11.8409C39.4996 12.0952 39.3989 12.4259 39.3989 12.8329C39.3989 13.2781 39.5625 13.6596 39.8898 13.9521C40.2045 14.2447 40.6199 14.4863 41.1234 14.6771C41.6144 14.8806 42.1808 15.0459 42.7976 15.1731C43.427 15.3003 44.0564 15.4402 44.6732 15.5801C45.3404 15.7327 45.995 15.8981 46.6244 16.1015C47.2538 16.305 47.8202 16.5721 48.3112 16.9155C48.8021 17.2462 49.1923 17.6659 49.4944 18.1747C49.7966 18.6834 49.9476 19.3193 49.9476 20.0697C49.9476 21.0363 49.7462 21.8248 49.3434 22.448C48.9406 23.084 48.3993 23.5927 47.7447 23.987C47.0901 24.3685 46.36 24.6356 45.5292 24.7882C44.711 24.9409 43.8928 25.0172 43.0872 25.0172C42.1934 25.0172 41.3374 24.9281 40.5192 24.7501C39.7136 24.5593 38.9961 24.2668 38.3667 23.8471C37.7498 23.4274 37.2463 22.8805 36.8687 22.1937C36.5036 21.5069 36.2896 20.6802 36.2519 19.7009H38.8954C38.9205 20.2732 39.059 20.7565 39.3108 21.1508V21.1508ZM53.0443 8.90291H55.6877V24.6865H53.0443V8.90291ZM66.7148 8.90291V11.1922H63.4923V20.9854C63.4923 21.2907 63.5175 21.5323 63.5678 21.7231C63.6182 21.9012 63.7189 22.0538 63.8699 22.1555C64.021 22.2573 64.2224 22.3209 64.4742 22.3463C64.7385 22.3717 65.0784 22.3972 65.4938 22.3972H66.7148V24.6865H64.6756C63.9958 24.6865 63.4042 24.6356 62.9132 24.5466C62.4223 24.4576 62.0321 24.2922 61.73 24.0379C61.4279 23.7962 61.2013 23.4528 61.0628 23.0077C60.9118 22.5625 60.8362 21.9647 60.8362 21.2271V11.1922H58.092V8.90291H60.8362V4.15893H63.4923V8.90291H66.7148V8.90291ZM81.0651 23.669C79.8567 24.572 78.3335 25.0172 76.5083 25.0172C75.2243 25.0172 74.104 24.8137 73.1599 24.4067C72.2032 23.9997 71.4101 23.4274 70.7682 22.7024C70.1262 21.9647 69.6352 21.0872 69.3205 20.0697C68.9933 19.0522 68.817 17.9457 68.7667 16.7502C68.7667 15.5419 68.9555 14.4481 69.3331 13.4434C69.7108 12.4514 70.2269 11.5865 70.9066 10.8488C71.5864 10.1239 72.3794 9.55155 73.3109 9.14456C74.2424 8.73757 75.2495 8.53407 76.3572 8.53407C77.7923 8.53407 78.9755 8.81388 79.9322 9.39893C80.8763 9.98398 81.6316 10.7216 82.2107 11.6119C82.7771 12.5149 83.1673 13.4943 83.3939 14.5499C83.6079 15.6055 83.696 16.6103 83.6583 17.5642H71.5738C71.5612 18.2637 71.6367 18.9123 71.8255 19.5355C72.0144 20.1587 72.3165 20.7056 72.7319 21.1889C73.1473 21.6722 73.676 22.0538 74.3306 22.3336C74.9725 22.6134 75.7278 22.7533 76.5964 22.7533C77.7293 22.7533 78.6482 22.5116 79.3658 21.9902C80.0833 21.4942 80.5616 20.7183 80.7882 19.6754H83.4065C83.054 21.4433 82.2736 22.7787 81.0651 23.669V23.669ZM80.4231 13.5324C80.184 12.9855 79.8693 12.5149 79.4539 12.1207C79.0511 11.7264 78.5727 11.4084 78.0188 11.1668C77.4776 10.9379 76.8607 10.8234 76.1936 10.8234C75.5138 10.8234 74.8844 10.9379 74.3431 11.1668C73.7893 11.4084 73.3109 11.7264 72.9207 12.1334C72.5305 12.5404 72.2158 13.011 71.9892 13.5579C71.75 14.092 71.6241 14.6644 71.5738 15.2748H80.8511C80.8008 14.6644 80.6623 14.092 80.4231 13.5324V13.5324ZM89.1466 8.90291V11.0396H89.2096C89.6502 10.162 90.3299 9.52611 91.274 9.13184C92.2055 8.72485 93.2377 8.53407 94.3581 8.53407C95.6169 8.53407 96.6994 8.75029 97.6184 9.20815C98.5154 9.62588 99.3072 10.2433 99.9345 11.0142C100.551 11.7773 101.005 12.6676 101.319 13.6596C101.634 14.6644 101.785 15.72 101.785 16.8392C101.785 17.9584 101.634 19.0141 101.332 20.0061C101.03 21.0109 100.577 21.8757 99.9597 22.6261C99.3555 23.3638 98.575 23.9488 97.6561 24.3813C96.7246 24.801 95.6546 25.0172 94.421 25.0172C94.0308 25.0172 93.5902 24.979 93.0993 24.9027C92.6045 24.8162 92.1195 24.6799 91.6517 24.4957C91.1733 24.3177 90.7201 24.0633 90.2921 23.7453C89.8642 23.4401 89.4991 23.0458 89.2096 22.5752H89.1466V30.7023H86.4906V8.90291H89.1466V8.90291ZM98.6883 14.499C98.4869 13.7995 98.1848 13.1763 97.782 12.6167C97.3674 12.0655 96.8334 11.6174 96.2211 11.3067C95.5791 10.9887 94.8364 10.8234 93.9804 10.8234C93.0867 10.8234 92.3314 10.9887 91.702 11.3448C91.0852 11.6882 90.5691 12.1461 90.1789 12.693C89.7886 13.2653 89.4991 13.9013 89.3229 14.6008C89.1466 15.3257 89.0585 16.038 89.0585 16.7756C89.0585 17.5514 89.1466 18.3018 89.3355 19.0141C89.5243 19.739 89.8138 20.3749 90.2292 20.9218C90.632 21.4814 91.1607 21.9139 91.8027 22.2573C92.4447 22.5879 93.2251 22.7533 94.1441 22.7533C95.063 22.7533 95.8183 22.5879 96.4351 22.2446C97.0519 21.9012 97.5428 21.4433 97.9205 20.871C98.2981 20.2986 98.5625 19.65 98.7261 18.9123C98.9023 18.1747 98.9779 17.4243 98.9779 16.6484C98.9779 15.9235 98.8772 15.1985 98.6883 14.499V14.499ZM104.529 13.5579C104.869 12.5404 105.373 11.6755 106.027 10.9251C106.694 10.1875 107.525 9.60242 108.507 9.17C109.476 8.75029 110.597 8.53407 111.868 8.53407C113.165 8.53407 114.285 8.75029 115.254 9.17C116.223 9.60242 117.042 10.1875 117.709 10.9251C118.376 11.6755 118.867 12.5404 119.207 13.5579C119.534 14.5626 119.71 15.6437 119.71 16.8011C119.71 17.9712 119.534 19.0395 119.207 20.0443C118.867 21.0363 118.376 21.9139 117.709 22.6515C117.042 23.4019 116.223 23.9743 115.254 24.394C114.285 24.8137 113.165 25.0172 111.868 25.0172C110.597 25.0172 109.476 24.8137 108.507 24.394C107.525 23.9743 106.694 23.4019 106.027 22.6515C105.373 21.9139 104.869 21.0363 104.529 20.0443C104.202 19.0395 104.038 17.9712 104.038 16.8011C104.038 15.6437 104.202 14.5626 104.529 13.5579V13.5579ZM107.236 19.3575C107.5 20.0951 107.852 20.7183 108.318 21.2144C108.771 21.7104 109.3 22.0919 109.917 22.359C110.534 22.6261 111.188 22.7533 111.868 22.7533C112.535 22.7609 113.196 22.628 113.81 22.363C114.423 22.098 114.975 21.7068 115.43 21.2144C115.884 20.7183 116.249 20.0951 116.5 19.3575C116.765 18.6071 116.891 17.7677 116.891 16.8011C116.891 15.8472 116.765 14.995 116.5 14.2574C116.272 13.5639 115.908 12.9237 115.43 12.375C114.965 11.8663 114.436 11.4848 113.819 11.2177C113.202 10.9506 112.56 10.8234 111.868 10.8234C111.188 10.8234 110.534 10.9506 109.917 11.2177C109.3 11.4848 108.771 11.8663 108.318 12.375C107.852 12.8838 107.5 13.5197 107.236 14.2574C106.971 14.995 106.845 15.8472 106.845 16.8011C106.845 17.7677 106.971 18.6071 107.236 19.3575V19.3575ZM122.983 8.90291H125.639V24.6865H122.983V8.90291ZM132.248 8.90291V11.3957H132.311C133.419 9.48796 135.168 8.53407 137.56 8.53407C138.617 8.53407 139.499 8.67398 140.204 8.95378C140.921 9.24631 141.488 9.64058 141.928 10.1493C142.369 10.6581 142.671 11.2685 142.847 11.9681C143.023 12.6676 143.111 13.4434 143.111 14.2955V24.6865H140.455V13.9903C140.455 13.0237 140.166 12.2479 139.587 11.6755C139.008 11.1032 138.202 10.8234 137.182 10.8234C136.364 10.8234 135.672 10.9379 135.068 11.1922C134.476 11.4339 133.985 11.7773 133.595 12.2224C133.192 12.6676 132.903 13.2017 132.701 13.7995C132.5 14.3973 132.412 15.0586 132.412 15.7709V24.6865H129.756V8.90291H132.248ZM154 8.90291V11.1922H150.79V20.9854C150.79 21.2907 150.815 21.5323 150.866 21.7231C150.916 21.9012 151.017 22.0538 151.168 22.1555C151.306 22.2573 151.508 22.3209 151.772 22.3463C152.036 22.3717 152.376 22.3972 152.779 22.3972H154V24.6865H151.973C151.294 24.6865 150.702 24.6356 150.211 24.5466C149.72 24.4576 149.33 24.2922 149.028 24.0379C148.726 23.7962 148.499 23.4528 148.361 23.0077C148.21 22.5625 148.134 21.9647 148.134 21.2271V11.1922H145.39V8.90291H148.134V4.15893H150.79V8.90291H154V8.90291ZM0.678187 14.9442L3.13285 17.348L10.8619 24.6483L14.1977 21.3924C14.4998 20.9727 14.4872 20.4004 14.1348 19.9934L11.0885 17.2971H11.101L7.81558 14.0793C7.6295 13.8673 7.52992 13.5919 7.53693 13.3087C7.54394 13.0254 7.65702 12.7554 7.85334 12.5531L16.6775 3.93L12.6745 0L0.690775 11.6882C-0.228149 12.5913 -0.228149 14.0539 0.678187 14.9442" fill="#464646"/>
<path fill-rule="evenodd" clip-rule="evenodd" d="M27.025 17.0431L24.5829 14.6521L16.8413 7.35168L13.5055 10.5949C13.2034 11.0273 13.2285 11.5996 13.5684 12.0066L16.6147 14.7029L19.8876 17.9207C20.2778 18.3658 20.2652 19.0145 19.8624 19.4469L11.0256 28.07L15.0412 32L24.5703 22.7028L27.025 20.299C27.9439 19.4088 27.9439 17.9461 27.025 17.0431V17.0431ZM55.9144 3.59974C55.9144 4.43915 55.2221 5.11323 54.3661 5.11323C53.5101 5.11323 52.8178 4.43915 52.8178 3.59974C52.8178 2.77304 53.5101 2.08624 54.3661 2.08624C55.2221 2.08624 55.9144 2.77304 55.9144 3.59974ZM125.853 3.59974C125.853 4.43915 125.161 5.11323 124.305 5.11323C123.449 5.11323 122.757 4.43915 122.757 3.59974C122.757 2.77304 123.449 2.08624 124.305 2.08624C125.161 2.08624 125.853 2.77304 125.853 3.59974Z" fill="#464646"/>
</svg>
