<svg width="115" height="64" viewBox="0 0 115 64" fill="none" xmlns="http://www.w3.org/2000/svg">
<g clip-path="url(#clip0_723_9964)">
<g clip-path="url(#clip1_723_9964)">
<path d="M38.9372 25.3746C38.3653 24.8085 37.7743 24.3986 37.1452 24.1253C36.5161 23.852 35.7536 23.7153 34.9148 23.7153C33.9425 23.7153 33.0465 23.9106 32.2268 24.2814C31.407 24.6523 30.6826 25.1794 30.0916 25.8431C29.5006 26.5068 29.024 27.3072 28.6809 28.2247C28.3377 29.1421 28.1662 30.1377 28.1662 31.2114C28.1662 32.3241 28.3377 33.3196 28.6618 34.2371C29.005 35.1546 29.4625 35.9549 30.0726 36.6187C30.6826 37.2824 31.407 37.8094 32.2458 38.1803C33.0846 38.5512 33.9997 38.7464 35.0101 38.7464C35.9633 38.7464 36.7449 38.5903 37.3931 38.2779C38.0412 37.9656 38.6322 37.4776 39.1851 36.7748V38.2584H43.055V18.1324H38.9372V25.3746ZM38.1747 33.7881C37.5265 34.4714 36.6877 34.8032 35.6583 34.8032C35.1626 34.8032 34.7051 34.7056 34.2857 34.5299C33.8663 34.3542 33.504 34.1005 33.199 33.7881C32.894 33.4758 32.6652 33.0854 32.4937 32.6559C32.3221 32.2069 32.2268 31.7384 32.2268 31.2114C32.2268 30.7038 32.3221 30.2353 32.4937 29.7863C32.6652 29.3374 32.9131 28.9665 33.2181 28.6541C33.5231 28.3418 33.9044 28.1075 34.3238 27.9319C34.7432 27.7562 35.2198 27.6586 35.7345 27.6586C36.2302 27.6586 36.6877 27.7562 37.1071 27.9319C37.5265 28.1075 37.8887 28.3613 38.1937 28.6737C38.4988 28.986 38.7466 29.3764 38.9182 29.7863C39.0897 30.2158 39.1851 30.6648 39.1851 31.1723C39.1469 32.2265 38.8228 33.1049 38.1747 33.7881ZM57.6579 28.3808C57.2957 27.4438 56.8 26.6435 56.1519 25.9602C55.5037 25.277 54.7411 24.7499 53.8642 24.34C52.9873 23.9496 52.0341 23.7544 51.0237 23.7544C50.0514 23.7544 49.1173 23.9496 48.2594 24.34C47.4016 24.7304 46.6581 25.2575 46.0099 25.9407C45.3808 26.6044 44.8661 27.4048 44.5039 28.3223C44.1417 29.2398 43.951 30.2158 43.951 31.2699C43.951 32.3045 44.1417 33.2806 44.5039 34.1981C44.8661 35.1155 45.3808 35.8964 46.029 36.5601C46.6772 37.2238 47.535 37.8094 48.2976 38.1413C49.2508 38.5903 50.1086 38.7074 51.1 38.7074C52.5488 38.7074 53.8642 38.2779 55.0271 37.419C56.1328 36.5991 57.0097 35.4864 57.6388 34.0614H53.3876C52.9491 34.4909 52.5488 34.7837 52.1866 34.9203C51.8244 35.0765 51.3859 35.1546 50.8712 35.1546C50.0514 35.1546 49.3651 34.9203 48.8314 34.4323C48.2785 33.9638 47.9735 33.3196 47.8782 32.5388H58.0773C58.3061 31.1333 58.1917 29.7278 57.6579 28.3808ZM47.9925 29.7668C48.1451 28.986 48.5073 28.3808 49.0411 27.9514C49.5748 27.5414 50.2421 27.3267 51.0428 27.3267C51.8434 27.3267 52.5107 27.561 53.0635 27.9904C53.6164 28.4394 53.9595 29.025 54.112 29.7473H47.9925V29.7668ZM24.7156 18.6985C21.246 16.6293 16.8041 17.8591 14.8024 21.4314C14.688 21.6266 14.5927 21.8413 14.4974 22.0561C13.8683 20.6506 12.8389 19.4793 11.5234 18.6985C8.05383 16.6293 3.61196 17.8591 1.61026 21.4314C-0.391443 25.0232 0.790513 29.5911 4.26013 31.6603C5.25145 32.246 6.29996 32.5583 7.36754 32.6364L4.20294 38.2584H8.93077L14.1543 28.9079C14.2686 28.7127 14.364 28.498 14.4593 28.2832C15.0884 29.6887 16.1178 30.86 17.4332 31.6408C18.4246 32.2265 19.4731 32.5388 20.5406 32.6169L17.3951 38.2584H22.1229L27.3655 28.9079C29.3481 25.3356 28.1662 20.7677 24.6966 18.6985H24.7156ZM10.7418 26.8777C9.82677 28.5175 7.806 29.0641 6.20464 28.1271C4.62234 27.1901 4.06949 25.1013 4.98456 23.4616C5.89962 21.8218 7.92038 21.2752 9.52175 22.2122C11.1231 23.1688 11.6569 25.2575 10.7418 26.8777ZM23.934 26.8777C23.0189 28.5175 20.9982 29.0641 19.3968 28.1271C17.8145 27.1901 17.2617 25.1013 18.1767 23.4616C19.0918 21.8218 21.1126 21.2752 22.7139 22.2122C24.3153 23.1688 24.8491 25.2575 23.934 26.8777ZM86.3108 35.5255C84.9382 35.2912 83.3559 35.7597 81.6974 35.4864C80.0388 35.2132 80.077 34.5494 80.4773 34.2176C84.2329 35.6817 88.8273 33.8272 88.8654 29.3569C88.8654 27.7171 88.2935 26.6825 87.855 26.1945C88.1982 25.5113 88.5985 25.1794 89.4373 24.9647L87.7216 21.9194C86.1774 22.0561 85.1479 23.0321 84.6904 24.0472C83.7754 23.6568 81.9071 23.6177 80.4011 24.1643C79.6766 24.4181 79.0094 24.8085 78.4375 25.3161C77.8846 25.8041 77.4462 26.4092 77.1602 27.0925C76.8361 27.8147 76.7027 28.576 76.7027 29.3569C76.7027 30.4305 77.0458 31.6994 77.6368 32.5583C75.9973 34.2176 76.0926 36.6967 77.7893 38.2584C77.6177 38.3951 77.4462 38.5512 77.2937 38.7269C75.7685 40.4448 76.493 42.8263 78.2468 44.0756C80.4773 45.7154 84.4426 45.813 86.8637 44.7003C91.1149 42.9044 91.2674 36.3844 86.3108 35.5255ZM82.8031 26.9363C84.0423 26.9363 85.0526 27.9709 85.0526 29.2398C85.0526 30.5086 84.0423 31.5432 82.8031 31.5432C81.5639 31.5432 80.5536 30.5086 80.5536 29.2398C80.5536 27.9709 81.5639 26.9363 82.8031 26.9363ZM85.6436 41.128C85.1861 41.7722 84.2901 42.0064 83.5466 42.0455C82.6697 42.0845 81.4877 41.8893 80.8967 41.1475C80.3248 40.4448 80.4582 39.4687 81.2399 38.9807C81.4496 38.844 81.6974 38.7464 81.9452 38.7269H83.966C84.8429 38.7269 85.9677 38.9807 85.9677 40.1129C85.9868 40.4643 85.8533 40.8547 85.6436 41.128Z" fill="#67697D"/>
<path d="M90.4451 38.2577V38.2382H90.426L90.4451 38.2577ZM102.741 26.877C102.646 26.5646 102.512 26.2523 102.341 25.979C102.169 25.7057 101.941 25.4324 101.674 25.1787C101.235 24.7297 100.701 24.3783 100.072 24.1245C99.4432 23.8708 98.7569 23.7536 98.0325 23.7536C97.1556 23.7536 96.4502 23.9098 95.8783 24.2221C95.3064 24.5345 94.7916 25.042 94.3151 25.7253V24.2417H90.4451V38.2577H94.5247V30.4298C94.5247 28.5948 95.2873 27.6773 96.8315 27.6773C97.575 27.6773 98.1088 27.9116 98.4519 28.3801C98.7951 28.8486 98.9476 29.5904 98.9476 30.586V38.2382H103.027V29.4733C103.027 28.9072 103.008 28.4191 102.97 28.0092C102.913 27.5797 102.856 27.2088 102.741 26.877ZM110.691 29.7075C108.804 29.2 108.136 28.8291 108.136 28.0678C108.136 27.5407 108.632 27.1308 109.318 27.1308C109.986 27.1308 110.538 27.3845 110.576 28.1849H114.58C114.389 25.452 112.292 23.7927 109.356 23.7927C106.611 23.7927 104.076 25.5691 104.076 28.3411C104.076 29.9808 104.991 31.3668 108.422 32.4404C110.462 33.1042 110.92 33.4946 110.92 34.2754C110.92 34.9196 110.214 35.3491 109.49 35.3491C108.67 35.3491 108.06 34.9391 107.946 34.0607H103.885C104.171 36.9107 106.363 38.6871 109.433 38.6871C112.521 38.6871 114.98 36.8522 114.98 33.924C114.999 31.9134 113.951 30.586 110.691 29.7075ZM72.9636 17.7217C71.61 17.7217 70.5234 18.8539 70.5234 20.2399C70.5234 21.6259 71.61 22.7581 72.9636 22.7581C74.3171 22.7581 75.4037 21.6259 75.4037 20.2399C75.4037 18.8539 74.3171 17.7217 72.9636 17.7217ZM65.5477 29.7075C63.6604 29.2 62.9932 28.8291 62.9932 28.0678C62.9932 27.5407 63.4888 27.1308 64.1751 27.1308C64.8424 27.1308 65.3952 27.3845 65.4333 28.1849H69.4368C69.2461 25.452 67.1491 23.7927 64.2133 23.7927C61.4681 23.7927 58.9326 25.5886 58.9326 28.3411C58.9326 29.9808 59.8476 31.3668 63.2791 32.4404C65.319 33.0846 65.7765 33.4946 65.7765 34.2754C65.7765 34.9196 65.0711 35.3491 64.3467 35.3491C63.546 35.3491 62.9169 34.9391 62.8025 34.0607H58.7419C59.0279 36.9107 61.2202 38.6871 64.2895 38.6871C67.3779 38.6871 69.8371 36.8522 69.8371 33.924C69.8371 31.9134 68.7886 30.586 65.5477 29.7075ZM70.9237 24.2417H75.0034V38.2577H70.9237V24.2417Z" fill="#67697D"/>
</g>
</g>
<defs>
<clipPath id="clip0_723_9964">
<rect width="114.383" height="64" fill="white" transform="translate(0.616943)"/>
</clipPath>
<clipPath id="clip1_723_9964">
<rect width="114.383" height="27.9149" fill="white" transform="translate(0.616943 17.7021)"/>
</clipPath>
</defs>
</svg>
