<svg width="164" height="48" viewBox="0 0 164 48" fill="none" xmlns="http://www.w3.org/2000/svg">
<path d="M12.9766 10C2.59463 10 0 12.6069 0 23.0347C0 33.4624 2.59463 36.0693 12.9766 36.0693C23.3569 36.0693 25.9533 33.4624 25.9533 23.0347C25.9533 12.6069 23.3569 10 12.9766 10ZM10.8471 30.1629C8.83786 30.1629 7.02612 28.9463 6.25708 27.0824C5.88105 26.1703 5.78278 25.167 5.97468 24.1989C6.16658 23.2309 6.64005 22.3416 7.33529 21.6434C8.02978 20.9457 8.91505 20.4705 9.87894 20.2781C10.8428 20.0856 11.8419 20.1846 12.7497 20.5624C13.8131 21.0038 14.691 21.8015 15.2338 22.8197C15.7766 23.8379 15.9507 25.0134 15.7263 26.146C15.502 27.2785 14.8931 28.2979 14.0035 29.0304C13.1139 29.7629 11.9987 30.1631 10.8479 30.1629H10.8471ZM19.8711 29.9596H17.4376V18.5542H6.08301V16.1089H19.8702V29.9604L19.8711 29.9596Z" fill="#7A7A7A"/>
<path d="M10.8469 22.6272C10.5138 22.6273 10.184 22.6933 9.87637 22.8213C9.5687 22.9493 9.28919 23.1369 9.0538 23.3734C8.8184 23.6098 8.63173 23.8905 8.50445 24.1993C8.37718 24.5081 8.31178 24.8391 8.31201 25.1733C8.31201 26.5793 9.44651 27.7194 10.8469 27.7194C11.18 27.7193 11.5097 27.6534 11.8174 27.5253C12.1251 27.3973 12.4046 27.2097 12.64 26.9733C12.8754 26.7368 13.062 26.4562 13.1893 26.1473C13.3166 25.8385 13.382 25.5075 13.3818 25.1733C13.3815 24.4986 13.1145 23.8515 12.6392 23.3741C12.164 22.8968 11.5193 22.6281 10.8469 22.6272ZM36.2104 24.7797C37.4168 21.3993 37.9026 20.0307 38.3495 18.6421C38.9921 20.6555 39.6537 22.5334 40.4323 24.7797H36.2104ZM37.047 16.1603L31.8326 29.9596H34.4982L35.6076 26.734H41.0376L42.1288 29.9596H44.8135L39.7906 16.1603H37.047ZM50.2669 28.2399C48.8276 28.2399 47.9901 27.0477 47.9901 24.9752C47.9901 23.1199 48.9636 21.9468 50.3458 21.9468C51.6491 21.9468 52.4467 23.1382 52.4467 25.0925C52.4467 27.1659 51.6102 28.2399 50.2669 28.2399ZM48.0534 21.5358V16.1603H45.7722V29.9596H47.9538V28.6892C48.6154 29.6477 49.51 30.156 50.8333 30.156C53.2236 30.156 54.8231 28.279 54.8231 25.096C54.8231 21.9312 53.363 20.0368 51.0871 20.0368C50.4993 20.03 49.9183 20.1628 49.3915 20.4243C48.8647 20.6859 48.4071 21.0689 48.056 21.5419L48.0534 21.5358ZM59.6062 21.6965C60.545 21.6965 61.2811 22.2049 61.7678 23.0678L63.4635 21.9129C62.6096 20.5408 61.1841 19.956 59.6452 19.956C57.248 19.956 55.8849 21.3655 55.8849 22.8914C55.8849 24.3782 56.8401 25.2593 58.3401 25.7295L59.3724 26.0623C60.8343 26.5315 61.1651 26.8053 61.1651 27.4509C61.1651 28.0383 60.6195 28.4693 59.6288 28.4693C58.5566 28.4693 57.6603 27.8819 57.1519 26.8835L55.3809 28.0557C56.1993 29.2888 57.5433 30.2473 59.5309 30.2473C61.9471 30.2473 63.4462 28.936 63.4462 27.1363C63.4462 25.5704 62.4719 24.7684 60.7581 24.2209L59.7257 23.9081C58.4787 23.5162 58.1669 23.2416 58.1669 22.655C58.1669 22.0876 58.6345 21.6965 59.6088 21.6965H59.6062ZM68.076 22.0676H69.9545V20.234H68.076V17.0527H65.8096L65.7689 20.234H64.249V22.0676H65.7689V27.3996C65.7689 28.3008 65.9075 28.9873 66.3163 29.4574C66.706 29.9284 67.3503 30.1639 68.3055 30.1639C68.878 30.163 69.4487 30.09 70.003 29.9466V28.1244C69.7016 28.2373 69.3837 28.2964 69.0633 28.3008C68.3601 28.3008 68.0726 27.9488 68.0726 26.9495L68.076 22.0676ZM73.4238 20.234H71.244V30.01H73.5251V25.4531C73.5251 24.4104 73.6966 23.7221 74.0326 23.2129C74.4596 22.6029 75.0571 22.2344 76.1111 22.2457C76.3943 22.2492 76.6757 22.2918 76.9477 22.3726V20.234C76.6769 20.1478 76.3943 20.105 76.1102 20.1072C74.7679 20.1072 74.0083 20.6764 73.4238 21.7365V20.234ZM83.5183 25.865C83.4992 26.4133 83.4013 26.9617 83.0913 27.4118C82.6643 28.0583 81.9412 28.4302 81.0639 28.4302C80.0507 28.4302 79.583 27.901 79.583 27.1963C79.583 26.6488 79.8168 26.2752 80.4213 26.0015C81.1038 25.6695 82.4097 25.474 83.5217 25.414L83.5183 25.865ZM85.692 23.8064C85.692 22.2796 85.4867 21.4767 84.8831 20.9084C84.2397 20.2827 83.3043 19.9647 81.9802 19.9647C79.5042 19.9647 77.941 21.1404 77.7851 23.2555L79.9684 23.464C80.0853 22.3865 80.6127 21.78 81.8009 21.78C82.4054 21.78 82.8731 21.9164 83.1459 22.191C83.4022 22.4482 83.5165 22.8166 83.5165 23.3658V23.8924C81.9802 23.9898 80.1018 24.2644 79.15 24.6954C77.9999 25.2228 77.3764 26.0458 77.3764 27.2997C77.3764 29.042 78.6234 30.1586 80.3971 30.1586C81.781 30.1586 82.8332 29.6694 83.5737 28.7691C83.785 29.7433 84.4674 30.1039 85.6877 30.1039C86.041 30.1111 86.393 30.0579 86.7286 29.9466V28.4572C85.8487 28.6153 85.6955 28.0983 85.6894 27.3353L85.6911 23.8055L85.692 23.8064ZM89.5493 25.0378C89.5493 22.8679 90.5626 21.8712 91.8867 21.8712C92.803 21.8712 93.5036 22.2996 93.7764 23.5918L95.8246 22.8879C95.3768 21.1473 94.0527 19.9542 91.9482 19.9542C89.0453 19.9542 87.2153 21.8903 87.2153 25.0769C87.2153 28.2834 89.008 30.2395 91.8313 30.2395C94.0328 30.2395 95.3188 29.0663 95.8835 27.4431L93.8388 26.7392C93.6049 27.775 92.9849 28.3234 91.9482 28.3234C90.4491 28.3234 89.5528 27.1885 89.5528 25.0386L89.5493 25.0378ZM100.214 22.0667H102.093V20.234H100.214V17.0527H97.9472L97.9074 20.234H96.3866V22.0676H97.9074V27.3996C97.9074 28.3008 98.0451 28.9873 98.4547 29.4574C98.8444 29.9284 99.4888 30.1639 100.444 30.1639C101.016 30.163 101.585 30.09 102.14 29.9466V28.1244C101.839 28.2373 101.521 28.2964 101.201 28.3008C100.499 28.3008 100.211 27.9488 100.211 26.9495L100.214 22.0676V22.0667Z" fill="#7A7A7A"/>
</svg>
