<svg width="44" height="44" viewBox="0 0 44 44" fill="none" xmlns="http://www.w3.org/2000/svg">
<rect x="1" y="1" width="42" height="42" rx="21" fill="#59A53E"/>
<path d="M18 22C17.7167 22 17.4792 22.0958 17.2875 22.2875C17.0958 22.4792 17 22.7167 17 23V26C17 26.2833 17.0958 26.5208 17.2875 26.7125C17.4792 26.9042 17.7167 27 18 27C18.2833 27 18.5208 26.9042 18.7125 26.7125C18.9042 26.5208 19 26.2833 19 26V23C19 22.7167 18.9042 22.4792 18.7125 22.2875C18.5208 22.0958 18.2833 22 18 22ZM26 17C25.7167 17 25.4792 17.0958 25.2875 17.2875C25.0958 17.4792 25 17.7167 25 18V26C25 26.2833 25.0958 26.5208 25.2875 26.7125C25.4792 26.9042 25.7167 27 26 27C26.2833 27 26.5208 26.9042 26.7125 26.7125C26.9042 26.5208 27 26.2833 27 26V18C27 17.7167 26.9042 17.4792 26.7125 17.2875C26.5208 17.0958 26.2833 17 26 17ZM22 24C21.7167 24 21.4792 24.0958 21.2875 24.2875C21.0958 24.4792 21 24.7167 21 25V26C21 26.2833 21.0958 26.5208 21.2875 26.7125C21.4792 26.9042 21.7167 27 22 27C22.2833 27 22.5208 26.9042 22.7125 26.7125C22.9042 26.5208 23 26.2833 23 26V25C23 24.7167 22.9042 24.4792 22.7125 24.2875C22.5208 24.0958 22.2833 24 22 24ZM15 31C14.45 31 13.9792 30.8042 13.5875 30.4125C13.1958 30.0208 13 29.55 13 29V15C13 14.45 13.1958 13.9792 13.5875 13.5875C13.9792 13.1958 14.45 13 15 13H29C29.55 13 30.0208 13.1958 30.4125 13.5875C30.8042 13.9792 31 14.45 31 15V29C31 29.55 30.8042 30.0208 30.4125 30.4125C30.0208 30.8042 29.55 31 29 31H15ZM22 22C22.2833 22 22.5208 21.9042 22.7125 21.7125C22.9042 21.5208 23 21.2833 23 21C23 20.7167 22.9042 20.4792 22.7125 20.2875C22.5208 20.0958 22.2833 20 22 20C21.7167 20 21.4792 20.0958 21.2875 20.2875C21.0958 20.4792 21 20.7167 21 21C21 21.2833 21.0958 21.5208 21.2875 21.7125C21.4792 21.9042 21.7167 22 22 22Z" fill="white"/>
<rect x="1" y="1" width="42" height="42" rx="21" stroke="white" stroke-width="2"/>
</svg>
