<svg width="164" height="48" viewBox="0 0 164 48" fill="none" xmlns="http://www.w3.org/2000/svg">
<g clip-path="url(#clip0_1_2241)">
<path d="M4.91013 22.754C4.86095 22.6886 4.79599 22.6373 4.72154 22.6049C4.64709 22.5725 4.56567 22.5602 4.48514 22.569C4.40461 22.5779 4.3277 22.6077 4.26184 22.6556C4.19599 22.7035 4.14341 22.7678 4.1092 22.8423L0.0507138 31.0775C0.0137416 31.1525 -0.00371473 31.2359 2.2279e-06 31.3197C0.00371919 31.4036 0.0284861 31.485 0.0719513 31.5564C0.115417 31.6278 0.176138 31.6867 0.248349 31.7276C0.320561 31.7684 0.401866 31.7899 0.484545 31.7899H6.13577C6.22628 31.792 6.31546 31.7675 6.39247 31.7191C6.46948 31.6708 6.53102 31.6009 6.5696 31.5178C7.78864 28.9613 7.04986 25.0741 4.91013 22.754Z" fill="url(#paint0_linear_1_2241)"/>
<path d="M7.887 15.2636C6.87574 16.8428 6.28642 18.6617 6.17687 20.5417C6.06732 22.4218 6.44131 24.2985 7.26213 25.9876L9.98664 31.5177C10.0269 31.5995 10.0888 31.6683 10.1655 31.7163C10.2421 31.7644 10.3304 31.7899 10.4205 31.7899H16.0707C16.1534 31.7899 16.2347 31.7684 16.3069 31.7276C16.3791 31.6867 16.4398 31.6278 16.4833 31.5564C16.5267 31.485 16.5515 31.4035 16.5552 31.3197C16.5589 31.2359 16.5415 31.1525 16.5045 31.0774C16.5045 31.0774 8.90308 15.6465 8.71204 15.2605C8.67427 15.182 8.61544 15.1158 8.54231 15.0696C8.46918 15.0235 8.3847 14.9991 8.29856 14.9995C8.21243 14.9998 8.12813 15.0247 8.05534 15.0715C7.98254 15.1182 7.9242 15.1848 7.887 15.2636Z" fill="#7A7A7A"/>
<path d="M74.1608 21.8667C74.1608 23.9059 75.0929 25.525 78.7389 26.2397C80.9141 26.7032 81.3697 27.0595 81.3697 27.7954C81.3697 28.5102 80.9131 28.9728 79.381 28.9728C77.5292 28.9391 75.7145 28.4407 74.0986 27.5222V30.8437C75.1967 31.3903 76.6466 32 79.3396 32C83.1512 32 84.6636 30.2749 84.6636 27.7112L74.1608 21.8667ZM84.6636 27.7112C84.6636 25.2935 83.3999 24.158 79.8369 23.3804C77.8689 22.9388 77.3925 22.4975 77.3925 21.8667C77.3925 21.0685 78.0967 20.7315 79.4018 20.7315C80.9763 20.7315 82.5299 21.215 84.0006 21.8878V18.7131C82.5904 18.0617 81.0545 17.7385 79.5053 17.7671C75.9836 17.7671 74.1608 19.3228 74.1608 21.8667" fill="#7A7A7A"/>
<path d="M123.13 17.9772V31.7899H126.03V21.257L127.252 24.0529L131.354 31.7899H135V17.9772H132.1V26.8914L131.002 24.3053L127.708 17.9772H123.13Z" fill="#7A7A7A"/>
<path d="M104.684 17.9772H101.515V31.7899H104.684V17.9772Z" fill="#7A7A7A"/>
<path d="M97.8579 27.7112C97.8579 25.2935 96.5942 24.158 93.0312 23.3804C91.0632 22.9388 90.5868 22.4975 90.5868 21.8667C90.5868 21.0685 91.2911 20.7315 92.5961 20.7315C94.1706 20.7315 95.7243 21.215 97.195 21.8878V18.7131C95.7847 18.0617 94.2488 17.7385 92.6996 17.7671C89.178 17.7671 87.3551 19.3228 87.3551 21.8667C87.3551 23.9059 88.2872 25.525 91.9332 26.2397C94.1084 26.7032 94.5641 27.0595 94.5641 27.7954C94.5641 28.5102 94.1074 28.9728 92.5753 28.9728C90.7236 28.9391 88.9088 28.4407 87.293 27.5222V30.8437C88.391 31.3903 89.8409 32 92.534 32C96.3456 32 97.8579 30.2749 97.8579 27.7112Z" fill="#7A7A7A"/>
<path d="M49.5391 17.9772V31.7899H56.0536L57.0794 28.8044H52.7291V17.9772H49.5391Z" fill="#7A7A7A"/>
<path d="M36.6685 17.9772V20.9624H40.1901V31.7899H43.3802V20.9624H47.1504V17.9772H36.6685Z" fill="#7A7A7A"/>
<path d="M32.0425 17.9772H27.8617L23.1157 31.7899H26.7401L27.4129 29.4636C29.07 29.9574 30.832 29.9574 32.489 29.4636L33.1618 31.7899H36.787L32.0425 17.9772ZM29.952 26.9727C29.3616 26.9727 28.7743 26.887 28.2078 26.7181L29.952 20.6903L31.6962 26.7202C31.1296 26.8883 30.5423 26.9734 29.952 26.9727Z" fill="#7A7A7A"/>
<path d="M67.2849 17.9772H63.1044L58.3584 31.7899H61.9836L62.6564 29.4636C64.3134 29.9574 66.0754 29.9574 67.7325 29.4636L68.4053 31.7899H72.0304L67.2849 17.9772ZM65.1947 26.9727C64.6043 26.9727 64.0169 26.887 63.4505 26.7181L65.1947 20.6903L66.9389 26.7202C66.3723 26.8883 65.785 26.9734 65.1947 26.9727Z" fill="#7A7A7A"/>
<path d="M116.106 17.9772H111.925L107.179 31.7899H110.804L111.477 29.4636C113.134 29.9574 114.896 29.9574 116.553 29.4636L117.226 31.7899H120.851L116.106 17.9772ZM114.014 26.9727C113.424 26.9727 112.836 26.887 112.27 26.7181L114.014 20.6903L115.758 26.7202C115.192 26.8883 114.604 26.9734 114.014 26.9727Z" fill="#7A7A7A"/>
</g>
<defs>
<linearGradient id="paint0_linear_1_2241" x1="7.13435" y1="24.0249" x2="2.75573" y2="31.4978" gradientUnits="userSpaceOnUse">
<stop stop-color="#7A7A7A" stop-opacity="0.4"/>
<stop offset="0.923" stop-color="#7A7A7A"/>
</linearGradient>
<clipPath id="clip0_1_2241">
<rect width="135" height="17" fill="white" transform="translate(0 15)"/>
</clipPath>
</defs>
</svg>
