<svg width="44" height="44" viewBox="0 0 44 44" fill="none" xmlns="http://www.w3.org/2000/svg">
<rect x="1" y="1" width="42" height="42" rx="21" fill="#735AED"/>
<path d="M18 26V27.25C18 27.4667 18.0708 27.6458 18.2125 27.7875C18.3542 27.9292 18.5333 28 18.75 28C18.9667 28 19.1458 27.9292 19.2875 27.7875C19.4292 27.6458 19.5 27.4667 19.5 27.25V26H20.75C20.9667 26 21.1458 25.9292 21.2875 25.7875C21.4292 25.6458 21.5 25.4667 21.5 25.25C21.5 25.0333 21.4292 24.8542 21.2875 24.7125C21.1458 24.5708 20.9667 24.5 20.75 24.5H19.5V23.25C19.5 23.0333 19.4292 22.8542 19.2875 22.7125C19.1458 22.5708 18.9667 22.5 18.75 22.5C18.5333 22.5 18.3542 22.5708 18.2125 22.7125C18.0708 22.8542 18 23.0333 18 23.25V24.5H16.75C16.5333 24.5 16.3542 24.5708 16.2125 24.7125C16.0708 24.8542 16 25.0333 16 25.25C16 25.4667 16.0708 25.6458 16.2125 25.7875C16.3542 25.9292 16.5333 26 16.75 26H18ZM23.75 27.25H27.25C27.4667 27.25 27.6458 27.1792 27.7875 27.0375C27.9292 26.8958 28 26.7167 28 26.5C28 26.2833 27.9292 26.1042 27.7875 25.9625C27.6458 25.8208 27.4667 25.75 27.25 25.75H23.75C23.5333 25.75 23.3542 25.8208 23.2125 25.9625C23.0708 26.1042 23 26.2833 23 26.5C23 26.7167 23.0708 26.8958 23.2125 27.0375C23.3542 27.1792 23.5333 27.25 23.75 27.25ZM23.75 24.75H27.25C27.4667 24.75 27.6458 24.6792 27.7875 24.5375C27.9292 24.3958 28 24.2167 28 24C28 23.7833 27.9292 23.6042 27.7875 23.4625C27.6458 23.3208 27.4667 23.25 27.25 23.25H23.75C23.5333 23.25 23.3542 23.3208 23.2125 23.4625C23.0708 23.6042 23 23.7833 23 24C23 24.2167 23.0708 24.3958 23.2125 24.5375C23.3542 24.6792 23.5333 24.75 23.75 24.75ZM25.5 19.55L26.375 20.425C26.525 20.575 26.7 20.65 26.9 20.65C27.1 20.65 27.275 20.575 27.425 20.425C27.5583 20.2917 27.6292 20.1208 27.6375 19.9125C27.6458 19.7042 27.5833 19.525 27.45 19.375L26.55 18.45L27.425 17.575C27.575 17.425 27.65 17.25 27.65 17.05C27.65 16.85 27.575 16.675 27.425 16.525C27.275 16.375 27.1 16.3 26.9 16.3C26.7 16.3 26.525 16.375 26.375 16.525L25.5 17.4L24.625 16.525C24.475 16.375 24.3 16.3 24.1 16.3C23.9 16.3 23.725 16.375 23.575 16.525C23.425 16.675 23.35 16.85 23.35 17.05C23.35 17.25 23.425 17.425 23.575 17.575L24.45 18.45L23.55 19.375C23.4167 19.525 23.35 19.7 23.35 19.9C23.35 20.1 23.425 20.275 23.575 20.425C23.725 20.575 23.9 20.65 24.1 20.65C24.3 20.65 24.475 20.575 24.625 20.425L25.5 19.55ZM17 19.2H20.5C20.7167 19.2 20.8958 19.1292 21.0375 18.9875C21.1792 18.8458 21.25 18.6667 21.25 18.45C21.25 18.2333 21.1792 18.0542 21.0375 17.9125C20.8958 17.7708 20.7167 17.7 20.5 17.7H17C16.7833 17.7 16.6042 17.7708 16.4625 17.9125C16.3208 18.0542 16.25 18.2333 16.25 18.45C16.25 18.6667 16.3208 18.8458 16.4625 18.9875C16.6042 19.1292 16.7833 19.2 17 19.2ZM15 31C14.45 31 13.9792 30.8042 13.5875 30.4125C13.1958 30.0208 13 29.55 13 29V15C13 14.45 13.1958 13.9792 13.5875 13.5875C13.9792 13.1958 14.45 13 15 13H29C29.55 13 30.0208 13.1958 30.4125 13.5875C30.8042 13.9792 31 14.45 31 15V29C31 29.55 30.8042 30.0208 30.4125 30.4125C30.0208 30.8042 29.55 31 29 31H15Z" fill="white"/>
<rect x="1" y="1" width="42" height="42" rx="21" stroke="white" stroke-width="2"/>
</svg>
