<svg width="164" height="48" viewBox="0 0 164 48" fill="none" xmlns="http://www.w3.org/2000/svg">
<g clip-path="url(#clip0_1_2272)">
<path fill-rule="evenodd" clip-rule="evenodd" d="M137.239 15.821L136.335 18.1991H136.32L135.401 15.821H134.665V19.0403H135.064V16.1574H135.079L136.19 19.0403H136.45L137.561 16.1574H137.576V19.0403H137.975V15.821H137.239ZM131.616 15.821V16.1269H132.643V19.0403H133.041V16.1269H134.067V15.821H131.616V15.821Z" fill="#7A7A7A"/>
<path fill-rule="evenodd" clip-rule="evenodd" d="M87.1278 12.6349V17.2327C87.1278 17.7573 87.1925 18.4723 87.3221 19.3774H87.1851C86.3164 18.1529 85.0513 17.5407 83.3902 17.5407C81.8054 17.5407 80.5653 18.1168 79.6698 19.2689C78.7745 20.4214 78.327 22.0317 78.327 24.1005C78.327 26.162 78.7688 27.7627 79.6528 28.9038C80.5365 30.0446 81.7673 30.615 83.3446 30.615C85.0058 30.615 86.2668 29.9877 87.1278 28.7326H87.2536L87.7224 30.3868H89.8253V12.6349H87.1278ZM81.8358 27.3464C81.3405 26.6125 81.093 25.5458 81.093 24.1462C81.093 22.7316 81.3481 21.6421 81.8586 20.8776C82.3691 20.1134 83.0969 19.7311 84.0418 19.7311C85.1465 19.7311 85.958 20.0659 86.4764 20.7351C86.9946 21.4042 87.2536 22.5338 87.2536 24.1235V24.4999C87.238 25.8918 86.9793 26.8978 86.4764 27.5176C85.9736 28.1374 85.1694 28.4473 84.0646 28.4473C83.0742 28.4473 82.3313 28.0805 81.8358 27.3464V27.3464ZM47.3554 30.3868H50.0414V12.6349H47.3554V30.3868H47.3554ZM37.0166 14.506C35.8127 15.1981 34.8927 16.1945 34.2564 17.4948C33.6201 18.7956 33.3018 20.3129 33.3018 22.047C33.3018 24.8002 33.9572 26.9167 35.2678 28.3959C36.5785 29.8754 38.4569 30.615 40.9028 30.615C42.5638 30.615 44.0499 30.3679 45.3604 29.8734V27.5348C44.6441 27.7551 43.9544 27.9358 43.2915 28.0765C42.6287 28.2175 41.943 28.2878 41.2344 28.2878C39.5958 28.2878 38.3443 27.7627 37.4795 26.7132C36.6149 25.6635 36.1822 24.1159 36.1822 22.0699C36.1822 20.1151 36.6319 18.5826 37.531 17.4721C38.4301 16.3616 39.6645 15.8066 41.2344 15.8066C41.9277 15.8066 42.5887 15.9073 43.2173 16.1088C43.8459 16.3104 44.4421 16.5443 45.0061 16.8104L45.989 14.5402C44.5413 13.8252 42.9638 13.4677 41.2571 13.4677C39.6341 13.4677 38.2205 13.8138 37.0166 14.506L37.0166 14.506ZM96.6782 13.639L90.426 30.3868H93.3065L94.9408 25.755H101.33L102.999 30.3868H105.902L99.6499 13.6389H96.6782L96.6782 13.639ZM97.2498 19.058C97.646 17.9475 97.9469 16.9245 98.1527 15.989C98.2291 16.2932 98.3679 16.7724 98.5698 17.4264C98.7717 18.0806 98.9301 18.5598 99.0441 18.864L100.61 23.4047H95.741L97.2498 19.058ZM122.454 19.4573H122.317C122.126 18.5675 122.001 18.0046 121.94 17.7688H119.768V36H122.454V30.8318C122.454 30.6035 122.401 29.9571 122.294 28.8923H122.454C123.338 30.041 124.58 30.615 126.18 30.615C127.757 30.615 128.994 30.037 129.889 28.8809C130.784 27.7249 131.232 26.1163 131.232 24.0551C131.232 21.9939 130.792 20.3929 129.912 19.2519C129.032 18.111 127.803 17.5407 126.226 17.5407C124.549 17.5407 123.292 18.1794 122.454 19.4573ZM123.185 27.3918C122.698 26.7036 122.454 25.5915 122.454 24.0551V23.6558C122.454 22.2868 122.7 21.2902 123.191 20.6665C123.683 20.0431 124.462 19.7311 125.529 19.7311C126.496 19.7311 127.23 20.0943 127.729 20.8208C128.228 21.547 128.477 22.6175 128.477 24.0322C128.477 25.4392 128.226 26.5231 127.723 27.2837C127.22 28.0444 126.504 28.4246 125.574 28.4246C124.469 28.4246 123.673 28.0805 123.185 27.3918ZM109.189 19.4573H109.052C108.861 18.5675 108.736 18.0046 108.675 17.7689H106.503V36H109.189V30.8318C109.189 30.6035 109.136 29.9571 109.029 28.8923H109.189C110.073 30.041 111.315 30.615 112.915 30.615C114.492 30.615 115.729 30.037 116.624 28.8809C117.519 27.7249 117.967 26.1163 117.967 24.0551C117.967 21.9939 117.527 20.3929 116.647 19.2519C115.767 18.111 114.538 17.5407 112.961 17.5407C111.284 17.5407 110.027 18.1794 109.189 19.4573V19.4573ZM109.92 27.3919C109.433 26.7037 109.189 25.5915 109.189 24.0552V23.6558C109.189 22.2868 109.435 21.2902 109.926 20.6666C110.418 20.0431 111.197 19.7311 112.264 19.7311C113.231 19.7311 113.965 20.0943 114.464 20.8208C114.963 21.547 115.212 22.6175 115.212 24.0322C115.212 25.4392 114.961 26.5231 114.458 27.2838C113.955 28.0444 113.239 28.4246 112.309 28.4246C111.204 28.4246 110.408 28.0805 109.92 27.3919ZM53.3856 19.2633C52.3341 20.4119 51.8085 22.0089 51.8085 24.0551C51.8085 25.3708 52.0519 26.5269 52.5399 27.5233C53.0274 28.5195 53.7247 29.284 54.6313 29.8165C55.5383 30.349 56.5821 30.615 57.7631 30.615C59.653 30.615 61.1273 30.037 62.1866 28.8809C63.2457 27.7249 63.7752 26.1163 63.7752 24.0551C63.7752 22.0623 63.2421 20.4783 62.1751 19.3033C61.1084 18.1282 59.6607 17.5407 57.8317 17.5407C55.9193 17.5407 54.4373 18.1148 53.3856 19.2633H53.3856ZM54.5742 24.0551C54.5742 22.6632 54.8277 21.5945 55.3344 20.8492C55.8411 20.1038 56.6583 19.7311 57.7861 19.7311C59.9347 19.7311 61.0092 21.1725 61.0092 24.0551C61.0092 26.9679 59.9424 28.4246 57.8088 28.4246C55.6523 28.4246 54.5742 26.9679 54.5742 24.0551V24.0551ZM73.8743 17.7688V24.0551C73.8743 25.6371 73.6092 26.7646 73.0799 27.4376C72.5503 28.1109 71.7216 28.4473 70.594 28.4473C69.7481 28.4473 69.1271 28.206 68.7309 27.7228C68.3347 27.24 68.1366 26.5156 68.1366 25.5496V17.7688H65.4276V26.0173C65.4276 27.5613 65.8047 28.7134 66.5593 29.474C67.3137 30.2347 68.4566 30.6149 69.9881 30.6149C70.8721 30.6149 71.6588 30.4475 72.3483 30.113C73.038 29.7784 73.5694 29.3181 73.9428 28.7325H74.0801L74.4574 30.3868H76.5718V17.7688H73.8743Z" fill="#7A7A7A"/>
<path fill-rule="evenodd" clip-rule="evenodd" d="M13.5784 12C17.0039 12 19.9877 14.0624 21.2578 17.053L21.3612 17.0839C24.7624 18.1232 27.2352 21.2636 27.2352 24.9793C27.2352 29.5491 23.498 33.2398 18.9048 33.2398H8.76247C8.60173 33.2512 8.45533 33.2524 8.28267 33.2397C3.71141 33.2143 0 29.5333 0 24.9793C0 21.2989 2.42758 18.1783 5.78573 17.1114L5.8878 17.0797L5.92916 16.9831C7.21583 14.0303 10.1796 12 13.5784 12ZM13.5784 13.4325C10.5231 13.4325 7.89447 15.4107 7.00381 18.1911L6.97513 18.283L6.88044 18.3024C3.7641 18.9623 1.43341 21.7043 1.43341 24.9793C1.43341 28.7164 4.46351 31.7462 8.21641 31.8065L8.33523 31.8067L8.37719 31.8103L8.4432 31.8144C8.52932 31.8181 8.60962 31.8155 8.70647 31.8074H18.9048C22.7101 31.8074 25.8018 28.7542 25.8018 24.9793C25.8018 21.6392 23.3791 18.8582 20.1769 18.2671C19.3101 15.4468 16.6615 13.4325 13.5784 13.4325ZM13.5784 14.8649C10.7922 14.8649 8.49313 16.9246 8.15719 19.5863C5.2199 19.6767 2.86686 22.0566 2.86686 24.9793C2.86686 27.9294 5.26428 30.3265 8.24 30.3742L8.37023 30.3752L8.4278 30.3772C8.50395 30.3817 8.4964 30.3895 8.64 30.3749H18.9048L18.9952 30.3742C21.9709 30.3265 24.3683 27.9294 24.3683 24.9793C24.3683 22.0306 21.9732 19.6343 18.9994 19.5845C18.6626 16.9237 16.364 14.8649 13.5784 14.8649Z" fill="#7A7A7A"/>
</g>
<defs>
<clipPath id="clip0_1_2272">
<rect width="138" height="24" fill="white" transform="translate(0 12)"/>
</clipPath>
</defs>
</svg>
