<svg width="44" height="44" viewBox="0 0 44 44" fill="none" xmlns="http://www.w3.org/2000/svg">
<rect x="1" y="1" width="42" height="42" rx="21" fill="black"/>
<path d="M14.8248 22.0249L18.6998 25.8999C18.8831 26.0832 18.9748 26.3166 18.9748 26.5999C18.9748 26.8832 18.8831 27.1166 18.6998 27.2999C18.5165 27.4832 18.2831 27.5749 17.9998 27.5749C17.7165 27.5749 17.4831 27.4832 17.2998 27.2999L12.6998 22.6999C12.5998 22.5999 12.529 22.4916 12.4873 22.3749C12.4456 22.2582 12.4248 22.1332 12.4248 21.9999C12.4248 21.8666 12.4456 21.7416 12.4873 21.6249C12.529 21.5082 12.5998 21.3999 12.6998 21.2999L17.2998 16.6999C17.4998 16.4999 17.7373 16.3999 18.0123 16.3999C18.2873 16.3999 18.5248 16.4999 18.7248 16.6999C18.9248 16.8999 19.0248 17.1374 19.0248 17.4124C19.0248 17.6874 18.9248 17.9249 18.7248 18.1249L14.8248 22.0249ZM29.1748 21.9749L25.2998 18.0999C25.1165 17.9166 25.0248 17.6832 25.0248 17.3999C25.0248 17.1166 25.1165 16.8832 25.2998 16.6999C25.4831 16.5166 25.7165 16.4249 25.9998 16.4249C26.2831 16.4249 26.5165 16.5166 26.6998 16.6999L31.2998 21.2999C31.3998 21.3999 31.4706 21.5082 31.5123 21.6249C31.554 21.7416 31.5748 21.8666 31.5748 21.9999C31.5748 22.1332 31.554 22.2582 31.5123 22.3749C31.4706 22.4916 31.3998 22.5999 31.2998 22.6999L26.6998 27.2999C26.4998 27.4999 26.2665 27.5957 25.9998 27.5874C25.7331 27.5791 25.4998 27.4749 25.2998 27.2749C25.0998 27.0749 24.9998 26.8374 24.9998 26.5624C24.9998 26.2874 25.0998 26.0499 25.2998 25.8499L29.1748 21.9749Z" fill="white"/>
<rect x="1" y="1" width="42" height="42" rx="21" stroke="white" stroke-width="2"/>
</svg>
