<svg width="44" height="44" viewBox="0 0 44 44" fill="none" xmlns="http://www.w3.org/2000/svg">
<rect x="1" y="1" width="42" height="42" rx="21" fill="#4591A3"/>
<path d="M20 28V26H21.55L24.175 23L21.55 20H19.9L18.3 28.6C18.1667 29.35 17.8583 29.9375 17.375 30.3625C16.8917 30.7875 16.275 31 15.525 31C14.775 31 14.1667 30.8 13.7 30.4C13.2333 30 13 29.4667 13 28.8C13 28.2667 13.1417 27.8375 13.425 27.5125C13.7083 27.1875 14.0667 27.025 14.5 27.025C14.9167 27.025 15.2708 27.1667 15.5625 27.45C15.8542 27.7333 16 28.075 16 28.475C16 28.5583 15.9958 28.6333 15.9875 28.7C15.9792 28.7667 15.9667 28.8417 15.95 28.925C16.0333 28.9083 16.1042 28.8625 16.1625 28.7875C16.2208 28.7125 16.2667 28.6083 16.3 28.475L17.85 20H15V18H18.225L18.75 15.15C18.8667 14.5167 19.1792 14 19.6875 13.6C20.1958 13.2 20.8 13 21.5 13C22.2333 13 22.8333 13.2167 23.3 13.65C23.7667 14.0833 24 14.625 24 15.275C24 15.775 23.8583 16.1875 23.575 16.5125C23.2917 16.8375 22.9333 17 22.5 17C22.0833 17 21.7292 16.8583 21.4375 16.575C21.1458 16.2917 21 15.9417 21 15.525C21 15.4417 21.0042 15.3667 21.0125 15.3C21.0208 15.2333 21.0333 15.1583 21.05 15.075C20.95 15.1083 20.875 15.1583 20.825 15.225C20.775 15.2917 20.7333 15.3917 20.7 15.525L20.275 18H25V20H24.2L25.5 21.475L26.8 20H26V18H31V20H29.45L26.825 23L29.45 26H31V28H26V26H26.8L25.5 24.5L24.2 26H25V28H20Z" fill="white"/>
<rect x="1" y="1" width="42" height="42" rx="21" stroke="white" stroke-width="2"/>
</svg>
