<svg width="164" height="48" viewBox="0 0 164 48" fill="none" xmlns="http://www.w3.org/2000/svg">
<g clip-path="url(#clip0_1_2257)">
<path fill-rule="evenodd" clip-rule="evenodd" d="M3.54656 28.9364V25.8632H17.4187V28.9364H3.54656ZM14.4722 13.5701H6.49183L10.4826 19.0764L14.4722 13.5701ZM20.5014 10.4969L10.4826 24.3265L0.463867 10.4969H20.5014Z" fill="#00B3E6"/>
<path d="M63.4641 36.635C63.3229 36.8259 63.1408 36.983 62.931 37.0947C62.7195 37.2111 62.4816 37.2715 62.24 37.2702C61.9451 37.2755 61.6549 37.1964 61.4038 37.0422C61.1533 36.8805 60.9549 36.6502 60.8322 36.3789C60.6979 36.0609 60.6287 35.7194 60.6287 35.3743C60.6287 35.0293 60.6979 34.6878 60.8322 34.3698C60.9549 34.0975 61.1533 33.866 61.4038 33.7026C61.6545 33.5434 61.9466 33.461 62.2439 33.4657C62.4809 33.4648 62.7145 33.5229 62.9233 33.6348C63.1379 33.7477 63.324 33.9074 63.4679 34.1021V33.5554H64.0305V37.1703H63.4679L63.4641 36.635ZM63.4641 34.5375C63.348 34.36 63.1896 34.2139 63.003 34.1124C62.813 34.0007 62.5967 33.9411 62.3762 33.9395C62.2127 33.9345 62.0503 33.9685 61.9026 34.0387C61.755 34.1088 61.6262 34.2131 61.5271 34.3429C61.322 34.647 61.2124 35.0053 61.2124 35.3718C61.2124 35.7383 61.322 36.0965 61.5271 36.4007C61.6268 36.5295 61.7557 36.6328 61.9034 36.7021C62.051 36.7713 62.2131 36.8045 62.3762 36.7989C62.5909 36.7949 62.8015 36.7399 62.9907 36.6386C63.1799 36.5373 63.3422 36.3925 63.4641 36.2163V34.5375ZM67.1132 32.1775H68.8241C69.293 32.1686 69.7563 32.2807 70.169 32.5028C70.5474 32.7111 70.8591 33.0218 71.0681 33.3991C71.2837 33.7913 71.3934 34.2325 71.3866 34.6797C71.3944 35.1269 71.2846 35.5684 71.0681 35.9602C70.8579 36.335 70.5464 36.6434 70.169 36.8501C69.7565 37.0729 69.2931 37.1849 68.8241 37.1754H67.1132V32.1775ZM68.8241 36.6593C69.1845 36.6679 69.5403 36.5766 69.8517 36.3956C70.137 36.2249 70.3673 35.9766 70.5158 35.6797C70.6711 35.368 70.7499 35.0239 70.7457 34.6758C70.7506 34.326 70.6732 33.98 70.5196 33.6655C70.3735 33.3684 70.1442 33.1198 69.8594 32.9497C69.5454 32.7667 69.1864 32.6749 68.8228 32.6846H67.7349V36.6542L68.8241 36.6593ZM72.2832 33.5541H72.8458V34.138C72.9955 33.9436 73.1802 33.7786 73.3904 33.6514C73.5901 33.5291 73.82 33.4644 74.0544 33.4644V33.9959C73.9805 33.9806 73.9052 33.9733 73.8297 33.9741C73.6308 33.9826 73.4383 34.046 73.2735 34.1572C73.0992 34.2538 72.9521 34.3925 72.8458 34.5606V37.169H72.2832V33.5541ZM75.1989 37.0115C74.9304 36.8437 74.7135 36.6053 74.5721 36.3226C74.4258 36.0234 74.3498 35.695 74.3498 35.3622C74.3498 35.0294 74.4258 34.7009 74.5721 34.4018C74.7128 34.1193 74.9299 33.8816 75.1989 33.7154C75.4869 33.551 75.813 33.4645 76.1449 33.4645C76.4768 33.4645 76.8029 33.551 77.0909 33.7154C77.3596 33.8819 77.5765 34.1196 77.7177 34.4018C77.8631 34.7012 77.9387 35.0295 77.9387 35.3622C77.9387 35.6948 77.8631 36.0232 77.7177 36.3226C77.6013 36.5362 77.4427 36.7243 77.2516 36.8754C77.0605 37.0265 76.8407 37.1375 76.6055 37.2018C76.3702 37.2662 76.1244 37.2825 75.8827 37.2498C75.641 37.2171 75.4084 37.136 75.1989 37.0115ZM76.7903 36.6004C76.9733 36.4658 77.1159 36.2838 77.2026 36.0741C77.2988 35.8491 77.3474 35.6068 77.3452 35.3622C77.3476 35.1184 77.2991 34.8768 77.2026 34.6528C77.1148 34.4452 76.9723 34.2651 76.7903 34.1316C76.6029 33.9992 76.3777 33.9305 76.1481 33.9357C75.9186 33.9314 75.6937 34 75.5059 34.1316C75.3213 34.2637 75.1769 34.4441 75.0884 34.6528C74.992 34.8768 74.9435 35.1184 74.9459 35.3622C74.9437 35.6068 74.9922 35.8491 75.0884 36.0741C75.1757 36.2849 75.3203 36.4672 75.5059 36.6004C75.6941 36.7311 75.9188 36.7992 76.1481 36.7951C76.3775 36.8001 76.6025 36.7319 76.7903 36.6004ZM78.7607 38.5468V33.5528H79.3233V34.0919C79.46 33.9009 79.64 33.7447 79.8486 33.636C80.0633 33.521 80.3036 33.4615 80.5474 33.4632C80.8436 33.4583 81.135 33.5378 81.3874 33.6924C81.6385 33.8517 81.8372 34.081 81.959 34.3518C82.0921 34.6717 82.1607 35.0146 82.1607 35.3609C82.1607 35.7072 82.0921 36.0501 81.959 36.3699C81.8394 36.6424 81.6412 36.8731 81.3895 37.0327C81.1379 37.1924 80.8443 37.2737 80.5461 37.2663C80.307 37.2684 80.0711 37.2121 79.8589 37.1024C79.6444 36.9908 79.4602 36.8291 79.322 36.6312V38.552L78.7607 38.5468ZM81.2525 34.3301C81.1532 34.2012 81.0245 34.0978 80.877 34.0283C80.7296 33.9588 80.5678 33.9253 80.4048 33.9306C80.1905 33.9363 79.9806 33.9928 79.7925 34.0954C79.6044 34.1981 79.4436 34.3439 79.3233 34.5209V36.192C79.4345 36.3715 79.5914 36.5186 79.778 36.6184C79.9682 36.7294 80.1844 36.7886 80.4048 36.79C80.568 36.7949 80.73 36.761 80.8774 36.6911C81.0248 36.6212 81.1534 36.5172 81.2525 36.3879C81.4725 36.0902 81.584 35.7265 81.5685 35.3571C81.5846 34.9887 81.473 34.6261 81.2525 34.3301ZM82.9994 32.1775H83.562V34.0983C83.7051 33.9043 83.8898 33.7446 84.1028 33.6309C84.3127 33.5183 84.5477 33.4602 84.7861 33.4619C85.0822 33.4568 85.3731 33.5392 85.6223 33.6988C85.8719 33.8632 86.07 34.0944 86.1938 34.3659C86.3303 34.6834 86.4006 35.0251 86.4006 35.3705C86.4006 35.7159 86.3303 36.0576 86.1938 36.3751C86.0741 36.6468 85.8756 36.8766 85.6238 37.0349C85.372 37.1933 85.0785 37.273 84.7809 37.2638C84.5393 37.2651 84.3014 37.2047 84.0899 37.0883C83.8801 36.9766 83.698 36.8195 83.5569 36.6286V37.1664H82.9943L82.9994 32.1775ZM84.0167 36.6261C84.2073 36.7357 84.4234 36.794 84.6435 36.7951C84.8076 36.8012 84.9707 36.7682 85.1195 36.699C85.2682 36.6297 85.3983 36.5262 85.499 36.3968C85.7049 36.093 85.815 35.7347 85.815 35.3679C85.815 35.0012 85.7049 34.6429 85.499 34.339C85.3992 34.2084 85.2695 34.1035 85.1206 34.0333C84.9717 33.9631 84.8081 33.9296 84.6435 33.9357C84.4229 33.9369 84.2066 33.9966 84.0167 34.1085C83.8305 34.2082 83.6737 34.3548 83.562 34.5337V36.2124C83.6744 36.3878 83.8312 36.5305 84.0167 36.6261ZM87.8932 37.0115C87.625 36.8433 87.4082 36.605 87.2664 36.3226C87.121 36.0232 87.0454 35.6948 87.0454 35.3622C87.0454 35.0295 87.121 34.7012 87.2664 34.4018C87.4075 34.1196 87.6245 33.8819 87.8932 33.7154C88.1812 33.551 88.5073 33.4645 88.8392 33.4645C89.1711 33.4645 89.4972 33.551 89.7852 33.7154C90.0538 33.8819 90.2708 34.1196 90.412 34.4018C90.5574 34.7012 90.6329 35.0295 90.6329 35.3622C90.6329 35.6948 90.5574 36.0232 90.412 36.3226C90.2956 36.5362 90.137 36.7243 89.9459 36.8754C89.7548 37.0265 89.535 37.1375 89.2998 37.2018C89.0645 37.2662 88.8187 37.2825 88.577 37.2498C88.3353 37.2171 88.1027 37.136 87.8932 37.0115ZM89.4846 36.6004C89.668 36.4659 89.811 36.2839 89.8982 36.0741C89.9944 35.8491 90.043 35.6068 90.0408 35.3622C90.0432 35.1184 89.9946 34.8768 89.8982 34.6528C89.8099 34.4451 89.667 34.2651 89.4846 34.1316C89.2972 33.9992 89.072 33.9305 88.8424 33.9357C88.6129 33.9316 88.388 34.0002 88.2002 34.1316C88.0163 34.2642 87.8724 34.4444 87.784 34.6528C87.6866 34.8765 87.6375 35.1183 87.6401 35.3622C87.6378 35.6069 87.6868 35.8494 87.784 36.0741C87.8713 36.2845 88.0153 36.4667 88.2002 36.6004C88.3884 36.7309 88.6131 36.799 88.8424 36.7951C89.0718 36.8001 89.2968 36.7319 89.4846 36.6004ZM92.5802 35.6874L91.4909 37.169H90.8487L92.2385 35.3135L90.9245 33.5541H91.577L92.584 34.9319L93.5898 33.5541H94.2423L92.9283 35.3135L94.3257 37.169H93.672L92.5802 35.6874ZM97.9852 36.9411C97.5977 36.7266 97.2779 36.4086 97.0616 36.0229C96.839 35.6095 96.7225 35.1476 96.7225 34.6784C96.7225 34.2092 96.839 33.7472 97.0616 33.3338C97.2779 32.9482 97.5977 32.6302 97.9852 32.4157C98.3778 32.198 98.8204 32.0855 99.2696 32.0892C99.6581 32.0799 100.043 32.1638 100.392 32.3337C100.712 32.4981 100.986 32.7382 101.191 33.0329L100.666 33.3249C100.515 33.1053 100.313 32.9255 100.078 32.8011C99.8297 32.6667 99.5518 32.5971 99.2696 32.5988C98.9285 32.5951 98.593 32.6865 98.3011 32.8626C98.0086 33.0422 97.771 33.2981 97.614 33.6027C97.4412 33.934 97.3529 34.3025 97.3571 34.6758C97.3526 35.0479 97.4409 35.4153 97.614 35.7451C97.7724 36.0487 98.0097 36.3043 98.3011 36.4852C98.5929 36.6685 98.9312 36.7649 99.276 36.7631C99.5577 36.765 99.8354 36.6968 100.084 36.5646C100.322 36.4411 100.524 36.2596 100.672 36.037L101.205 36.329C100.984 36.6296 100.694 36.8724 100.358 37.0366C100.023 37.2007 99.6523 37.2813 99.2786 37.2714C98.826 37.2755 98.3801 37.1616 97.9852 36.9411ZM102.528 37.0115C102.26 36.8433 102.043 36.605 101.901 36.3226C101.756 36.0232 101.681 35.6948 101.681 35.3622C101.681 35.0295 101.756 34.7012 101.901 34.4018C102.043 34.1196 102.26 33.8819 102.528 33.7154C102.816 33.551 103.142 33.4645 103.474 33.4645C103.806 33.4645 104.132 33.551 104.42 33.7154C104.689 33.8816 104.906 34.1193 105.047 34.4018C105.193 34.7009 105.269 35.0294 105.269 35.3622C105.269 35.695 105.193 36.0234 105.047 36.3226C104.931 36.5362 104.772 36.7243 104.581 36.8754C104.39 37.0265 104.17 37.1375 103.935 37.2018C103.7 37.2662 103.454 37.2825 103.212 37.2498C102.97 37.2171 102.738 37.136 102.528 37.0115ZM104.12 36.6004C104.303 36.4662 104.447 36.2841 104.533 36.0741C104.63 35.8491 104.678 35.6068 104.676 35.3622C104.678 35.1184 104.63 34.8768 104.533 34.6528C104.445 34.4449 104.302 34.2647 104.12 34.1316C103.932 33.9989 103.707 33.9302 103.478 33.9357C103.245 33.93 103.018 33.9987 102.828 34.1316C102.644 34.2642 102.5 34.4444 102.411 34.6528C102.315 34.8768 102.266 35.1184 102.269 35.3622C102.267 35.6068 102.315 35.8491 102.411 36.0741C102.499 36.2845 102.643 36.4667 102.828 36.6004C103.018 36.7324 103.246 36.8006 103.478 36.7951C103.707 36.8004 103.932 36.7322 104.12 36.6004ZM110.464 34.6912C110.476 34.4927 110.417 34.2964 110.298 34.1367C110.235 34.0669 110.158 34.0125 110.07 33.9776C109.983 33.9428 109.889 33.9284 109.796 33.9357C109.603 33.9396 109.416 33.9973 109.255 34.1021C109.088 34.2012 108.944 34.3353 108.834 34.4953V37.169H108.28V34.6912C108.28 34.1875 108.057 33.9357 107.612 33.9357C107.424 33.94 107.24 33.9978 107.083 34.1021C106.914 34.2038 106.77 34.3405 106.659 34.5029V37.169H106.097V33.5541H106.66V34.074C106.785 33.9031 106.946 33.7626 107.133 33.6629C107.342 33.5327 107.584 33.4627 107.831 33.4606C108.059 33.4511 108.285 33.5168 108.473 33.6476C108.634 33.7682 108.751 33.9396 108.803 34.1342C108.93 33.9389 109.103 33.7772 109.306 33.6629C109.521 33.5312 109.767 33.4612 110.019 33.4606C110.158 33.4511 110.296 33.4709 110.426 33.5185C110.557 33.5662 110.675 33.6407 110.774 33.7372C110.946 33.9224 111.031 34.1943 111.031 34.5529V37.1652H110.464V34.6912ZM112.051 38.5468V33.5528H112.614V34.0919C112.751 33.9009 112.931 33.7447 113.139 33.636C113.354 33.521 113.594 33.4615 113.838 33.4632C114.134 33.4583 114.426 33.5378 114.678 33.6924C114.929 33.8517 115.128 34.081 115.25 34.3518C115.383 34.6717 115.451 35.0146 115.451 35.3609C115.451 35.7072 115.383 36.0501 115.25 36.3699C115.13 36.6424 114.932 36.8731 114.68 37.0327C114.428 37.1924 114.135 37.2737 113.837 37.2663C113.598 37.2684 113.362 37.2121 113.149 37.1024C112.935 36.9908 112.751 36.8291 112.613 36.6312V38.552L112.051 38.5468ZM114.543 34.3301C114.444 34.2012 114.315 34.0978 114.168 34.0283C114.02 33.9588 113.858 33.9253 113.695 33.9306C113.481 33.9363 113.271 33.9928 113.083 34.0954C112.895 34.1981 112.734 34.3439 112.614 34.5209V36.192C112.725 36.3715 112.882 36.5186 113.069 36.6184C113.259 36.7294 113.475 36.7886 113.695 36.79C113.859 36.7949 114.021 36.761 114.168 36.6911C114.315 36.6212 114.444 36.5172 114.543 36.3879C114.763 36.0902 114.875 35.7265 114.859 35.3571C114.875 34.9887 114.764 34.6261 114.543 34.3301ZM118.948 36.635C118.806 36.8256 118.624 36.9826 118.414 37.0947C118.203 37.2111 117.965 37.2715 117.723 37.2702C117.426 37.2799 117.132 37.2004 116.88 37.042C116.628 36.8836 116.43 36.6535 116.311 36.3815C116.175 36.0637 116.106 35.7221 116.106 35.3769C116.106 35.0317 116.175 34.6901 116.311 34.3723C116.432 34.0999 116.63 33.8683 116.881 33.7052C117.132 33.5459 117.424 33.4635 117.722 33.4683C117.959 33.4675 118.193 33.5256 118.402 33.6373C118.616 33.7502 118.802 33.91 118.946 34.1047V33.5579H119.509V37.1728H118.946L118.948 36.635ZM118.948 34.5375C118.831 34.3595 118.672 34.2133 118.485 34.1124C118.295 34.0004 118.079 33.9407 117.858 33.9395C117.695 33.934 117.533 33.9678 117.385 34.038C117.237 34.1082 117.109 34.2128 117.011 34.3429C116.805 34.6467 116.695 35.0051 116.695 35.3718C116.695 35.7385 116.805 36.0968 117.011 36.4007C117.11 36.5293 117.239 36.6325 117.386 36.7018C117.534 36.771 117.695 36.8043 117.858 36.7989C118.073 36.7947 118.284 36.7396 118.473 36.6384C118.663 36.5371 118.825 36.3924 118.948 36.2163V34.5375ZM122.976 34.7821C122.976 34.4748 122.905 34.2571 122.765 34.129C122.596 33.9907 122.382 33.9216 122.164 33.9357C121.949 33.9375 121.738 33.9949 121.552 34.1021C121.37 34.1994 121.213 34.3364 121.091 34.5029V37.169H120.527V33.5541H121.091V34.074C121.249 33.896 121.44 33.7499 121.654 33.6437C121.878 33.5246 122.128 33.4617 122.382 33.4606C123.153 33.4606 123.538 33.8499 123.538 34.6284V37.1652H122.976V34.7821ZM124.775 37.671C124.901 37.8327 125.067 37.9599 125.255 38.041C125.452 38.1266 125.664 38.1703 125.878 38.1691C126.026 38.1778 126.173 38.1565 126.312 38.1065C126.451 38.0565 126.578 37.9789 126.686 37.8784C126.787 37.7685 126.864 37.6395 126.914 37.4992C126.964 37.3588 126.985 37.21 126.975 37.0614V36.5748C126.815 36.7513 126.623 36.896 126.409 37.0012C126.185 37.1151 125.936 37.1739 125.684 37.1728C124.914 37.1728 124.528 36.7887 124.528 36.0204V33.5541H125.092V35.8667C125.092 36.1715 125.161 36.3849 125.298 36.507C125.469 36.6424 125.685 36.7091 125.903 36.6939C126.117 36.693 126.327 36.6388 126.514 36.5364C126.696 36.446 126.855 36.3145 126.977 36.1523V33.5541H127.539V37.0717C127.539 37.5839 127.383 37.9732 127.07 38.2395C126.735 38.5121 126.312 38.6533 125.88 38.6365C125.617 38.643 125.355 38.5995 125.109 38.5084C124.878 38.4127 124.669 38.2721 124.494 38.0948L124.775 37.671ZM32.7283 25.8645V20.932H27.9835V25.8645H25.123V13.5715H27.9835V18.3824H32.7283V13.569H35.5888V25.862L32.7283 25.8645ZM39.1981 25.8645V13.5715H47.0115V16.1851H42.0586V18.3824H46.5683V20.8654H42.0586V23.2638H47.0115V25.8645H39.1981ZM50.4191 25.8645V13.5715H53.2783V23.2664H58.2261V25.8671L50.4191 25.8645ZM60.6267 25.8645V13.5715H63.4911V23.2664H68.4375V25.8671L60.6267 25.8645ZM76.5065 26.0656C72.6865 26.0656 70.2473 23.3317 70.2473 19.7244C70.2473 16.1172 72.8047 13.3666 76.6246 13.3666C80.4446 13.3666 82.8838 16.1018 82.8838 19.7244C82.8838 23.347 80.3097 26.0656 76.5065 26.0656ZM76.554 15.9174C74.6029 15.9174 73.2902 17.5104 73.2902 19.7244C73.2902 21.9385 74.6029 23.5327 76.554 23.5327C78.5051 23.5327 79.8191 21.9218 79.8191 19.7244C79.8191 17.5271 78.5089 15.9174 76.554 15.9174ZM89.0646 26.0656C87.6684 26.0656 85.9819 25.5124 84.9094 24.8068L85.6993 22.224C86.6922 22.9449 87.9882 23.4149 89.1494 23.4149C90.159 23.4149 90.5456 22.9449 90.5456 22.3418C90.5456 21.7016 90.2258 21.2675 88.3415 20.5132C86.1707 19.6412 85.4168 18.3824 85.4168 16.906C85.4168 15.1133 86.8797 13.3666 89.7569 13.3666C91.103 13.3666 92.4838 13.8366 93.207 14.3232L92.4813 16.8727C91.7735 16.3861 90.6304 15.8662 89.7544 15.8662C88.7114 15.8662 88.2914 16.3528 88.2914 16.8561C88.2914 17.6615 88.913 17.9304 90.4621 18.5835C92.7664 19.5567 93.4562 20.6643 93.4562 22.2407C93.4562 24.2037 92.0266 26.0656 89.0646 26.0656ZM96.5235 25.8645V13.5715H99.3839V25.8645H96.5235ZM113.644 18.9536V24.8248C112.23 25.6615 110.61 26.091 108.966 26.0656C105.349 26.0656 102.488 23.4828 102.488 19.7244C102.488 15.9661 105.382 13.3666 109.118 13.3666C110.733 13.3666 112.028 13.7866 113.256 14.4243L112.062 16.7216C111.212 16.2758 110.268 16.0399 109.308 16.034C106.85 16.034 105.539 17.5603 105.539 19.7244C105.539 22.0729 107.12 23.5327 109.136 23.5327C110.044 23.5327 110.498 23.4315 110.953 23.1972V21.3853H108.478V18.9523L113.644 18.9536ZM127.228 26.0989L119.791 19.4402V25.8645H116.931V13.4012L117.316 13.3333L124.653 19.9421V13.569H127.514V26.0489L127.228 26.0989Z" fill="#7A7A7A"/>
</g>
<defs>
<clipPath id="clip0_1_2257">
<rect width="128" height="29" fill="white" transform="translate(0 10)"/>
</clipPath>
</defs>
</svg>
