<svg width="115" height="64" viewBox="0 0 115 64" fill="none" xmlns="http://www.w3.org/2000/svg">
<g clip-path="url(#clip0_723_9937)">
<g clip-path="url(#clip1_723_9937)">
<path d="M23.1449 22.6496V42.2581H19.6643V26.8708H19.6179L13.399 42.2581H11.0786L4.72056 26.8708H4.67415V42.2581H1.47192V22.6496H6.4841L12.2388 37.1744H12.3316L18.4112 22.6496H23.1449ZM26.0223 24.1474C26.0223 23.6028 26.2079 23.1489 26.6256 22.7857C27.0433 22.4226 27.5074 22.2411 28.0643 22.2411C28.6676 22.2411 29.1781 22.4226 29.5494 22.7857C29.9207 23.1489 30.1527 23.6028 30.1527 24.1474C30.1527 24.6921 29.9671 25.146 29.5494 25.5091C29.1317 25.8723 28.6676 26.0538 28.0643 26.0538C27.461 26.0538 26.9969 25.8723 26.6256 25.5091C26.2543 25.1006 26.0223 24.6467 26.0223 24.1474ZM29.7814 28.1872V42.2581H26.3936V28.1872H29.7814ZM40.0378 39.8524C40.5483 39.8524 41.1052 39.7616 41.7086 39.4893C42.3119 39.2623 42.8688 38.9446 43.3793 38.5815V41.668C42.8224 41.9857 42.2191 42.2127 41.5229 42.3489C40.8268 42.485 40.0842 42.5758 39.2489 42.5758C37.1141 42.5758 35.3969 41.9403 34.0975 40.624C32.7516 39.3077 32.1019 37.6283 32.1019 35.6311C32.1019 33.3616 32.798 31.5006 34.1439 30.0481C35.4897 28.5957 37.3925 27.8694 39.8986 27.8694C40.5483 27.8694 41.1981 27.9602 41.8014 28.0964C42.4511 28.2325 42.9616 28.4595 43.3329 28.6411V31.8184C42.8224 31.4552 42.2655 31.1375 41.755 30.9559C41.1981 30.7744 40.6411 30.6382 40.0842 30.6382C38.7384 30.6382 37.671 31.0467 36.8356 31.9091C36.0002 32.7716 35.629 33.9063 35.629 35.3588C35.629 36.7659 36.0466 37.9006 36.8356 38.6723C37.6246 39.4439 38.692 39.8524 40.0378 39.8524ZM52.986 27.9602C53.2644 27.9602 53.4965 27.9602 53.7285 28.0056C53.9605 28.051 54.1462 28.0964 54.2854 28.1418V31.5006C54.0998 31.3645 53.8677 31.2283 53.4965 31.1375C53.1252 31.0467 52.7539 30.9559 52.2434 30.9559C51.408 30.9559 50.7119 31.3191 50.155 31.9999C49.5981 32.6808 49.2732 33.7247 49.2732 35.1772V42.2581H45.8854V28.1872H49.2732V30.4113H49.3196C49.6445 29.6396 50.1086 29.0496 50.7119 28.5957C51.3616 28.1872 52.1042 27.9602 52.986 27.9602ZM54.471 35.4496C54.471 33.1347 55.1672 31.2737 56.4666 29.912C57.8125 28.5503 59.6688 27.8694 62.0357 27.8694C64.2633 27.8694 66.0269 28.5049 67.2799 29.8212C68.533 31.1375 69.1827 32.9077 69.1827 35.1318C69.1827 37.4013 68.4866 39.2169 67.1871 40.5786C65.8413 41.9403 64.0313 42.6212 61.7108 42.6212C59.4832 42.6212 57.7197 41.9857 56.4202 40.7148C55.1208 39.3985 54.471 37.6283 54.471 35.4496ZM57.9981 35.3134C57.9981 36.7659 58.323 37.9006 59.0191 38.6723C59.7153 39.4439 60.6898 39.8524 61.9429 39.8524C63.1495 39.8524 64.1241 39.4893 64.7738 38.6723C65.4236 37.9006 65.7484 36.7659 65.7484 35.2226C65.7484 33.7247 65.4236 32.59 64.7738 31.773C64.1241 31.0013 63.1495 30.5928 61.9893 30.5928C60.7363 30.5928 59.8081 31.0013 59.1119 31.8184C58.323 32.6808 57.9981 33.8155 57.9981 35.3134ZM74.2413 31.9091C74.2413 32.363 74.3805 32.7716 74.7054 33.0439C75.0302 33.3162 75.68 33.634 76.7474 34.0425C78.0932 34.5872 79.0678 35.1772 79.5783 35.8127C80.1352 36.4935 80.4137 37.2652 80.4137 38.2184C80.4137 39.5347 79.9032 40.5786 78.8358 41.3957C77.8148 42.2127 76.3761 42.5758 74.6126 42.5758C74.0092 42.5758 73.3595 42.485 72.617 42.3489C71.8744 42.2127 71.2711 42.0311 70.7606 41.8042V38.5361C71.3639 38.9446 72.0601 39.3077 72.7562 39.5347C73.4523 39.7616 74.1021 39.8978 74.7054 39.8978C75.4479 39.8978 76.0512 39.807 76.3761 39.5801C76.7474 39.3531 76.933 39.0354 76.933 38.5361C76.933 38.0822 76.7474 37.7191 76.3761 37.3559C76.0048 37.0382 75.2623 36.6751 74.2413 36.2666C72.9882 35.7673 72.1065 35.1772 71.596 34.5418C71.0855 33.9063 70.807 33.0893 70.807 32.0907C70.807 30.8198 71.3175 29.7758 72.3385 28.9588C73.3595 28.1418 74.7054 27.7333 76.3297 27.7333C76.8402 27.7333 77.3971 27.7786 78.0004 27.9148C78.6037 28.051 79.1606 28.1872 79.5783 28.3233V31.546C79.1142 31.2737 78.6037 31.0013 78.0004 30.7744C77.3971 30.5474 76.7938 30.4567 76.2369 30.4567C75.5872 30.4567 75.0767 30.5928 74.7518 30.8198C74.4269 31.1375 74.2413 31.4552 74.2413 31.9091ZM81.8524 35.4496C81.8524 33.1347 82.5485 31.2737 83.848 29.912C85.1938 28.5503 87.0502 27.8694 89.417 27.8694C91.6447 27.8694 93.4082 28.5049 94.6613 29.8212C95.9143 31.1375 96.564 32.9077 96.564 35.1318C96.564 37.4013 95.8679 39.2169 94.5684 40.5786C93.2226 41.9403 91.4126 42.6212 89.0922 42.6212C86.8645 42.6212 85.101 41.9857 83.8016 40.7148C82.5485 39.3985 81.8524 37.6283 81.8524 35.4496ZM85.3795 35.3134C85.3795 36.7659 85.7043 37.9006 86.4005 38.6723C87.0966 39.4439 88.0712 39.8524 89.3242 39.8524C90.5309 39.8524 91.5054 39.4893 92.1552 38.6723C92.8049 37.9006 93.1298 36.7659 93.1298 35.2226C93.1298 33.7247 92.8049 32.59 92.1552 31.773C91.5054 31.0013 90.5309 30.5928 89.3706 30.5928C88.1176 30.5928 87.1894 31.0013 86.4933 31.8184C85.7507 32.6808 85.3795 33.8155 85.3795 35.3134ZM107.841 30.9106H102.783V42.2581H99.3486V30.9106H96.9353V28.1872H99.3486V26.2354C99.3486 24.7829 99.8591 23.5574 100.834 22.6042C101.808 21.651 103.061 21.1971 104.593 21.1971C105.01 21.1971 105.382 21.2425 105.707 21.2425C106.031 21.2425 106.31 21.3333 106.542 21.424V24.2836C106.449 24.2382 106.217 24.1474 105.939 24.0567C105.66 23.9659 105.335 23.9205 104.964 23.9205C104.268 23.9205 103.711 24.1474 103.34 24.5559C102.968 24.9645 102.783 25.6453 102.783 26.4623V28.1418H107.841V24.9645L111.229 23.9659V28.1418H114.664V30.8652H111.229V37.4467C111.229 38.3091 111.415 38.8992 111.693 39.2623C112.018 39.6255 112.529 39.807 113.225 39.807C113.411 39.807 113.643 39.7616 113.921 39.6708C114.199 39.5801 114.432 39.4893 114.617 39.3531V42.0765C114.385 42.2127 114.06 42.3035 113.55 42.3942C113.039 42.485 112.575 42.5304 112.065 42.5304C110.626 42.5304 109.559 42.1673 108.862 41.4411C108.166 40.7148 107.795 39.5801 107.795 38.0822L107.841 30.9106Z" fill="#67697D"/>
</g>
</g>
<defs>
<clipPath id="clip0_723_9937">
<rect width="114.383" height="64" fill="white" transform="translate(0.468018)"/>
</clipPath>
<clipPath id="clip1_723_9937">
<rect width="113.702" height="21.7872" fill="white" transform="translate(1.14758 21.1064)"/>
</clipPath>
</defs>
</svg>
