<svg width="114" height="22" viewBox="0 0 114 22" fill="none" xmlns="http://www.w3.org/2000/svg">
<g clip-path="url(#clip0_723_9938)">
<path d="M22.1449 1.64956V21.2581H18.6643V5.87084H18.6179L12.399 21.2581H10.0786L3.72056 5.87084H3.67415V21.2581H0.471924V1.64956H5.4841L11.2388 16.1744H11.3316L17.4112 1.64956H22.1449ZM25.0223 3.14744C25.0223 2.60276 25.2079 2.14886 25.6256 1.78574C26.0433 1.42261 26.5074 1.24105 27.0643 1.24105C27.6676 1.24105 28.1781 1.42261 28.5494 1.78574C28.9207 2.14886 29.1527 2.60276 29.1527 3.14744C29.1527 3.69212 28.9671 4.14602 28.5494 4.50914C28.1317 4.87226 27.6676 5.05382 27.0643 5.05382C26.461 5.05382 25.9969 4.87226 25.6256 4.50914C25.2543 4.10063 25.0223 3.64673 25.0223 3.14744ZM28.7814 7.18715V21.2581H25.3936V7.18715H28.7814ZM39.0378 18.8524C39.5483 18.8524 40.1052 18.7616 40.7086 18.4893C41.3119 18.2623 41.8688 17.9446 42.3793 17.5815V20.668C41.8224 20.9857 41.2191 21.2127 40.5229 21.3489C39.8268 21.485 39.0842 21.5758 38.2489 21.5758C36.1141 21.5758 34.3969 20.9403 33.0975 19.624C31.7516 18.3077 31.1019 16.6283 31.1019 14.6311C31.1019 12.3616 31.798 10.5006 33.1439 9.04815C34.4897 7.59566 36.3925 6.86942 38.8986 6.86942C39.5483 6.86942 40.1981 6.9602 40.8014 7.09637C41.4511 7.23254 41.9616 7.45949 42.3329 7.64106V10.8184C41.8224 10.4552 41.2655 10.1375 40.755 9.95595C40.1981 9.77439 39.6411 9.63822 39.0842 9.63822C37.7384 9.63822 36.671 10.0467 35.8356 10.9091C35.0002 11.7716 34.629 12.9063 34.629 14.3588C34.629 15.7659 35.0466 16.9006 35.8356 17.6723C36.6246 18.4439 37.692 18.8524 39.0378 18.8524ZM51.986 6.9602C52.2644 6.9602 52.4965 6.9602 52.7285 7.00559C52.9605 7.05098 53.1462 7.09637 53.2854 7.14176V10.5006C53.0998 10.3645 52.8677 10.2283 52.4965 10.1375C52.1252 10.0467 51.7539 9.95595 51.2434 9.95595C50.408 9.95595 49.7119 10.3191 49.155 10.9999C48.5981 11.6808 48.2732 12.7247 48.2732 14.1772V21.2581H44.8854V7.18715H48.2732V9.41127H48.3196C48.6445 8.63964 49.1086 8.04956 49.7119 7.59566C50.3616 7.18715 51.1042 6.9602 51.986 6.9602ZM53.471 14.4496C53.471 12.1347 54.1672 10.2737 55.4666 8.91198C56.8125 7.55027 58.6688 6.86942 61.0357 6.86942C63.2633 6.86942 65.0269 7.50488 66.2799 8.8212C67.533 10.1375 68.1827 11.9077 68.1827 14.1318C68.1827 16.4013 67.4866 18.2169 66.1871 19.5786C64.8413 20.9403 63.0313 21.6212 60.7108 21.6212C58.4832 21.6212 56.7197 20.9857 55.4202 19.7148C54.1208 18.3985 53.471 16.6283 53.471 14.4496ZM56.9981 14.3134C56.9981 15.7659 57.323 16.9006 58.0191 17.6723C58.7153 18.4439 59.6898 18.8524 60.9429 18.8524C62.1495 18.8524 63.1241 18.4893 63.7738 17.6723C64.4236 16.9006 64.7484 15.7659 64.7484 14.2226C64.7484 12.7247 64.4236 11.59 63.7738 10.773C63.1241 10.0013 62.1495 9.59283 60.9893 9.59283C59.7363 9.59283 58.8081 10.0013 58.1119 10.8184C57.323 11.6808 56.9981 12.8155 56.9981 14.3134ZM73.2413 10.9091C73.2413 11.363 73.3805 11.7716 73.7054 12.0439C74.0302 12.3162 74.68 12.634 75.7474 13.0425C77.0932 13.5872 78.0678 14.1772 78.5783 14.8127C79.1352 15.4935 79.4137 16.2652 79.4137 17.2184C79.4137 18.5347 78.9032 19.5786 77.8358 20.3957C76.8148 21.2127 75.3761 21.5758 73.6126 21.5758C73.0092 21.5758 72.3595 21.485 71.617 21.3489C70.8744 21.2127 70.2711 21.0311 69.7606 20.8042V17.5361C70.3639 17.9446 71.0601 18.3077 71.7562 18.5347C72.4523 18.7616 73.1021 18.8978 73.7054 18.8978C74.4479 18.8978 75.0512 18.807 75.3761 18.5801C75.7474 18.3531 75.933 18.0354 75.933 17.5361C75.933 17.0822 75.7474 16.7191 75.3761 16.3559C75.0048 16.0382 74.2623 15.6751 73.2413 15.2666C71.9882 14.7673 71.1065 14.1772 70.596 13.5418C70.0855 12.9063 69.807 12.0893 69.807 11.0907C69.807 9.81978 70.3175 8.77581 71.3385 7.95878C72.3595 7.14176 73.7054 6.73325 75.3297 6.73325C75.8402 6.73325 76.3971 6.77864 77.0004 6.91481C77.6037 7.05098 78.1606 7.18715 78.5783 7.32332V10.546C78.1142 10.2737 77.6037 10.0013 77.0004 9.77439C76.3971 9.54744 75.7938 9.45666 75.2369 9.45666C74.5872 9.45666 74.0767 9.59283 73.7518 9.81978C73.4269 10.1375 73.2413 10.4552 73.2413 10.9091ZM80.8524 14.4496C80.8524 12.1347 81.5485 10.2737 82.848 8.91198C84.1938 7.55027 86.0502 6.86942 88.417 6.86942C90.6447 6.86942 92.4082 7.50488 93.6613 8.8212C94.9143 10.1375 95.564 11.9077 95.564 14.1318C95.564 16.4013 94.8679 18.2169 93.5684 19.5786C92.2226 20.9403 90.4126 21.6212 88.0922 21.6212C85.8645 21.6212 84.101 20.9857 82.8016 19.7148C81.5485 18.3985 80.8524 16.6283 80.8524 14.4496ZM84.3795 14.3134C84.3795 15.7659 84.7043 16.9006 85.4005 17.6723C86.0966 18.4439 87.0712 18.8524 88.3242 18.8524C89.5309 18.8524 90.5054 18.4893 91.1552 17.6723C91.8049 16.9006 92.1298 15.7659 92.1298 14.2226C92.1298 12.7247 91.8049 11.59 91.1552 10.773C90.5054 10.0013 89.5309 9.59283 88.3706 9.59283C87.1176 9.59283 86.1894 10.0013 85.4933 10.8184C84.7507 11.6808 84.3795 12.8155 84.3795 14.3134ZM106.841 9.91056H101.783V21.2581H98.3486V9.91056H95.9353V7.18715H98.3486V5.23538C98.3486 3.7829 98.8591 2.55737 99.8337 1.60417C100.808 0.650983 102.061 0.197083 103.593 0.197083C104.01 0.197083 104.382 0.242473 104.707 0.242473C105.031 0.242473 105.31 0.333253 105.542 0.424033V3.28361C105.449 3.23822 105.217 3.14744 104.939 3.05666C104.66 2.96588 104.335 2.92049 103.964 2.92049C103.268 2.92049 102.711 3.14744 102.34 3.55595C101.968 3.96446 101.783 4.64531 101.783 5.46233V7.14176H106.841V3.96446L110.229 2.96588V7.14176H113.664V9.86517H110.229V16.4467C110.229 17.3091 110.415 17.8992 110.693 18.2623C111.018 18.6255 111.529 18.807 112.225 18.807C112.411 18.807 112.643 18.7616 112.921 18.6708C113.199 18.5801 113.432 18.4893 113.617 18.3531V21.0765C113.385 21.2127 113.06 21.3035 112.55 21.3942C112.039 21.485 111.575 21.5304 111.065 21.5304C109.626 21.5304 108.559 21.1673 107.862 20.4411C107.166 19.7148 106.795 18.5801 106.795 17.0822L106.841 9.91056Z" fill="#67697D"/>
</g>
<defs>
<clipPath id="clip0_723_9938">
<rect width="113.702" height="21.7872" fill="white" transform="translate(0.147583 0.106384)"/>
</clipPath>
</defs>
</svg>
