<svg width="164" height="48" viewBox="0 0 164 48" fill="none" xmlns="http://www.w3.org/2000/svg">
<g clip-path="url(#clip0_1_2287)">
<path d="M2.84035 31.2945C2.3356 31.2957 1.83961 31.1624 1.40305 30.9084C0.966479 30.6544 0.604983 30.2888 0.35549 29.8489C0.109816 29.4121 -0.0127082 28.9165 0.00104229 28.4152C0.0147928 27.9139 0.1643 27.4259 0.433549 27.0032L5.55071 18.9467C5.81261 18.5137 6.18446 18.1582 6.62826 17.9164C7.07206 17.6747 7.57192 17.5553 8.07677 17.5706C8.58123 17.5828 9.07343 17.729 9.50299 17.9945C9.93255 18.26 10.284 18.6351 10.5215 19.0815C10.7556 19.5245 10.8649 20.023 10.8378 20.5236C10.8106 21.0241 10.6481 21.5078 10.3676 21.9228L5.25365 29.9793C4.99432 30.3845 4.63717 30.7175 4.21531 30.9474C3.79344 31.1773 3.32051 31.2967 2.84035 31.2945Z" fill="#F62B54"/>
<path d="M11.6179 31.2943C11.114 31.2959 10.6188 31.1632 10.1829 30.9097C9.74707 30.6563 9.38623 30.2912 9.13737 29.852C8.89225 29.4163 8.77001 28.922 8.78376 28.4221C8.79751 27.9221 8.94674 27.4353 9.21543 27.0139L14.3228 18.9759C14.5809 18.5368 14.9514 18.1749 15.396 17.9278C15.8405 17.6807 16.3429 17.5573 16.8511 17.5704C17.8918 17.5933 18.835 18.177 19.3121 19.09C19.7858 20.003 19.7165 21.0976 19.1278 21.9444L14.0214 29.9824C13.7629 30.3858 13.4072 30.7175 12.9871 30.9468C12.5671 31.1761 12.0962 31.2956 11.6179 31.2943Z" fill="#FFCC00"/>
<path d="M20.1984 31.3618C21.6534 31.3618 22.8329 30.2041 22.8329 28.776C22.8329 27.3478 21.6534 26.1901 20.1984 26.1901C18.7435 26.1901 17.564 27.3478 17.564 28.776C17.564 30.2041 18.7435 31.3618 20.1984 31.3618Z" fill="#00CA72"/>
<path d="M134.648 26.34C135.443 26.34 135.919 26.9076 135.919 27.837V31.0214H137V27.7641C137 26.1835 136.258 25.267 134.861 25.267C134.315 25.267 133.447 25.417 132.93 26.425C132.81 26.1277 132.612 25.8687 132.357 25.6754C132.102 25.4821 131.799 25.3617 131.481 25.327C131.281 25.2903 131.077 25.2782 130.874 25.2911C130.429 25.327 129.638 25.6041 129.342 26.2323V25.3879H128.26V31.0214H129.342V27.9814C129.342 26.7988 130.114 26.3402 130.887 26.3402C131.611 26.3402 132.087 26.8955 132.087 27.825V31.0214H133.162V27.9814C133.162 27.0402 133.726 26.3291 134.648 26.3402V26.34ZM124.289 30.0805C124.534 30.0856 124.777 30.0397 125.004 29.9458C125.231 29.8519 125.436 29.712 125.606 29.535C125.778 29.3565 125.911 29.1452 126 28.9135C126.088 28.6819 126.128 28.4347 126.119 28.187C126.119 27.0523 125.286 26.3402 124.289 26.3402C123.29 26.3402 122.458 27.052 122.458 28.1873C122.449 28.4342 122.489 28.6806 122.576 28.9116C122.664 29.1425 122.797 29.3534 122.968 29.5314C123.137 29.7084 123.341 29.8486 123.567 29.943C123.793 30.0375 124.035 30.0843 124.28 30.0805H124.289ZM124.289 31.137C122.708 31.137 121.389 29.9664 121.389 28.1805C121.389 26.3947 122.708 25.2611 124.289 25.2611C125.869 25.2611 127.199 26.3947 127.199 28.1805C127.199 29.9664 125.862 31.1423 124.281 31.1423L124.289 31.137ZM115.822 28.1805L115.811 28.187C115.811 26.4011 117.165 25.2676 118.756 25.2611C119.156 25.2533 119.553 25.3298 119.921 25.4855C120.29 25.6413 120.622 25.8728 120.895 26.1652L120.075 26.8652C119.901 26.6939 119.695 26.5588 119.469 26.4678C119.242 26.3768 119 26.3316 118.756 26.335C117.759 26.335 116.891 27.0467 116.891 28.1805C116.891 28.9467 117.346 29.637 118.043 29.9305C118.384 30.0738 118.76 30.1112 119.122 30.0379C119.485 29.9647 119.817 29.7842 120.076 29.5197L120.907 30.2197C120.633 30.5152 120.299 30.7495 119.929 30.9076C119.558 31.0657 119.159 31.144 118.756 31.1373C117.177 31.1373 115.822 29.9664 115.822 28.1805ZM112.36 29.9402C112.359 29.8418 112.377 29.744 112.413 29.6526C112.45 29.5611 112.504 29.4778 112.573 29.4073C112.641 29.3369 112.723 29.2806 112.814 29.2419C112.904 29.2031 113.001 29.1826 113.099 29.1814C113.197 29.1826 113.294 29.2031 113.385 29.2419C113.475 29.2806 113.557 29.3369 113.626 29.4073C113.694 29.4778 113.748 29.5611 113.785 29.6526C113.821 29.744 113.84 29.8418 113.838 29.9402C113.829 30.1309 113.747 30.3108 113.609 30.443C113.472 30.5753 113.29 30.65 113.099 30.652C112.909 30.65 112.726 30.5753 112.589 30.443C112.451 30.3108 112.37 30.1309 112.36 29.9402Z" fill="#7A7A7A"/>
<path fill-rule="evenodd" clip-rule="evenodd" d="M115.317 18.2259H111.467L108.769 25.2009L106.084 18.2259H102.235L106.915 29.2476L104.004 36.5347H107.825L115.317 18.2259ZM91.9038 24.3565C91.9038 26.1173 93.4389 27.2759 94.9468 27.2759C96.4288 27.2759 97.885 26.1976 97.885 24.3553C97.885 22.5129 96.4288 21.4335 94.9468 21.4335C93.4389 21.4335 91.9038 22.5932 91.9038 24.3553V24.3565ZM97.885 30.5109V29.1159C97.1044 30.3006 95.2829 30.7482 94.3483 30.7482C91.2543 30.7482 88.1591 28.3029 88.1591 24.355C88.1591 20.4082 91.2531 17.9626 94.3483 17.9626C95.128 17.9626 96.9492 18.2235 97.885 19.5929V18.2306H101.473V30.5129L97.885 30.512V30.5109ZM87.1379 30.5109H83.5492V28.9844C82.9496 30.115 81.4958 30.7738 79.9867 30.7738C76.8654 30.7738 74.1084 28.275 74.1084 24.4053C74.1084 20.4629 76.8654 17.9609 79.9867 17.9609C81.4937 17.9609 82.952 18.5912 83.5492 19.7226V11.5344H87.1379V30.5109ZM83.4712 24.3282C83.4712 22.487 82.1452 21.4076 80.6632 21.4076C79.1281 21.4076 77.8531 22.565 77.8531 24.3282C77.8531 26.1476 79.1281 27.3 80.6623 27.3C82.1725 27.302 83.4712 26.0912 83.4712 24.3282ZM65.2362 24.0106C65.2362 22.1432 66.1984 21.5117 67.4724 21.5117C68.6942 21.5117 69.5787 22.327 69.5787 23.9573V30.5085H73.1935V23.1694C73.1935 19.6715 71.4761 17.9606 68.7453 17.9606C67.3152 17.9606 65.8851 18.7759 65.2347 20.0129V18.2259H61.6226V30.5085H65.2359L65.2362 24.0106ZM54.2828 30.7194C50.8505 30.7194 47.9874 28.1944 47.9874 24.327C47.9874 20.4573 50.847 17.9573 54.2828 17.9573C57.7183 17.9573 60.6035 20.4573 60.6035 24.327C60.6035 28.1965 57.7151 30.7206 54.2828 30.7206V30.7194ZM54.2828 27.1432C55.7898 27.1432 57.0398 26.0367 57.0398 24.3282C57.0398 22.6706 55.7909 21.5391 54.2828 21.5391C53.9197 21.5334 53.5592 21.6018 53.2233 21.7402C52.8874 21.8787 52.5831 22.0842 52.329 22.3444C52.0735 22.6059 51.8729 22.9163 51.7394 23.2571C51.6058 23.5979 51.542 23.9622 51.5516 24.3282C51.5528 26.0391 52.8008 27.1432 54.2828 27.1432ZM41.5068 21.5129C42.5726 21.5129 43.5093 22.3553 43.5093 23.9585V30.5109H47.0979V23.5344C47.0979 19.8259 45.2993 17.9585 42.4165 17.9585C41.5599 17.9585 39.9467 18.2194 38.776 20.1412C38.0995 18.7206 36.7996 17.9835 34.8784 17.9835C34.2114 17.9801 33.5576 18.1694 32.9951 18.5287C32.4326 18.8881 31.9851 19.4022 31.7063 20.0097V18.227H28.0898V30.5094H31.7034V24.0112C31.7034 22.1435 32.7181 21.512 33.8097 21.512C34.8505 21.512 35.7852 22.3273 35.8122 23.8797V30.51H39.4269V24.0109C39.4269 22.225 40.3636 21.5138 41.5074 21.5138L41.5068 21.5129Z" fill="#7A7A7A"/>
</g>
<defs>
<clipPath id="clip0_1_2287">
<rect width="137" height="25" fill="white" transform="translate(0 11.5347)"/>
</clipPath>
</defs>
</svg>
