<svg width="164" height="48" viewBox="0 0 164 48" fill="none" xmlns="http://www.w3.org/2000/svg">
<g clip-path="url(#clip0_1_2242)">
<path d="M0 25.1485H2.41711V29.5585H0V25.1485ZM9.10341 13.8085C7.80591 13.1155 6.90603 13 4.7819 13H0V23.038H4.76098C6.6549 23.038 8.0675 22.9225 9.31268 22.093C10.673 21.19 11.374 19.6885 11.374 17.956C11.374 16.0765 10.5055 14.575 9.10341 13.8085ZM5.31555 20.938H2.41711V15.1525L5.14813 15.1315C7.63849 15.1 8.88367 15.982 8.88367 17.977C8.88367 20.119 7.34551 20.938 5.31555 20.938Z" fill="#7A7A7A"/>
<path d="M99.4575 17.3995L97.1555 23.9515C96.7369 25.1275 96.5276 25.7995 96.1405 26.9335H96.0986C95.7952 25.957 95.5127 25.1695 95.1255 24.0145L92.8967 17.389H90.218L94.8534 29.548C94.7488 29.8105 94.6442 30.0835 94.5291 30.367C94.1419 31.312 93.2211 31.9315 92.2061 31.9315H91.0551V34H92.2375C94.1524 34 95.8789 32.824 96.5904 31.039C98.0658 27.3325 100.577 21.022 102.011 17.3995H99.4575ZM35.1791 27.217C35.1791 31.6165 33.17 34 29.1101 34C26.0861 34 24.2654 32.404 23.6167 29.9995H26.0652C26.4837 31.1125 27.3627 32.11 29.152 32.11C31.9248 32.11 32.9084 30.3775 32.9084 27.0805C32.8875 27.0805 32.8875 27.0595 32.8666 27.0595C32.2701 28.099 30.9308 29.023 28.8067 29.023C25.3955 29.023 23.2295 26.545 23.2295 23.0695C23.2295 19.4575 25.5839 17.032 28.8381 17.032C30.9413 17.032 32.2074 17.935 32.898 18.9325C32.877 18.6805 32.877 18.4285 32.877 18.166V17.3995H35.1791V27.217ZM25.7617 23.0485C25.7617 25.411 27.0802 27.1015 29.3403 27.1015C31.3703 27.1015 32.9398 25.663 32.9398 22.9855C32.9398 20.602 31.5586 19.006 29.3403 19.006C27.122 19.006 25.7617 20.5915 25.7617 23.0485ZM38.9983 24.088C39.0925 26.2195 40.4528 27.91 42.8071 27.91C44.4708 27.91 45.2765 27.1225 45.8939 26.083H48.2273C47.5367 28.2775 45.6218 29.8525 42.7129 29.8525C38.9774 29.8525 36.644 27.3325 36.644 23.5315C36.644 19.7305 39.0611 17.053 42.7129 17.053C46.6577 17.053 48.4784 20.0665 48.4784 23.332V24.0985L38.9983 24.088ZM46.0508 22.24C45.8416 20.3185 44.6382 18.9535 42.6606 18.9535C40.7667 18.9535 39.3122 20.203 39.082 22.24H46.0508ZM52.2139 17.3995V18.9535C52.6011 17.8195 53.7835 17.095 55.1438 17.095C55.3426 17.095 55.5414 17.1055 55.7402 17.137V19.2685C55.4681 19.216 55.2065 19.195 54.9345 19.195C52.7371 19.195 52.329 20.812 52.329 23.248V29.548H49.9956V19.573C49.9956 18.8065 49.9956 18.1345 49.9747 17.3995H52.2139ZM79.702 27.8155C79.0742 28.855 77.9023 29.8525 75.8514 29.8525C73.0367 29.8525 71.6555 28.12 71.6555 24.97V17.3995H73.9784V24.088C73.9784 26.4715 74.7632 27.91 76.6571 27.91C79.1475 27.91 79.5869 25.642 79.5869 22.975V17.3995H81.9203V27.721C81.9203 28.351 81.9203 28.9495 81.9413 29.548H79.702V27.8155ZM87.1626 17.3995H89.4228V19.2055H87.1626V26.503C87.1626 27.658 87.7381 28.0045 88.638 28.0045C88.8264 28.0045 89.0252 27.9835 89.2135 27.9625V29.695C88.9205 29.7475 88.6171 29.779 88.3136 29.7895C86.1686 29.7895 84.8083 29.0755 84.8083 26.6395V19.2055H82.9772V17.3995H84.7979V14.113H87.1626V17.3995ZM57.1633 13H61.2022C67.2503 13.042 70.1592 16.003 70.1801 21.316C70.201 25.8415 67.8676 29.506 61.5999 29.5585H57.1633V13ZM59.6118 27.49H61.0244C65.4086 27.49 67.7002 25.81 67.7002 21.3055C67.6897 17.347 65.4191 15.079 61.2546 15.079C60.4489 15.079 59.6118 15.1 59.6118 15.1V27.49ZM19.8498 29.5585C19.7765 29.0755 19.7765 28.771 19.7347 27.889C18.8138 29.212 17.5896 29.7895 15.6538 29.7895C13.1111 29.7895 11.2695 28.54 11.2695 26.272C11.2695 23.6575 13.7599 22.7965 16.9932 22.3555C17.7989 22.24 18.6987 22.1455 19.4835 22.0825C19.4835 19.678 18.1546 18.9535 16.763 18.9535C15.3713 18.9535 14.3563 19.9405 14.3563 21.211H12.0962C12.0962 18.7435 14.0319 17.095 16.8048 17.095C19.5777 17.095 21.7332 18.25 21.7332 22.702V25.0645C21.7332 27.0385 21.8274 28.4665 22.0367 29.5795H19.8498V29.5585ZM13.7808 26.2405C13.7808 27.3745 14.7016 28.0885 16.177 28.0885C18.343 28.0885 19.5045 26.7655 19.5045 24.403C19.494 24.1825 19.5045 23.9725 19.5254 23.752C15.5806 24.1615 13.7808 24.55 13.7808 26.2405Z" fill="#7A7A7A"/>
</g>
<defs>
<clipPath id="clip0_1_2242">
<rect width="102" height="21" fill="white" transform="translate(0 13)"/>
</clipPath>
</defs>
</svg>
