<svg width="120" height="24" viewBox="0 0 120 24" fill="none" xmlns="http://www.w3.org/2000/svg">
<path d="M11.999 17.2752L7.84904 19.7752C7.66571 19.8919 7.47404 19.9419 7.27404 19.9252C7.07404 19.9085 6.89904 19.8419 6.74904 19.7252C6.59904 19.6085 6.48237 19.4627 6.39904 19.2877C6.31571 19.1127 6.29904 18.9169 6.34904 18.7002L7.44904 13.9752L3.77404 10.8002C3.60737 10.6502 3.50321 10.4794 3.46154 10.2877C3.41987 10.096 3.43237 9.90853 3.49904 9.72519C3.56571 9.54186 3.66571 9.39186 3.79904 9.2752C3.93237 9.15853 4.11571 9.08353 4.34904 9.0502L9.19904 8.6252L11.074 4.1752C11.1574 3.9752 11.2865 3.8252 11.4615 3.7252C11.6365 3.6252 11.8157 3.5752 11.999 3.5752C12.1824 3.5752 12.3615 3.6252 12.5365 3.7252C12.7115 3.8252 12.8407 3.9752 12.924 4.1752L14.799 8.6252L19.649 9.0502C19.8824 9.08353 20.0657 9.15853 20.199 9.2752C20.3324 9.39186 20.4324 9.54186 20.499 9.72519C20.5657 9.90853 20.5782 10.096 20.5365 10.2877C20.4949 10.4794 20.3907 10.6502 20.224 10.8002L16.549 13.9752L17.649 18.7002C17.699 18.9169 17.6824 19.1127 17.599 19.2877C17.5157 19.4627 17.399 19.6085 17.249 19.7252C17.099 19.8419 16.924 19.9085 16.724 19.9252C16.524 19.9419 16.3324 19.8919 16.149 19.7752L11.999 17.2752Z" fill="#F6BC2F"/>
<path d="M35.999 17.2752L31.849 19.7752C31.6657 19.8919 31.474 19.9419 31.274 19.9252C31.074 19.9085 30.899 19.8419 30.749 19.7252C30.599 19.6085 30.4824 19.4627 30.399 19.2877C30.3157 19.1127 30.299 18.9169 30.349 18.7002L31.449 13.9752L27.774 10.8002C27.6074 10.6502 27.5032 10.4794 27.4615 10.2877C27.4199 10.096 27.4324 9.90853 27.499 9.72519C27.5657 9.54186 27.6657 9.39186 27.799 9.2752C27.9324 9.15853 28.1157 9.08353 28.349 9.0502L33.199 8.6252L35.074 4.1752C35.1574 3.9752 35.2865 3.8252 35.4615 3.7252C35.6365 3.6252 35.8157 3.5752 35.999 3.5752C36.1824 3.5752 36.3615 3.6252 36.5365 3.7252C36.7115 3.8252 36.8407 3.9752 36.924 4.1752L38.799 8.6252L43.649 9.0502C43.8824 9.08353 44.0657 9.15853 44.199 9.2752C44.3324 9.39186 44.4324 9.54186 44.499 9.72519C44.5657 9.90853 44.5782 10.096 44.5365 10.2877C44.4949 10.4794 44.3907 10.6502 44.224 10.8002L40.549 13.9752L41.649 18.7002C41.699 18.9169 41.6824 19.1127 41.599 19.2877C41.5157 19.4627 41.399 19.6085 41.249 19.7252C41.099 19.8419 40.924 19.9085 40.724 19.9252C40.524 19.9419 40.3324 19.8919 40.149 19.7752L35.999 17.2752Z" fill="#F6BC2F"/>
<path d="M59.999 17.2752L55.849 19.7752C55.6657 19.8919 55.474 19.9419 55.274 19.9252C55.074 19.9085 54.899 19.8419 54.749 19.7252C54.599 19.6085 54.4824 19.4627 54.399 19.2877C54.3157 19.1127 54.299 18.9169 54.349 18.7002L55.449 13.9752L51.774 10.8002C51.6074 10.6502 51.5032 10.4794 51.4615 10.2877C51.4199 10.096 51.4324 9.90853 51.499 9.72519C51.5657 9.54186 51.6657 9.39186 51.799 9.2752C51.9324 9.15853 52.1157 9.08353 52.349 9.0502L57.199 8.6252L59.074 4.1752C59.1574 3.9752 59.2865 3.8252 59.4615 3.7252C59.6365 3.6252 59.8157 3.5752 59.999 3.5752C60.1824 3.5752 60.3615 3.6252 60.5365 3.7252C60.7115 3.8252 60.8407 3.9752 60.924 4.1752L62.799 8.6252L67.649 9.0502C67.8824 9.08353 68.0657 9.15853 68.199 9.2752C68.3324 9.39186 68.4324 9.54186 68.499 9.72519C68.5657 9.90853 68.5782 10.096 68.5365 10.2877C68.4949 10.4794 68.3907 10.6502 68.224 10.8002L64.549 13.9752L65.649 18.7002C65.699 18.9169 65.6824 19.1127 65.599 19.2877C65.5157 19.4627 65.399 19.6085 65.249 19.7252C65.099 19.8419 64.924 19.9085 64.724 19.9252C64.524 19.9419 64.3324 19.8919 64.149 19.7752L59.999 17.2752Z" fill="#F6BC2F"/>
<path d="M83.999 17.2752L79.849 19.7752C79.6657 19.8919 79.474 19.9419 79.274 19.9252C79.074 19.9085 78.899 19.8419 78.749 19.7252C78.599 19.6085 78.4824 19.4627 78.399 19.2877C78.3157 19.1127 78.299 18.9169 78.349 18.7002L79.449 13.9752L75.774 10.8002C75.6074 10.6502 75.5032 10.4794 75.4615 10.2877C75.4199 10.096 75.4324 9.90853 75.499 9.72519C75.5657 9.54186 75.6657 9.39186 75.799 9.2752C75.9324 9.15853 76.1157 9.08353 76.349 9.0502L81.199 8.6252L83.074 4.1752C83.1574 3.9752 83.2865 3.8252 83.4615 3.7252C83.6365 3.6252 83.8157 3.5752 83.999 3.5752C84.1824 3.5752 84.3615 3.6252 84.5365 3.7252C84.7115 3.8252 84.8407 3.9752 84.924 4.1752L86.799 8.6252L91.649 9.0502C91.8824 9.08353 92.0657 9.15853 92.199 9.2752C92.3324 9.39186 92.4324 9.54186 92.499 9.72519C92.5657 9.90853 92.5782 10.096 92.5365 10.2877C92.4949 10.4794 92.3907 10.6502 92.224 10.8002L88.549 13.9752L89.649 18.7002C89.699 18.9169 89.6824 19.1127 89.599 19.2877C89.5157 19.4627 89.399 19.6085 89.249 19.7252C89.099 19.8419 88.924 19.9085 88.724 19.9252C88.524 19.9419 88.3324 19.8919 88.149 19.7752L83.999 17.2752Z" fill="#F6BC2F"/>
<path d="M107.999 17.2752L103.849 19.7752C103.666 19.8919 103.474 19.9419 103.274 19.9252C103.074 19.9085 102.899 19.8419 102.749 19.7252C102.599 19.6085 102.482 19.4627 102.399 19.2877C102.316 19.1127 102.299 18.9169 102.349 18.7002L103.449 13.9752L99.774 10.8002C99.6074 10.6502 99.5032 10.4794 99.4615 10.2877C99.4199 10.096 99.4324 9.90853 99.499 9.72519C99.5657 9.54186 99.6657 9.39186 99.799 9.2752C99.9324 9.15853 100.116 9.08353 100.349 9.0502L105.199 8.6252L107.074 4.1752C107.157 3.9752 107.287 3.8252 107.462 3.7252C107.637 3.6252 107.816 3.5752 107.999 3.5752C108.182 3.5752 108.362 3.6252 108.537 3.7252C108.712 3.8252 108.841 3.9752 108.924 4.1752L110.799 8.6252L115.649 9.0502C115.882 9.08353 116.066 9.15853 116.199 9.2752C116.332 9.39186 116.432 9.54186 116.499 9.72519C116.566 9.90853 116.578 10.096 116.537 10.2877C116.495 10.4794 116.391 10.6502 116.224 10.8002L112.549 13.9752L113.649 18.7002C113.699 18.9169 113.682 19.1127 113.599 19.2877C113.516 19.4627 113.399 19.6085 113.249 19.7252C113.099 19.8419 112.924 19.9085 112.724 19.9252C112.524 19.9419 112.332 19.8919 112.149 19.7752L107.999 17.2752Z" fill="#DADAE0"/>
<path fill-rule="evenodd" clip-rule="evenodd" d="M108 3.5752C108 3.5752 107.999 3.5752 107.999 3.5752C107.816 3.5752 107.637 3.6252 107.462 3.7252C107.287 3.8252 107.157 3.9752 107.074 4.1752L105.199 8.6252L100.349 9.0502C100.116 9.08353 99.9324 9.15853 99.799 9.2752C99.6657 9.39186 99.5657 9.54186 99.499 9.72519C99.4324 9.90853 99.4199 10.096 99.4615 10.2877C99.5032 10.4794 99.6074 10.6502 99.774 10.8002L103.449 13.9752L102.349 18.7002C102.299 18.9169 102.316 19.1127 102.399 19.2877C102.482 19.4627 102.599 19.6085 102.749 19.7252C102.899 19.8419 103.074 19.9085 103.274 19.9252C103.474 19.9419 103.666 19.8919 103.849 19.7752L107.999 17.2752L108 17.2758V3.5752Z" fill="#F6BC2F"/>
</svg>
