<svg width="32" height="32" viewBox="0 0 32 32" fill="none" xmlns="http://www.w3.org/2000/svg">
<g id="rss-round-svgrepo-com 1" clip-path="url(#clip0_221_530)">
<path id="Vector" d="M16 0C7.1625 0 0 7.1625 0 16C0 24.8375 7.1625 32 16 32C24.8375 32 32 24.8375 32 16C32 7.1625 24.8375 0 16 0ZM11.6313 23.3563C11.2438 23.7438 10.7125 23.975 10.125 23.975C9.5375 23.975 9.0125 23.7375 8.625 23.3563C8.2375 22.9688 8 22.4437 8 21.8625C8 21.275 8.2375 20.75 8.625 20.3625C9.0125 19.975 9.5375 19.7375 10.125 19.7375C10.7125 19.7375 11.2437 19.975 11.625 20.3625C12.0125 20.75 12.25 21.275 12.25 21.8625C12.25 22.45 12.0125 22.975 11.6313 23.3563ZM15.4875 24C15.4812 21.9937 14.7063 20.1063 13.2937 18.6938C11.8812 17.2812 9.99375 16.4937 8 16.4937V13.4375C10.9125 13.4375 13.5437 14.625 15.4563 16.5375C17.3687 18.45 18.55 21.0875 18.5562 24H15.4875ZM20.9375 24C20.9312 16.8625 15.1375 11.0562 8.00625 11.0562V8C12.4188 8 16.4125 9.79375 19.3062 12.6938C22.2 15.5938 23.9937 19.5875 24 24H20.9375Z" fill="#ADADAD"/>
</g>
<defs>
<clipPath id="clip0_221_530">
<rect width="32" height="32" fill="white"/>
</clipPath>
</defs>
</svg>
