<svg width="116" height="64" viewBox="0 0 116 64" fill="none" xmlns="http://www.w3.org/2000/svg">
<g clip-path="url(#clip0_723_9940)">
<g clip-path="url(#clip1_723_9940)">
<path d="M26.0565 21.721C26.0345 21.562 25.8945 21.4738 25.7783 21.4642C25.663 21.4546 23.4041 21.4206 23.4041 21.4206C23.4041 21.4206 21.5149 19.6007 21.3283 19.4156C21.1417 19.2305 20.7772 19.2864 20.6355 19.3283C20.6337 19.3292 20.2807 19.4375 19.6865 19.62C19.587 19.3004 19.4409 18.9074 19.2322 18.5127C18.5597 17.2395 17.5746 16.5663 16.3844 16.5645C16.3826 16.5645 16.3817 16.5645 16.38 16.5645C16.2972 16.5645 16.2154 16.5724 16.1327 16.5794C16.0974 16.5374 16.0622 16.4964 16.0252 16.4562C15.5067 15.9061 14.8421 15.638 14.0454 15.6616C12.5084 15.7052 10.9775 16.8064 9.73625 18.7624C8.86296 20.1387 8.19831 21.8677 8.00993 23.2063C6.24488 23.7486 5.01067 24.1276 4.98338 24.1363C4.09249 24.414 4.06433 24.4411 3.94812 25.2742C3.86185 25.9037 1.53076 43.7841 1.53076 43.7841L21.066 47.1356L29.5328 45.0476C29.5328 45.0476 26.0785 21.8799 26.0565 21.721ZM18.7085 19.9203C18.2586 20.0583 17.7471 20.2155 17.1925 20.3858C17.1811 19.6138 17.0887 18.5398 16.726 17.6115C17.8924 17.8307 18.4663 19.1397 18.7085 19.9203ZM16.1705 20.7001C15.1467 21.0145 14.0295 21.3577 12.9089 21.7018C13.224 20.5045 13.8218 19.3126 14.556 18.531C14.8289 18.2402 15.2109 17.9163 15.6634 17.7311C16.0886 18.6114 16.181 19.8575 16.1705 20.7001ZM14.0762 16.6763C14.4371 16.6684 14.7408 16.747 15.0006 16.9164C14.585 17.1304 14.1836 17.4377 13.8068 17.8386C12.8305 18.8777 12.0823 20.4906 11.7838 22.0467C10.8533 22.3322 9.94308 22.6126 9.10502 22.8693C9.63413 20.4198 11.7037 16.7444 14.0762 16.6763Z" fill="#9D9FAF"/>
<path d="M25.7783 21.4651C25.663 21.4555 23.4041 21.4215 23.4041 21.4215C23.4041 21.4215 21.5149 19.6016 21.3283 19.4165C21.2587 19.3475 21.1645 19.3117 21.0659 19.2969L21.0668 47.1347L29.5329 45.0477C29.5329 45.0477 26.0785 21.8808 26.0565 21.7218C26.0344 21.5629 25.8936 21.4747 25.7783 21.4651Z" fill="#67697D"/>
<path d="M16.3725 25.7837L15.3892 29.4329C15.3892 29.4329 14.2923 28.9378 12.9921 29.019C11.0853 29.1387 11.065 30.3315 11.0845 30.631C11.1883 32.2631 15.5168 32.6194 15.7598 36.4424C15.9509 39.4498 14.1514 41.5071 11.5589 41.6695C8.44699 41.8643 6.73389 40.0436 6.73389 40.0436L7.39326 37.2615C7.39326 37.2615 9.11778 38.5521 10.4981 38.4657C11.3996 38.4089 11.7218 37.6815 11.6892 37.1671C11.5536 35.0382 8.02883 35.1639 7.80613 31.6658C7.6186 28.7221 9.56767 25.7392 13.868 25.4702C15.5248 25.3645 16.3725 25.7837 16.3725 25.7837Z" fill="white"/>
<path d="M40.6858 33.4242C39.7123 32.9002 39.212 32.4585 39.212 31.8513C39.212 31.0787 39.907 30.5824 40.9923 30.5824C42.2557 30.5824 43.3838 31.1064 43.3838 31.1064L44.2735 28.4024C44.2735 28.4024 43.4554 27.7676 41.0473 27.7676C37.6962 27.7676 35.3736 29.6713 35.3736 32.3476C35.3736 33.865 36.4581 35.0239 37.9049 35.851C39.0731 36.5127 39.4905 36.9822 39.4905 37.6716C39.4905 38.3887 38.9064 38.9682 37.8219 38.9682C36.2057 38.9682 34.6795 38.1401 34.6795 38.1401L33.7339 40.8441C33.7339 40.8441 35.144 41.7822 37.5163 41.7822C40.9652 41.7822 43.4406 40.0993 43.4406 37.0644C43.4397 35.4379 42.1885 34.279 40.6858 33.4242Z" fill="#67697D"/>
<path d="M54.4176 27.7416C52.721 27.7416 51.386 28.542 50.3574 29.7554L50.3015 29.7276L51.7753 22.0859H47.937L44.2104 41.5354H48.0488L49.3279 34.8871C49.8282 32.3762 51.1353 30.832 52.3595 30.832C53.2213 30.832 53.5557 31.4114 53.5557 32.2394C53.5557 32.7634 53.4998 33.3983 53.3889 33.9223L51.943 41.5363H55.7815L57.2829 33.6737C57.45 32.8457 57.5616 31.8531 57.5616 31.1905C57.56 29.0382 56.4198 27.7416 54.4176 27.7416Z" fill="#67697D"/>
<path d="M66.2377 27.7412C61.6203 27.7412 58.562 31.8795 58.562 36.4864C58.562 39.4381 60.3971 41.8104 63.8463 41.8104C68.3795 41.8104 71.4389 37.783 71.4389 33.0652C71.4389 30.3344 69.8254 27.7412 66.2377 27.7412ZM64.3465 38.8872C63.0392 38.8872 62.4829 37.7838 62.4829 36.4041C62.4829 34.2249 63.6236 30.6661 65.7094 30.6661C67.0722 30.6661 67.5165 31.8249 67.5165 32.9561C67.5165 35.3007 66.3773 38.8872 64.3465 38.8872Z" fill="#67697D"/>
<path d="M81.258 27.7412C78.6672 27.7412 77.197 30.0035 77.197 30.0035H77.142L77.3646 27.9621H73.9716C73.805 29.3418 73.4982 31.4378 73.1931 33.0107L70.5229 46.9421H74.3613L75.4174 41.3141H75.5015C75.5015 41.3141 76.289 41.8104 77.7544 41.8104C82.2597 41.8104 85.2074 37.2313 85.2074 32.5958C85.2074 30.0313 84.0667 27.7412 81.258 27.7412ZM77.5868 38.9418C76.5904 38.9418 76.0007 38.3901 76.0007 38.3901L76.6407 34.8313C77.0859 32.459 78.3372 30.8861 79.6725 30.8861C80.8408 30.8861 81.202 31.9618 81.202 32.983C81.202 35.4384 79.7281 38.9418 77.5868 38.9418Z" fill="#67697D"/>
<path d="M90.6885 22.2783C89.4653 22.2783 88.4917 23.244 88.4917 24.4852C88.4917 25.6163 89.2146 26.3889 90.2993 26.3889H90.3548C91.5511 26.3889 92.5797 25.5886 92.6077 24.1821C92.6077 23.0786 91.8567 22.2783 90.6885 22.2783Z" fill="#67697D"/>
<path d="M85.3159 41.5347H89.1532L91.7684 28.0449H87.902L85.3159 41.5347Z" fill="#67697D"/>
<path d="M101.539 28.018H98.8684L99.007 27.3831C99.2296 26.0865 100.009 24.9277 101.288 24.9277C101.971 24.9277 102.511 25.1208 102.511 25.1208L103.262 22.1414C103.262 22.1414 102.595 21.8105 101.176 21.8105C99.8129 21.8105 98.4512 22.1968 97.4215 23.0794C96.1142 24.1828 95.5023 25.7825 95.1966 27.3831L95.0861 28.018H93.3055L92.7491 30.8874H94.5298L92.4995 41.5363H96.3379L98.3681 30.8874H101.01L101.539 28.018Z" fill="#67697D"/>
<path d="M110.774 28.0458C110.774 28.0458 108.375 34.0419 107.298 37.315H107.242C107.169 36.2609 106.296 28.0458 106.296 28.0458H102.263L104.573 40.4321C104.629 40.7075 104.601 40.8738 104.489 41.0669C104.043 41.9218 103.293 42.7498 102.403 43.357C101.68 43.8809 100.873 44.2118 100.234 44.4326L101.291 47.6607C102.07 47.4953 103.682 46.8604 105.045 45.5915C106.797 43.9641 108.41 41.4532 110.078 38.0321L114.779 28.0449H110.774V28.0458Z" fill="#67697D"/>
</g>
</g>
<defs>
<clipPath id="clip0_723_9940">
<rect width="114.383" height="64" fill="white" transform="translate(0.851074)"/>
</clipPath>
<clipPath id="clip1_723_9940">
<rect width="113.702" height="32" fill="white" transform="translate(1.53076 15.6602)"/>
</clipPath>
</defs>
</svg>
