<svg width="115" height="64" viewBox="0 0 115 64" fill="none" xmlns="http://www.w3.org/2000/svg">
<g clip-path="url(#clip0_723_9953)">
<g clip-path="url(#clip1_723_9953)">
<path d="M63.0825 22.2187C64.0041 20.6224 65.8603 19.7809 67.6585 19.7649C69.2994 19.6589 71.1556 19.9319 72.3052 21.2294C71.7207 22.0003 71.162 22.7872 70.5775 23.558C69.9256 22.8096 69.3894 21.7561 68.3361 21.5441C67.2988 21.2229 65.9951 21.7625 65.7253 22.8738C65.2886 24.6371 65.5519 26.4806 65.4876 28.2793H68.8563V30.2867H65.4844C65.4844 33.3123 65.4844 36.3377 65.4812 39.3633C65.4684 40.2208 65.6065 41.0687 65.767 41.9102C66.5377 42.2667 67.3695 42.4497 68.2204 42.4658C68.2172 42.6746 68.214 43.0953 68.2108 43.3073C65.4556 43.1274 62.697 43.0728 59.9449 43.3041C59.9449 43.1274 59.9514 42.7741 59.9514 42.5975C60.8216 42.4433 61.9006 42.0386 61.9359 40.9916C62.2731 37.4362 62.0451 33.855 62.1125 30.2868C61.4414 30.2868 60.7702 30.2868 60.099 30.2836C60.1022 29.9817 60.1086 29.6765 60.1119 29.3746C60.7927 29.0599 61.4574 28.7098 62.1124 28.35C62.1124 26.288 61.9904 24.059 63.0822 22.2188L63.0825 22.2187Z" fill="#67697D"/>
<path d="M112.75 19.7617C110.967 20.1728 109.163 20.5196 107.332 20.5999C107.313 20.7669 107.277 21.1008 107.261 21.2679C107.942 21.4734 109.053 21.4191 109.102 22.3698C109.374 24.2969 109.182 26.2525 109.236 28.1924C106.613 27.7428 103.681 27.7717 101.449 29.4065C99.0054 31.1184 98.1672 34.3111 98.4113 37.1568C98.5494 39.3633 99.654 41.6277 101.655 42.7035C104.037 44.0139 107.085 43.7442 109.317 42.2346C109.333 42.681 109.342 43.1274 109.346 43.5739C111.073 43.1339 112.84 42.8865 114.616 42.7837V42.0128C112.099 41.5841 112.795 40.4191 112.618 38.4383C112.621 32.2139 112.525 25.9862 112.75 19.7621L112.75 19.7617ZM106.22 29.7993C107.283 29.7881 108.364 30.1277 109.236 30.7202C109.24 34.0701 109.23 37.4199 109.243 40.7698C107.374 41.6273 104.847 41.5663 103.382 39.9796C102.127 38.6371 101.915 36.6715 102.027 34.9178C102.152 33.3216 102.487 31.4973 103.88 30.5079C104.578 30.0288 105.394 29.8079 106.22 29.7991L106.22 29.7993Z" fill="#67697D"/>
<path d="M6.81687 21.8079C8.93308 21.6794 11.0557 21.8175 13.1495 22.113C13.0243 23.6032 13.0371 25.1032 13.1527 26.5934C12.9504 26.5934 12.5458 26.5966 12.3435 26.5966C12.1829 25.6652 12.0159 24.5346 11.0236 24.1203C9.55288 23.5004 7.83156 23.4394 6.30622 23.8826C4.31206 24.4736 3.98447 27.4091 5.46809 28.6907C7.32422 30.3158 9.59783 31.379 11.4989 32.9559C14.4757 35.3262 14.0871 40.8441 10.5548 42.5046C7.58121 43.8792 4.09049 43.5324 1.02046 42.6684C1.03965 41.1918 0.985111 39.7153 0.917603 38.2405C1.13917 38.2373 1.58554 38.2277 1.81033 38.2245C1.96768 39.1527 2.11218 40.2929 3.05309 40.7714C4.73579 41.7157 6.90657 41.7927 8.65361 40.9801C10.8341 39.7757 10.4326 36.2941 8.39349 35.1218C6.62407 33.759 4.59135 32.7515 2.95676 31.2128C1.14559 29.5298 0.920854 26.5813 2.08662 24.4775C3.04026 22.8009 4.96389 21.9628 6.81682 21.8086L6.81687 21.8079Z" fill="#67697D"/>
<path d="M19.3733 24.9648C19.5403 24.9745 19.8775 24.9905 20.0445 25.0002C20.0413 26.1211 20.0413 27.2388 20.0413 28.3598H25.1794V30.2869H20.0413C20.0605 32.9849 19.9995 35.686 20.0702 38.3871C20.1408 39.4149 20.1697 40.6965 21.1299 41.326C22.3406 42.0454 23.7888 41.5958 24.9995 41.1236C25.3721 42.0358 24.4247 42.5465 23.7664 42.9255C22.2218 43.6739 20.3368 43.7541 18.7408 43.1311C17.376 42.6204 16.7177 41.127 16.647 39.7587C16.4832 36.6046 16.647 33.4444 16.6726 30.2871H14.6655C14.6623 30.0752 14.6591 29.8664 14.6559 29.6576C16.8364 28.8354 18.307 26.9565 19.3733 24.9652L19.3733 24.9648Z" fill="#67697D"/>
<path d="M33.1313 27.85C30.8161 27.8262 28.4812 28.9763 27.7374 31.3014C27.9397 31.4171 28.3507 31.645 28.5562 31.7607C29.4457 30.1901 31.5234 29.384 33.161 30.2898C34.4455 30.8743 34.5549 32.4447 34.5292 33.675C32.5093 34.3238 30.4187 34.8345 28.5112 35.7853C26.2248 36.993 25.9294 40.4166 27.5671 42.2698C29.4972 44.0395 32.718 43.7536 34.6255 42.0802C35.2067 43.23 36.5811 43.6701 37.7788 43.3329C38.8225 43.1305 39.5129 42.2602 40.1969 41.5246C40.0781 41.3897 39.8374 41.1166 39.7186 40.9785C39.2883 41.0877 38.8033 41.4282 38.3826 41.0973C37.8367 40.7216 37.904 39.9668 37.8655 39.3855C37.904 36.8931 38.0421 34.3946 37.9104 31.899C37.8462 30.6079 37.2682 29.2876 36.125 28.6099C35.2319 28.1141 34.1837 27.8608 33.1313 27.85ZM34.4937 35.6213C34.5065 37.301 34.4938 38.9807 34.5067 40.6605C33.4309 41.1391 32.1528 41.5823 31.0192 41.0331C29.6319 40.2944 29.6898 38.0848 30.8363 37.1566C31.9377 36.3986 33.2444 36.042 34.4937 35.6213Z" fill="#67697D"/>
<path d="M77.3829 27.913C75.6906 27.9323 73.9435 28.353 72.6204 29.4547C70.6518 31.0477 69.7978 33.6814 69.8845 36.1544C69.8749 38.2709 70.5332 40.5289 72.1999 41.9358C74.1685 43.6509 77.0296 43.821 79.4798 43.3103C82.0648 42.7419 84.0076 40.4776 84.5567 37.9403C85.1476 35.3066 84.9003 32.2459 83.0892 30.1197C81.6955 28.4882 79.4638 27.8713 77.3829 27.913ZM77.4054 29.7106C78.3149 29.7283 79.2148 30.1019 79.7977 30.8261C80.8542 32.1205 81.1368 33.8613 81.2139 35.4864C81.2268 37.2561 81.0019 39.1669 79.8876 40.6122C78.7926 42.0286 76.4324 42.186 75.1704 40.9109C74.2038 40.0148 73.844 38.682 73.6256 37.4294C73.3976 35.7657 73.4556 34.0344 73.979 32.4317C74.3451 31.359 75.0579 30.2734 76.1883 29.9072C76.5767 29.7677 76.9921 29.7023 77.4055 29.7104L77.4054 29.7106Z" fill="#67697D"/>
<path d="M41.3963 28.9347C43.1914 28.9058 45.0122 28.7195 46.6692 27.9776C46.727 28.4048 46.772 28.8319 46.8073 29.2655C48.7115 28.0194 51.1713 27.5344 53.3519 28.3052C54.9125 28.8287 56.0044 30.3576 56.1424 31.9763C56.4636 35.0564 55.9979 38.1783 56.409 41.252C56.4539 42.2188 57.4944 42.4372 58.2491 42.5946C58.2523 42.7744 58.2523 43.1342 58.2555 43.314C55.7058 43.1117 50.5999 43.3044 50.5999 43.3044L50.5903 42.5761C50.5903 42.5761 52.432 42.0582 52.5491 41.5282C52.9697 39.2415 52.8702 36.8776 52.8477 34.5555C52.7642 33.168 52.7995 31.4336 51.4733 30.5889C50.0507 29.7699 48.307 30.1489 46.8523 30.6788C46.862 33.685 46.8523 36.6944 46.8523 39.7008C46.8941 40.5037 46.8363 41.4191 47.3597 42.0871C47.7997 42.3922 48.352 42.4468 48.8562 42.5881C48.8594 42.768 48.8626 43.1309 48.8626 43.314C46.3481 43.1502 43.8274 43.0442 41.316 43.3108C41.316 43.1309 41.3225 42.7744 41.3225 42.5978C42.0868 42.4211 43.0951 42.1802 43.2395 41.2552C43.5896 39.0392 43.3198 36.7748 43.4033 34.5394C43.3712 33.2643 43.5125 31.9731 43.2877 30.714C43.1111 29.8533 42.061 29.9015 41.3994 29.7312C41.3994 29.5321 41.3963 29.1339 41.3963 28.9347Z" fill="#67697D"/>
<path d="M86.2773 28.8662C88.0757 28.8405 89.8739 28.5964 91.5824 28.0215L91.6306 29.3447C93.3583 27.954 95.9627 27.6007 97.8026 28.9786L95.884 31.9075C94.988 30.5264 93.1705 30.1924 91.7351 30.8958C91.7351 30.8958 91.7254 36.9757 91.7447 40.0141C91.8185 40.6918 91.7126 41.5718 92.3484 42.015C92.9618 42.3747 93.7068 42.3554 94.3907 42.4646C94.3907 42.6734 94.3875 43.0973 94.3875 43.3061C91.6291 43.1198 88.8641 43.0813 86.1056 43.2997L86.1051 42.4646C86.9943 42.313 87.92 42.0053 88.0548 41.4754C88.437 40.1682 88.2507 38.7838 88.2893 37.4381C88.2507 35.2957 88.3663 33.1502 88.2379 31.0113C88.2283 29.9707 87.0497 29.8775 86.2855 29.7266C86.2867 29.4316 86.2803 29.1287 86.2791 28.8658L86.2773 28.8662Z" fill="#67697D"/>
</g>
</g>
<defs>
<clipPath id="clip0_723_9953">
<rect width="114.383" height="64" fill="white" transform="translate(0.234009)"/>
</clipPath>
<clipPath id="clip1_723_9953">
<rect width="113.702" height="23.8298" fill="white" transform="translate(0.913696 19.7441)"/>
</clipPath>
</defs>
</svg>
