<svg width="24" height="24" viewBox="0 0 24 24" fill="none" xmlns="http://www.w3.org/2000/svg">
<path d="M12 18.5022L7.83212 21.0141C7.62089 21.1467 7.40132 21.2037 7.17342 21.185C6.94552 21.1664 6.74661 21.0908 6.57667 20.9581C6.40674 20.8255 6.27513 20.6588 6.18185 20.4579C6.08855 20.257 6.07088 20.0342 6.12885 19.7897L7.23482 15.0467L3.5419 11.8538C3.35131 11.6839 3.2322 11.4901 3.18455 11.2725C3.1369 11.055 3.14841 10.8426 3.21907 10.6353C3.28972 10.4281 3.40466 10.2561 3.5639 10.1195C3.72315 9.98296 3.93338 9.898 4.1946 9.86467L9.06255 9.43967L10.9495 4.96574C11.0448 4.73386 11.1909 4.56194 11.3878 4.44999C11.5847 4.33803 11.7888 4.28204 12 4.28204C12.2113 4.28204 12.4154 4.33803 12.6123 4.44999C12.8092 4.56194 12.9553 4.73386 13.0506 4.96574L14.9375 9.43967L19.8055 9.86467C20.0667 9.898 20.2769 9.98296 20.4362 10.1195C20.5954 10.2561 20.7104 10.4281 20.781 10.6353C20.8517 10.8426 20.8632 11.055 20.8155 11.2725C20.7679 11.4901 20.6488 11.6839 20.4582 11.8538L16.7653 15.0467L17.8712 19.7897C17.9292 20.0342 17.9115 20.257 17.8182 20.4579C17.725 20.6588 17.5934 20.8255 17.4234 20.9581C17.2535 21.0908 17.0546 21.1664 16.8267 21.185C16.5988 21.2037 16.3792 21.1467 16.168 21.0141L12 18.5022Z" fill="#FFCC00"/>
</svg>
