<svg width="44" height="44" viewBox="0 0 44 44" fill="none" xmlns="http://www.w3.org/2000/svg">
<rect x="1" y="1" width="42" height="42" rx="21" fill="black"/>
<path d="M15.0001 25.15V18C15.0001 16.9 15.3918 15.9583 16.1751 15.175C16.9584 14.3917 17.9001 14 19.0001 14C20.1001 14 21.0418 14.3917 21.8251 15.175C22.6084 15.9583 23.0001 16.9 23.0001 18V25C23.0001 25.55 23.1959 26.0208 23.5876 26.4125C23.9793 26.8042 24.4501 27 25.0001 27C25.5501 27 26.0209 26.8042 26.4126 26.4125C26.8043 26.0208 27.0001 25.55 27.0001 25V17.85L26.1251 18.725C25.9251 18.925 25.6876 19.0208 25.4126 19.0125C25.1376 19.0042 24.9001 18.9 24.7001 18.7C24.5168 18.5 24.4209 18.2667 24.4126 18C24.4043 17.7333 24.5001 17.5 24.7001 17.3L27.3001 14.7C27.4001 14.6 27.5084 14.5292 27.6251 14.4875C27.7418 14.4458 27.8668 14.425 28.0001 14.425C28.1334 14.425 28.2584 14.4458 28.3751 14.4875C28.4918 14.5292 28.6001 14.6 28.7001 14.7L31.3001 17.3C31.5001 17.5 31.5959 17.7333 31.5876 18C31.5793 18.2667 31.4834 18.5 31.3001 18.7C31.1001 18.9 30.8626 19.0042 30.5876 19.0125C30.3126 19.0208 30.0751 18.925 29.8751 18.725L29.0001 17.85V25C29.0001 26.1 28.6084 27.0417 27.8251 27.825C27.0418 28.6083 26.1001 29 25.0001 29C23.9001 29 22.9584 28.6083 22.1751 27.825C21.3918 27.0417 21.0001 26.1 21.0001 25V18C21.0001 17.45 20.8043 16.9792 20.4126 16.5875C20.0209 16.1958 19.5501 16 19.0001 16C18.4501 16 17.9793 16.1958 17.5876 16.5875C17.1959 16.9792 17.0001 17.45 17.0001 18V25.15L17.8751 24.275C18.0751 24.075 18.3126 23.9792 18.5876 23.9875C18.8626 23.9958 19.1001 24.1 19.3001 24.3C19.4834 24.5 19.5793 24.7333 19.5876 25C19.5959 25.2667 19.5001 25.5 19.3001 25.7L16.7001 28.3C16.6001 28.4 16.4918 28.4708 16.3751 28.5125C16.2584 28.5542 16.1334 28.575 16.0001 28.575C15.8668 28.575 15.7418 28.5542 15.6251 28.5125C15.5084 28.4708 15.4001 28.4 15.3001 28.3L12.7001 25.7C12.5001 25.5 12.4043 25.2667 12.4126 25C12.4209 24.7333 12.5168 24.5 12.7001 24.3C12.9001 24.1 13.1376 23.9958 13.4126 23.9875C13.6876 23.9792 13.9251 24.075 14.1251 24.275L15.0001 25.15Z" fill="white"/>
<rect x="1" y="1" width="42" height="42" rx="21" stroke="white" stroke-width="2"/>
</svg>
