<svg width="32" height="32" viewBox="0 0 32 32" fill="none" xmlns="http://www.w3.org/2000/svg">
<g id="twitter-round-svgrepo-com 1" clip-path="url(#clip0_221_528)">
<path id="Vector" d="M16 0C7.1625 0 0 7.1625 0 16C0 24.8375 7.1625 32 16 32C24.8375 32 32 24.8375 32 16C32 7.1625 24.8375 0 16 0ZM22.3875 13.5125C22.3938 13.65 22.3937 13.7937 22.3937 13.9375C22.3937 18.2812 19.0875 23.2938 13.0375 23.2938C11.1813 23.2938 9.45 22.75 8 21.8188C8.25625 21.85 8.51875 21.8625 8.7875 21.8625C10.325 21.8625 11.7437 21.3375 12.8687 20.4562C11.4312 20.4312 10.2125 19.4812 9.8 18.175C10 18.2125 10.2063 18.2313 10.4187 18.2313C10.7188 18.2313 11.0125 18.1937 11.2875 18.1125C9.78125 17.8125 8.65 16.4813 8.65 14.8875V14.85C9.09375 15.0938 9.6 15.2438 10.1375 15.2625C9.25625 14.675 8.675 13.6625 8.675 12.525C8.675 11.925 8.8375 11.3562 9.11875 10.8687C10.7437 12.8625 13.1625 14.1687 15.8938 14.3062C15.8375 14.0687 15.8062 13.8187 15.8062 13.5562C15.8062 11.7437 17.2812 10.2687 19.0938 10.2687C20.0375 10.2687 20.8937 10.6687 21.4937 11.3062C22.2437 11.1562 22.9437 10.8875 23.5812 10.5063C23.3375 11.275 22.8125 11.9188 22.1375 12.325C22.8 12.2438 23.4375 12.0687 24.025 11.8062C23.5875 12.4688 23.0312 13.0438 22.3875 13.5125Z" fill="#ADADAD"/>
</g>
<defs>
<clipPath id="clip0_221_528">
<rect width="32" height="32" fill="white"/>
</clipPath>
</defs>
</svg>
