<svg width="24" height="25" viewBox="0 0 24 25" fill="none" xmlns="http://www.w3.org/2000/svg">
<path d="M11.7478 18.7749C10.0601 18.7036 8.63435 18.065 7.47058 16.8592C6.30681 15.6534 5.72493 14.2003 5.72493 12.4999C5.72493 10.7569 6.335 9.27528 7.55513 8.05513C8.77528 6.835 10.2569 6.22493 11.9999 6.22493C13.6988 6.22493 15.1526 6.8078 16.3611 7.97355C17.5696 9.13932 18.2075 10.566 18.2749 12.2537L15.9896 11.5749C15.7729 10.651 15.2973 9.89259 14.5626 9.29965C13.828 8.70672 12.9738 8.41025 11.9999 8.41025C10.8753 8.41025 9.91249 8.81099 9.1116 9.61245C8.3107 10.4139 7.91025 11.3774 7.91025 12.5028C7.91025 13.4748 8.20558 14.3269 8.79623 15.0592C9.38688 15.7914 10.1445 16.2682 11.069 16.4896L11.7478 18.7749ZM11.9999 22.8646C10.566 22.8646 9.21851 22.5931 7.95738 22.0502C6.69625 21.5073 5.59875 20.7689 4.66488 19.835C3.731 18.9011 2.99258 17.8035 2.44963 16.542C1.90671 15.2806 1.63525 13.9328 1.63525 12.4986C1.63525 11.0643 1.90672 9.71695 2.44965 8.45645C2.99259 7.19594 3.731 6.09875 4.66488 5.16488C5.59875 4.231 6.6964 3.49259 7.95783 2.94965C9.21926 2.40672 10.5671 2.13525 12.0013 2.13525C13.4355 2.13525 14.7829 2.40672 16.0434 2.94965C17.3039 3.49259 18.4011 4.231 19.335 5.16488C20.2689 6.09875 21.0073 7.19624 21.5502 8.45738C22.0931 9.71851 22.3646 11.066 22.3646 12.4999V12.9918C22.3646 13.1557 22.3479 13.3197 22.3146 13.4836L20.1853 12.8278V12.4999C20.1853 10.2188 19.3913 8.28425 17.8035 6.6964C16.2156 5.10854 14.2811 4.3146 11.9999 4.3146C9.71876 4.3146 7.78425 5.10854 6.1964 6.6964C4.60854 8.28425 3.8146 10.2188 3.8146 12.4999C3.8146 14.7811 4.60854 16.7156 6.1964 18.3035C7.78425 19.8913 9.71876 20.6853 11.9999 20.6853H12.3239L12.9717 22.8146C12.811 22.8479 12.6504 22.8646 12.4898 22.8646H11.9999ZM20.2168 22.7815L16.2978 18.8624L15.6135 20.9282C15.5169 21.1974 15.3333 21.3278 15.0628 21.3195C14.7923 21.3112 14.6113 21.1724 14.52 20.9032L12.3108 13.5255C12.2402 13.3142 12.2888 13.1247 12.4567 12.9567C12.6247 12.7888 12.8142 12.7402 13.0255 12.8108L20.4032 15.02C20.6724 15.1113 20.8112 15.2923 20.8195 15.5628C20.8278 15.8333 20.6974 16.0169 20.4282 16.1135L18.3624 16.7978L22.2815 20.7168C22.3974 20.8309 22.4554 20.9641 22.4554 21.1162C22.4554 21.2684 22.3974 21.4025 22.2815 21.5184L21.0184 22.7815C20.9043 22.8974 20.7711 22.9554 20.619 22.9554C20.4668 22.9554 20.3327 22.8974 20.2168 22.7815Z" fill="#7232FA"/>
</svg>
