<?xml version="1.0" standalone="no"?>
<!DOCTYPE svg PUBLIC "-//W3C//DTD SVG 20010904//EN"
 "http://www.w3.org/TR/2001/REC-SVG-20010904/DTD/svg10.dtd">
<svg version="1.0" xmlns="http://www.w3.org/2000/svg"
 width="65.000000pt" height="65.000000pt" viewBox="0 0 65.000000 65.000000"
 preserveAspectRatio="xMidYMid meet">

<g transform="translate(0.000000,65.000000) scale(0.100000,-0.100000)"
fill="#000000" stroke="none">
<path d="M208 627 c-131 -37 -218 -180 -188 -308 17 -69 66 -138 124 -174 44
-27 58 -30 130 -30 65 0 90 5 125 23 l44 23 77 -76 c51 -49 83 -73 93 -69 36
14 26 37 -48 114 l-76 77 22 44 c27 51 36 137 20 196 -35 131 -190 217 -323
180z m128 -62 c160 -47 194 -262 56 -359 -109 -77 -269 -21 -307 107 -38 128
51 253 191 266 6 1 33 -6 60 -14z"/>
</g>
</svg>
