<?xml version="1.0" standalone="no"?>
<!DOCTYPE svg PUBLIC "-//W3C//DTD SVG 20010904//EN"
 "http://www.w3.org/TR/2001/REC-SVG-20010904/DTD/svg10.dtd">
<svg version="1.0" xmlns="http://www.w3.org/2000/svg"
 width="55.000000pt" height="69.000000pt" viewBox="0 0 55.000000 69.000000"
 preserveAspectRatio="xMidYMid meet">

<g transform="translate(0.000000,69.000000) scale(0.100000,-0.100000)"
fill="#000000" stroke="none">
<path d="M210 662 c-55 -27 -83 -77 -78 -138 7 -85 60 -134 143 -134 87 0 145
60 145 148 0 72 -71 142 -145 142 -16 0 -46 -8 -65 -18z m119 -68 c61 -51 26
-144 -54 -144 -80 0 -115 93 -54 144 17 14 41 26 54 26 13 0 37 -12 54 -26z"/>
<path d="M164 326 c-82 -38 -154 -142 -154 -223 0 -96 402 -123 512 -34 21 17
21 21 9 75 -37 164 -215 253 -367 182z m223 -69 c37 -26 73 -76 87 -124 11
-34 -72 -58 -199 -58 -127 0 -210 24 -199 58 20 65 64 118 119 143 49 23 145
13 192 -19z"/>
</g>
</svg>
