<svg width="24" height="25" viewBox="0 0 24 25" fill="none" xmlns="http://www.w3.org/2000/svg">
<path d="M12.9998 17.7712C13.7331 17.4212 14.4706 17.1587 15.2123 16.9837C15.9539 16.8087 16.7164 16.7212 17.4998 16.7212C18.0998 16.7212 18.6873 16.7712 19.2623 16.8712C19.8373 16.9712 20.4164 17.1212 20.9998 17.3212V7.42121C20.4498 7.18788 19.8789 7.01288 19.2873 6.89621C18.6956 6.77955 18.0998 6.72121 17.4998 6.72121C16.7164 6.72121 15.9414 6.82121 15.1748 7.02121C14.4081 7.22121 13.6831 7.52121 12.9998 7.92121V17.7712ZM12.0177 20.3995C11.7804 20.3995 11.5516 20.3703 11.3313 20.312C11.111 20.2537 10.9072 20.1705 10.7199 20.0625C10.0739 19.6832 9.39514 19.3947 8.6837 19.197C7.97227 18.9994 7.24429 18.9006 6.49978 18.9006C5.81339 18.9006 5.13926 18.9932 4.47738 19.1786C3.81549 19.3639 3.18021 19.6192 2.57153 19.9446C2.16573 20.1558 1.77143 20.1462 1.38863 19.9156C1.00584 19.6851 0.814453 19.3489 0.814453 18.9071V6.86306C0.814453 6.62393 0.871245 6.39871 0.984828 6.18741C1.09841 5.9761 1.26879 5.81761 1.49598 5.71196C2.28329 5.32863 3.09275 5.03679 3.92435 4.83644C4.75597 4.63607 5.60858 4.53589 6.48218 4.53589C7.45659 4.53589 8.40829 4.66089 9.33728 4.91089C10.2663 5.16089 11.1538 5.54186 11.9998 6.05381C12.8498 5.54585 13.7383 5.16586 14.6653 4.91386C15.5923 4.66188 16.543 4.53589 17.5174 4.53589C18.391 4.53589 19.2436 4.63607 20.0752 4.83644C20.9068 5.03679 21.7163 5.32863 22.5036 5.71196C22.7308 5.81761 22.9011 5.9761 23.0147 6.18741C23.1283 6.39871 23.1851 6.62393 23.1851 6.86306V18.9968C23.1851 19.4239 22.9947 19.7425 22.6139 19.9525C22.2331 20.1624 21.8378 20.1598 21.428 19.9446C20.8193 19.6192 20.1841 19.3639 19.5222 19.1786C18.8603 18.9932 18.1862 18.9006 17.4998 18.9006C16.7577 18.9006 16.0354 19.0004 15.3327 19.2C14.6299 19.3997 13.9576 19.6872 13.3155 20.0625C13.1282 20.1705 12.9244 20.2537 12.7041 20.312C12.4838 20.3703 12.255 20.3995 12.0177 20.3995Z" fill="#7232FA"/>
</svg>
