<svg width="64" height="64" viewBox="0 0 64 64" fill="none" xmlns="http://www.w3.org/2000/svg">
<path d="M28.5527 34.242L24.9671 30.7232C24.4145 30.1705 23.7845 29.8942 23.0773 29.8942C22.37 29.8942 21.7401 30.1705 21.1874 30.7232C20.6348 31.2759 20.3611 31.9169 20.3664 32.6464C20.3717 33.3759 20.6507 34.0169 21.2033 34.5696L26.6149 39.9811C27.1821 40.5444 27.829 40.8261 28.5555 40.8261C29.2821 40.8261 29.927 40.5444 30.4903 39.9811L42.7179 27.7536C43.2705 27.201 43.5469 26.5626 43.5469 25.8384C43.5469 25.1143 43.2705 24.4759 42.7179 23.9232C42.1652 23.3705 41.5352 23.0942 40.828 23.0942C40.1208 23.0942 39.4908 23.3705 38.9381 23.9232L28.5527 34.242ZM32.0005 58.142C28.4043 58.142 25.0189 57.4616 21.8441 56.1009C18.6694 54.7401 15.8918 52.8695 13.5114 50.4891C11.131 48.1087 9.2604 45.3311 7.8996 42.1563C6.5388 38.9816 5.8584 35.5961 5.8584 32C5.8584 28.3594 6.5388 24.9629 7.8996 21.8103C9.2604 18.6578 11.131 15.8913 13.5114 13.5109C15.8918 11.1305 18.6694 9.25993 21.8441 7.89913C25.0189 6.53833 28.4043 5.85793 32.0005 5.85793C35.641 5.85793 39.0376 6.53833 42.1901 7.89913C45.3427 9.25993 48.1091 11.1305 50.4895 13.5109C52.8699 15.8913 54.7405 18.6578 56.1013 21.8103C57.4621 24.9629 58.1425 28.3594 58.1425 32C58.1425 35.5961 57.4621 38.9816 56.1013 42.1563C54.7405 45.3311 52.8699 48.1087 50.4895 50.4891C48.1091 52.8695 45.3427 54.7401 42.1901 56.1009C39.0376 57.4617 35.641 58.142 32.0005 58.142Z" fill="#7232F8"/>
</svg>
