<svg width="20" height="20" viewBox="0 0 20 20" fill="none" xmlns="http://www.w3.org/2000/svg">
<path d="M9.99979 12.568C9.87539 12.568 9.75363 12.5438 9.63452 12.4955C9.51541 12.4472 9.40226 12.3694 9.29508 12.2622L5.52425 8.49141C5.33433 8.30149 5.24632 8.06659 5.26021 7.7867C5.2741 7.50681 5.36906 7.27885 5.54508 7.10283C5.74889 6.89902 5.98379 6.80059 6.24979 6.80753C6.51579 6.81448 6.74375 6.91291 6.93367 7.10283L9.99979 10.1898L13.0868 7.10283C13.2767 6.91291 13.5012 6.81795 13.7602 6.81795C14.0193 6.81795 14.2507 6.91985 14.4545 7.12366C14.6444 7.31358 14.7394 7.54501 14.7394 7.81795C14.7394 8.09089 14.6444 8.32232 14.4545 8.51224L10.7045 12.2622C10.5973 12.3694 10.4842 12.4472 10.3651 12.4955C10.246 12.5438 10.1242 12.568 9.99979 12.568Z" fill="black"/>
</svg>
