<svg width="24" height="24" viewBox="0 0 24 24" fill="none" xmlns="http://www.w3.org/2000/svg">
<path d="M12.0002 16C13.2502 16 14.3127 15.5625 15.1877 14.6875C16.0627 13.8125 16.5002 12.75 16.5002 11.5C16.5002 10.25 16.0627 9.18752 15.1877 8.31252C14.3127 7.43752 13.2502 7.00002 12.0002 7.00002C10.7502 7.00002 9.68771 7.43752 8.81271 8.31252C7.93771 9.18752 7.50021 10.25 7.50021 11.5C7.50021 12.75 7.93771 13.8125 8.81271 14.6875C9.68771 15.5625 10.7502 16 12.0002 16ZM12.0013 14.0745C11.2864 14.0745 10.6785 13.8243 10.1774 13.3239C9.6763 12.8235 9.42576 12.2159 9.42576 11.5011C9.42576 10.7862 9.67595 10.1783 10.1763 9.6772C10.6767 9.17611 11.2843 8.92557 11.9992 8.92557C12.714 8.92557 13.322 9.17576 13.823 9.67615C14.3241 10.1765 14.5747 10.7841 14.5747 11.499C14.5747 12.2138 14.3245 12.8218 13.8241 13.3228C13.3237 13.8239 12.7161 14.0745 12.0013 14.0745ZM12.0002 19.1853C9.65565 19.1853 7.51208 18.5619 5.56951 17.315C3.62693 16.0681 2.15401 14.391 1.15076 12.2837C1.0936 12.1894 1.05548 12.0716 1.03641 11.9301C1.01735 11.7887 1.00781 11.6453 1.00781 11.5C1.00781 11.3547 1.01735 11.2114 1.03641 11.0699C1.05546 10.9285 1.09358 10.8106 1.15076 10.7163C2.15401 8.60907 3.62693 6.93199 5.56951 5.68507C7.51208 4.43816 9.65565 3.8147 12.0002 3.8147C14.3448 3.8147 16.4883 4.43816 18.4309 5.68507C20.3735 6.93199 21.8464 8.60907 22.8497 10.7163C22.9068 10.8106 22.945 10.9285 22.964 11.0699C22.9831 11.2114 22.9926 11.3547 22.9926 11.5C22.9926 11.6453 22.9831 11.7887 22.964 11.9301C22.945 12.0716 22.9068 12.1894 22.8497 12.2837C21.8464 14.391 20.3735 16.0681 18.4309 17.315C16.4883 18.5619 14.3448 19.1853 12.0002 19.1853Z" fill="white"/>
</svg>
