<svg width="24" height="24" viewBox="0 0 24 24" fill="none" xmlns="http://www.w3.org/2000/svg">
<path d="M5.9344 21.2033C5.61518 21.2033 5.34579 21.0935 5.12622 20.874C4.90666 20.6544 4.79688 20.385 4.79688 20.0658V4.93428C4.79688 4.61506 4.90666 4.34567 5.12622 4.1261C5.34579 3.90654 5.61518 3.79675 5.9344 3.79675H13.2289C13.4981 3.79675 13.7354 3.88272 13.9406 4.05465C14.1459 4.22657 14.2775 4.44514 14.3355 4.71035L14.5675 5.79675H19.0659C19.3851 5.79675 19.6545 5.90654 19.8741 6.1261C20.0936 6.34567 20.2034 6.61506 20.2034 6.93428V15.0658C20.2034 15.385 20.0936 15.6544 19.8741 15.874C19.6545 16.0935 19.3851 16.2033 19.0659 16.2033H13.7713C13.5022 16.2033 13.2649 16.1173 13.0596 15.9454C12.8544 15.7735 12.7228 15.5549 12.6648 15.2897L12.4328 14.2033H7.0719V20.0658C7.0719 20.385 6.96212 20.6544 6.74255 20.874C6.52298 21.0935 6.2536 21.2033 5.9344 21.2033Z" fill="white"/>
</svg>
