<svg width="24" height="24" viewBox="0 0 24 24" fill="none" xmlns="http://www.w3.org/2000/svg">
<path d="M1.95195 20.3049C1.63275 20.3049 1.36337 20.1951 1.1438 19.9755C0.924236 19.756 0.814453 19.4866 0.814453 19.1674V17.2896C0.814453 16.6871 0.970245 16.1324 1.28183 15.6255C1.59343 15.1186 2.00883 14.7322 2.52803 14.4663C3.57333 13.9456 4.63728 13.5541 5.71988 13.2918C6.8025 13.0295 7.90177 12.8983 9.0177 12.8983C10.1416 12.8983 11.2449 13.0285 12.3275 13.2888C13.4101 13.5492 14.4701 13.9396 15.5074 14.4603C16.0266 14.7262 16.442 15.1117 16.7536 15.6165C17.0652 16.1214 17.221 16.6791 17.221 17.2896V19.1674C17.221 19.4866 17.1112 19.756 16.8916 19.9755C16.6721 20.1951 16.4027 20.3049 16.0835 20.3049H1.95195ZM18.7699 20.3049C18.9358 20.1723 19.0674 20.0065 19.1647 19.8076C19.262 19.6087 19.3107 19.3869 19.3107 19.1424V17.1076C19.3107 16.3583 19.1085 15.6362 18.7041 14.9413C18.2998 14.2464 17.7166 13.6273 16.9547 13.0842C17.7608 13.1922 18.523 13.364 19.2411 13.5997C19.9592 13.8354 20.6353 14.1222 21.2694 14.4603C21.8853 14.7936 22.3586 15.1874 22.6892 15.6415C23.0198 16.0957 23.1851 16.5904 23.1851 17.1255V19.1674C23.1851 19.4866 23.0753 19.756 22.8558 19.9755C22.6362 20.1951 22.3668 20.3049 22.0476 20.3049H18.7699ZM9.0177 11.8983C7.88582 11.8983 6.91924 11.4977 6.11798 10.6964C5.31671 9.89516 4.91608 8.92858 4.91608 7.79669C4.91608 6.66481 5.31671 5.69824 6.11798 4.89697C6.91924 4.0957 7.88582 3.69507 9.0177 3.69507C10.1496 3.69507 11.1162 4.0957 11.9175 4.89697C12.7187 5.69824 13.1194 6.66481 13.1194 7.79669C13.1194 8.92858 12.7187 9.89516 11.9175 10.6964C11.1162 11.4977 10.1496 11.8983 9.0177 11.8983ZM19.3107 7.79669C19.3107 8.92459 18.909 9.89018 18.1058 10.6934C17.3025 11.4967 16.3369 11.8983 15.209 11.8983C15.0217 11.8983 14.7884 11.8765 14.509 11.8328C14.2297 11.7892 13.9904 11.7384 13.7911 11.6804C14.2491 11.1391 14.5999 10.5355 14.8435 9.86952C15.0872 9.20358 15.209 8.51264 15.209 7.79669C15.209 7.08076 15.0872 6.38982 14.8435 5.72387C14.5999 5.05793 14.2491 4.45431 13.7911 3.91299C14.0284 3.82568 14.2637 3.76753 14.4971 3.73854C14.7304 3.70956 14.9677 3.69507 15.209 3.69507C16.3369 3.69507 17.3025 4.0967 18.1058 4.89997C18.909 5.70322 19.3107 6.66879 19.3107 7.79669Z" fill="white"/>
</svg>
