<svg width="24" height="24" viewBox="0 0 24 24" fill="none" xmlns="http://www.w3.org/2000/svg">
<path d="M11.9997 22.2033C10.5888 22.2033 9.26301 21.9358 8.02242 21.4009C6.78184 20.8659 5.70159 20.1384 4.78168 19.2185C3.86174 18.2986 3.13429 17.2182 2.59933 15.9773C2.06436 14.7363 1.79688 13.4104 1.79688 11.9995C1.79688 10.5886 2.06436 9.26289 2.59933 8.0223C3.13429 6.78172 3.86174 5.70147 4.78168 4.78155C5.70159 3.86162 6.78201 3.13417 8.02293 2.5992C9.26384 2.06424 10.5898 1.79675 12.0007 1.79675C13.4116 1.79675 14.7373 2.06424 15.9779 2.5992C17.2185 3.13417 18.2987 3.86162 19.2186 4.78155C20.1386 5.70147 20.866 6.78189 21.401 8.0228C21.9359 9.26372 22.2034 10.5896 22.2034 12.0005C22.2034 13.4114 21.9359 14.7372 21.401 15.9778C20.866 17.2183 20.1386 18.2986 19.2186 19.2185C18.2987 20.1384 17.2183 20.8659 15.9774 21.4009C14.7365 21.9358 13.4106 22.2033 11.9997 22.2033ZM4.0719 12H12.0001V4.07178C9.79073 4.07178 7.917 4.84079 6.37895 6.37883C4.84092 7.91688 4.0719 9.79061 4.0719 12Z" fill="white"/>
</svg>
