<svg width="24" height="25" viewBox="0 0 24 25" fill="none" xmlns="http://www.w3.org/2000/svg">
<path d="M2.93438 22.7033C2.61516 22.7033 2.34577 22.5935 2.1262 22.374C1.90665 22.1544 1.79688 21.885 1.79688 21.5658V13.4343C1.79688 13.1151 1.90666 12.8457 2.12622 12.6261C2.34579 12.4065 2.61518 12.2968 2.9344 12.2968H5.79688V8.50003C5.79688 6.77689 6.39998 5.31224 7.60618 4.10605C8.81234 2.89985 10.277 2.29675 12.0001 2.29675H16.0001C17.7233 2.29675 19.1879 2.89985 20.3941 4.10605C21.6003 5.31224 22.2034 6.77689 22.2034 8.50003V21.5658C22.2034 21.885 22.0936 22.1544 21.8741 22.374C21.6545 22.5935 21.3851 22.7033 21.0659 22.7033C20.7467 22.7033 20.4773 22.5935 20.2577 22.3739C20.0382 22.1544 19.9284 21.885 19.9284 21.5658V19.7033H16.2034V21.5658C16.2034 21.885 16.0936 22.1544 15.874 22.374C15.6545 22.5935 15.3851 22.7033 15.0659 22.7033H2.93438ZM16.2034 17.4283H19.9284V8.50003C19.9284 7.41598 19.5447 6.49025 18.7773 5.72285C18.0099 4.95547 17.0842 4.57178 16.0001 4.57178H12.0001C10.9161 4.57178 9.99035 4.95547 9.22295 5.72285C8.45557 6.49025 8.07188 7.41598 8.07188 8.50003V12.2968H15.0659C15.3851 12.2968 15.6545 12.4065 15.874 12.6261C16.0936 12.8457 16.2034 13.1151 16.2034 13.4343V17.4283ZM11.0001 10.4821C10.7168 10.4821 10.4793 10.3863 10.2876 10.1946C10.096 10.0029 10.0001 9.76544 10.0001 9.4821C10.0001 9.19877 10.096 8.96127 10.2876 8.7696C10.4793 8.57794 10.7168 8.4821 11.0001 8.4821H17.0001C17.2835 8.4821 17.521 8.57794 17.7126 8.7696C17.9043 8.96127 18.0001 9.19877 18.0001 9.4821C18.0001 9.76544 17.9043 10.0029 17.7126 10.1946C17.521 10.3863 17.2835 10.4821 17.0001 10.4821H11.0001ZM8.9999 18.7881C9.2073 18.7881 9.40533 18.7598 9.59398 18.7033C9.78264 18.6468 9.96187 18.5714 10.1316 18.4772L13.5534 16.5468C13.6534 16.4761 13.7409 16.3832 13.8159 16.2679C13.8909 16.1527 13.9284 16.021 13.9284 15.8729C13.9284 15.6095 13.8127 15.3934 13.5814 15.2248C13.35 15.0561 13.0907 15.0551 12.8034 15.2218L9.00013 17.3799L5.19688 15.2218C4.93021 15.0718 4.67604 15.0718 4.43437 15.2218C4.19271 15.3718 4.07187 15.5884 4.07187 15.8718C4.07187 16.0218 4.10937 16.1541 4.18437 16.2688C4.25937 16.3834 4.34687 16.4761 4.44687 16.5468L7.8686 18.4772C8.0383 18.5714 8.21743 18.6468 8.40598 18.7033C8.59451 18.7598 8.79248 18.7881 8.9999 18.7881Z" fill="#7232FA"/>
</svg>
