<svg width="24" height="24" viewBox="0 0 24 24" fill="none" xmlns="http://www.w3.org/2000/svg">
<path d="M4.07187 20.2033C3.44216 20.2033 2.90556 19.9816 2.46207 19.5381C2.01861 19.0946 1.79688 18.558 1.79688 17.9283V6.07178C1.79688 5.44206 2.01863 4.90546 2.46213 4.46198C2.90559 4.01849 3.44218 3.79675 4.0719 3.79675H19.9284C20.5581 3.79675 21.0947 4.01849 21.5382 4.46198C21.9817 4.90546 22.2034 5.44206 22.2034 6.07178V17.9283C22.2034 18.558 21.9817 19.0946 21.5382 19.5381C21.0947 19.9816 20.5581 20.2033 19.9284 20.2033H4.07187ZM12.0001 13.0522C12.0994 13.0522 12.2009 13.0377 12.3045 13.0087C12.4081 12.9797 12.5076 12.9363 12.6029 12.8783L19.4925 8.531C19.6298 8.44767 19.7368 8.33753 19.8135 8.20058C19.8901 8.06363 19.9284 7.91218 19.9284 7.74623C19.9284 7.38898 19.7738 7.11805 19.4645 6.93345C19.1553 6.74885 18.8367 6.75819 18.5088 6.96145L12.0001 11.0718L5.49142 6.96145C5.16752 6.76217 4.84996 6.75501 4.53873 6.93998C4.22749 7.12494 4.07187 7.39369 4.07187 7.74623C4.07187 7.92884 4.11018 8.08763 4.1868 8.22258C4.26343 8.35754 4.37041 8.46035 4.50773 8.531L11.3974 12.8783C11.4927 12.9363 11.5922 12.9797 11.6958 13.0087C11.7994 13.0377 11.9008 13.0522 12.0001 13.0522Z" fill="white"/>
</svg>
