<svg width="24" height="25" viewBox="0 0 24 25" fill="none" xmlns="http://www.w3.org/2000/svg">
<path d="M4.95201 21.5C4.38606 21.5 3.90426 21.3001 3.50663 20.9005C3.10898 20.5009 2.91016 20.0181 2.91016 19.4521C2.91016 18.8862 3.10898 18.4044 3.50663 18.0068C3.90426 17.6091 4.38606 17.4103 4.95201 17.4103C5.51794 17.4103 6.00073 17.6091 6.40038 18.0068C6.80001 18.4044 6.99983 18.8862 6.99983 19.4521C6.99983 20.0181 6.80001 20.5009 6.40038 20.9005C6.00073 21.3001 5.51794 21.5 4.95201 21.5ZM18.4748 21.5C18.0509 21.5 17.6832 21.3503 17.3716 21.051C17.06 20.7518 16.8752 20.3798 16.8172 19.9353C16.6426 18.3219 16.2031 16.8055 15.4987 15.3861C14.7944 13.9667 13.893 12.7088 12.7947 11.6125C11.6963 10.5161 10.4384 9.61472 9.02103 8.90838C7.60363 8.20205 6.08823 7.76156 4.47483 7.58691C4.03026 7.52894 3.65835 7.34099 3.35908 7.02306C3.0598 6.70512 2.91016 6.32587 2.91016 5.88528C2.91016 5.44072 3.06496 5.07197 3.37456 4.77903C3.68416 4.4861 4.05091 4.35829 4.47483 4.39561C6.5328 4.57422 8.46577 5.09986 10.2738 5.97251C12.0817 6.84516 13.6762 7.97197 15.0572 9.35293C16.4381 10.7339 17.565 12.3284 18.4376 14.1364C19.3103 15.9443 19.8359 17.8773 20.0145 19.9353C20.0558 20.3592 19.9238 20.726 19.6186 21.0356C19.3133 21.3452 18.9321 21.5 18.4748 21.5ZM12.3852 21.5C11.9779 21.5 11.6101 21.3535 11.2819 21.0606C10.9536 20.7676 10.7419 20.3925 10.6466 19.9353C10.3386 18.3824 9.62021 17.0425 8.49141 15.9157C7.36261 14.7889 6.02176 14.0715 4.46886 13.7636C4.01161 13.6683 3.63751 13.4523 3.34658 13.1157C3.05563 12.7791 2.91016 12.3989 2.91016 11.975C2.91016 11.5177 3.06912 11.1468 3.38706 10.8622C3.70499 10.5776 4.06758 10.4643 4.47483 10.5222C6.92555 10.8675 9.02075 11.91 10.7604 13.6497C12.5001 15.3894 13.5426 17.4846 13.8879 19.9353C13.9458 20.3425 13.8252 20.7051 13.5259 21.0231C13.2266 21.341 12.8464 21.5 12.3852 21.5Z" fill="#7232FA"/>
</svg>
