<svg xmlns="http://www.w3.org/2000/svg" width="32" height="32" viewBox="0 0 32 32" fill="none">
  <g clip-path="url(#clip0_31_5946)">
    <path fill-rule="evenodd" clip-rule="evenodd" d="M0.77507 14.9439L3.58039 17.3477L12.4136 24.6481L16.2259 21.3922C16.5712 20.9725 16.5568 20.4001 16.1541 19.9931L12.6726 17.2968H12.6869L8.93209 14.0791C8.71943 13.8671 8.60562 13.5917 8.61363 13.3084C8.62165 13.0252 8.75087 12.7552 8.97525 12.5529L19.06 3.92975L14.4851 -0.000244141L0.789456 11.688C-0.260742 12.591 -0.260742 14.0536 0.77507 14.9439Z" fill="#292A32"/>
    <path fill-rule="evenodd" clip-rule="evenodd" d="M30.886 17.0432L28.0952 14.6521L19.2476 7.35181L15.4352 10.595C15.0899 11.0274 15.1187 11.5997 15.5072 12.0067L18.9887 14.703L22.729 17.9208C23.1751 18.3659 23.1607 19.0146 22.7003 19.447L12.6011 28.0701L17.1904 32.0001L28.0808 22.7029L30.886 20.2991C31.9363 19.4088 31.9363 17.9462 30.886 17.0432Z" fill="#292A32"/>
  </g>
  <defs>
    <clipPath id="clip0_31_5946">
      <rect width="32" height="32" fill="white"/>
    </clipPath>
  </defs>
</svg>