<svg width="24" height="24" viewBox="0 0 24 24" fill="none" xmlns="http://www.w3.org/2000/svg">
<path d="M12 1.5C6.20137 1.5 1.5 6.20137 1.5 12C1.5 17.7986 6.20137 22.5 12 22.5C17.7986 22.5 22.5 17.7986 22.5 12C22.5 6.20137 17.7986 1.5 12 1.5ZM9.312 15.9053C9.15286 15.9057 8.9952 15.8747 8.84805 15.8141C8.7009 15.7535 8.56713 15.6645 8.45438 15.5521C8.34164 15.4398 8.25213 15.3064 8.19097 15.1595C8.12981 15.0126 8.0982 14.855 8.09794 14.6959C8.1083 14.3806 8.24082 14.0817 8.46749 13.8624C8.69417 13.6431 8.99723 13.5204 9.31266 13.5204C9.62808 13.5204 9.93115 13.6431 10.1578 13.8624C10.3845 14.0817 10.517 14.3806 10.5274 14.6959C10.5274 15.3652 9.984 15.9053 9.312 15.9053ZM12.3616 15.9034C12.3635 15.3422 12.254 14.7861 12.0395 14.2675C11.825 13.7489 11.5098 13.278 11.1121 12.882C10.7174 12.4843 10.2476 12.1689 9.73011 11.9541C9.2126 11.7393 8.65761 11.6293 8.09728 11.6305V9.88228C11.4159 9.88228 14.1171 12.5834 14.1171 15.9034H12.3616ZM15.4611 15.9027C15.4611 11.8386 12.1568 8.53041 8.09794 8.53106V6.78216C13.1248 6.78216 17.2152 10.8752 17.2152 15.9027H15.4611Z" fill="#292A32"/>
</svg>
