<svg width="24" height="25" viewBox="0 0 24 25" fill="none" xmlns="http://www.w3.org/2000/svg">
<path d="M12 19.0022L7.83212 21.5142C7.62089 21.6468 7.40132 21.7038 7.17342 21.6851C6.94552 21.6665 6.74661 21.5908 6.57667 21.4582C6.40674 21.3256 6.27513 21.1588 6.18185 20.9579C6.08855 20.757 6.07088 20.5343 6.12885 20.2897L7.23482 15.5468L3.5419 12.3539C3.35131 12.1839 3.2322 11.9902 3.18455 11.7726C3.1369 11.555 3.14841 11.3426 3.21907 11.1354C3.28972 10.9281 3.40466 10.7562 3.5639 10.6196C3.72315 10.483 3.93338 10.3981 4.1946 10.3647L9.06255 9.93973L10.9495 5.46581C11.0448 5.23392 11.1909 5.062 11.3878 4.95005C11.5847 4.83809 11.7888 4.7821 12 4.7821C12.2113 4.7821 12.4154 4.83809 12.6123 4.95005C12.8092 5.062 12.9553 5.23392 13.0506 5.46581L14.9375 9.93973L19.8055 10.3647C20.0667 10.3981 20.2769 10.483 20.4362 10.6196C20.5954 10.7562 20.7104 10.9281 20.781 11.1354C20.8517 11.3426 20.8632 11.555 20.8155 11.7726C20.7679 11.9902 20.6488 12.1839 20.4582 12.3539L16.7653 15.5468L17.8712 20.2897C17.9292 20.5343 17.9115 20.757 17.8182 20.9579C17.725 21.1588 17.5934 21.3256 17.4234 21.4582C17.2535 21.5908 17.0546 21.6665 16.8267 21.6851C16.5988 21.7038 16.3792 21.6468 16.168 21.5142L12 19.0022Z" fill="#7232FA"/>
</svg>
