<svg width="24" height="25" viewBox="0 0 24 25" fill="none" xmlns="http://www.w3.org/2000/svg">
<path d="M14.1376 21.6674C13.8423 21.6674 13.5939 21.5666 13.3922 21.365C13.1906 21.1633 13.0898 20.9149 13.0898 20.6196C13.0898 20.3243 13.1906 20.0758 13.3922 19.8742C13.5939 19.6726 13.8423 19.5718 14.1376 19.5718C14.909 19.5718 15.5939 19.4226 16.1922 19.1242C16.7906 18.8258 17.0898 18.491 17.0898 18.1196C17.0898 17.8982 16.9845 17.6895 16.7738 17.4935C16.5631 17.2975 16.2661 17.1181 15.8827 16.9555L17.4235 15.4147C17.9648 15.7353 18.3938 16.1143 18.7104 16.5516C19.0271 16.989 19.1854 17.5116 19.1854 18.1196C19.1854 19.2355 18.6555 20.1058 17.5955 20.7305C16.5355 21.3551 15.3829 21.6674 14.1376 21.6674ZM4.39577 13.7603C3.88454 13.477 3.48626 13.1449 3.20092 12.7639C2.91561 12.3829 2.77295 11.9158 2.77295 11.3625C2.77295 10.6546 3.02929 10.0551 3.54197 9.56415C4.05466 9.07321 4.98962 8.54206 6.34685 7.97067C7.38092 7.51126 8.04378 7.18671 8.33545 6.99702C8.62712 6.80736 8.77295 6.59586 8.77295 6.36252C8.77295 6.10781 8.61344 5.88543 8.29442 5.6954C7.97539 5.50536 7.48218 5.41035 6.8148 5.41035C6.4061 5.41035 6.06207 5.45935 5.78272 5.55735C5.50337 5.65537 5.25102 5.81706 5.02567 6.04242C4.83037 6.23771 4.59441 6.35102 4.31777 6.38235C4.04116 6.4137 3.79052 6.33571 3.56587 6.1484C3.33726 5.96976 3.20628 5.74213 3.17295 5.4655C3.13962 5.18888 3.21661 4.93626 3.40392 4.70762C3.72457 4.31632 4.18472 3.98634 4.78435 3.71767C5.384 3.44902 6.06082 3.3147 6.8148 3.3147C8.03073 3.3147 9.00936 3.58951 9.75067 4.13915C10.492 4.68878 10.8626 5.42991 10.8626 6.36252C10.8626 7.04839 10.619 7.65265 10.1316 8.1753C9.64433 8.69795 8.66136 9.26597 7.18272 9.87937C6.21207 10.2801 5.58272 10.5804 5.29467 10.7804C5.00664 10.9804 4.86262 11.1745 4.86262 11.3625C4.86262 11.5085 4.95846 11.6504 5.15012 11.7881C5.34179 11.9257 5.61426 12.0592 5.96752 12.1886L4.39577 13.7603ZM19.0474 10.8283L14.6719 6.45275L15.7159 5.40872C16.1318 4.99277 16.6299 4.78381 17.2102 4.78182C17.7904 4.77982 18.2842 4.98879 18.6914 5.40872L20.0914 6.80872C20.5114 7.21596 20.7203 7.70971 20.7183 8.28997C20.7163 8.87022 20.5074 9.36832 20.0914 9.78427L19.0474 10.8283ZM4.4822 21.5897C4.32495 21.5897 4.19034 21.5337 4.07837 21.4218C3.96642 21.3098 3.91045 21.1752 3.91045 21.0179V17.444C3.91045 17.3987 3.96842 17.2641 4.08437 17.0402L13.2001 7.92447L17.5757 12.3L8.4599 21.4218C8.42258 21.4591 8.28798 21.5151 8.0561 21.5897H4.4822Z" fill="#7232FA"/>
</svg>
