<svg width="24" height="24" viewBox="0 0 24 24" fill="none" xmlns="http://www.w3.org/2000/svg">
<path d="M3.81818 2C2.81364 2 2 2.81364 2 3.81818V20.1818C2 21.1864 2.81364 22 3.81818 22H20.1818C21.1864 22 22 21.1864 22 20.1818V3.81818C22 2.81364 21.1864 2 20.1818 2H3.81818ZM6.22585 6.54545H10.418L12.8647 10.0433L15.892 6.54545H17.2113L13.4577 10.892L18.0494 17.4545H13.8572L11.1424 13.5732L7.79013 17.4545H6.44957L10.5458 12.7227L6.22585 6.54545ZM8.25355 7.62145L14.3935 16.3732H16.0199L9.8782 7.62145H8.25355Z" fill="#292A32"/>
</svg>
